<svg width="133" height="30" viewBox="0 0 133 30" fill="none" xmlns="http://www.w3.org/2000/svg">
<g clip-path="url(#clip0_7_54)">
<path fill-rule="evenodd" clip-rule="evenodd" d="M23 8C24.6569 8 26 9.34315 26 11V17.8385C26 18.3657 26 18.8205 25.9694 19.195C25.9371 19.5904 25.8658 19.9836 25.673 20.362C25.3854 20.9265 24.9265 21.3854 24.362 21.673C23.9836 21.8658 23.5904 21.9371 23.195 21.9694C22.8205 22 22.3657 22 21.8385 22H18.2C17.6234 22 17.2512 22.0008 16.9678 22.0239C16.6962 22.0461 16.5955 22.0838 16.546 22.109C16.3578 22.2049 16.2049 22.3578 16.109 22.546C16.0838 22.5955 16.0461 22.6962 16.0239 22.9678C16.0036 23.217 16.0005 23.5349 16.0001 24H19C19.5523 24 20 23.5523 20 23V22.5H22V23C22 24.6569 20.6569 26 19 26H12.1615C11.6344 26 11.1795 26 10.805 25.9694C10.4096 25.9371 10.0164 25.8658 9.63803 25.673C9.07354 25.3854 8.6146 24.9265 8.32698 24.362C8.13419 23.9836 8.06287 23.5904 8.03057 23.195C7.99997 22.8205 7.99998 22.3657 8 21.8385V18.2C8 17.6234 7.99922 17.2512 7.97607 16.9678C7.95388 16.6962 7.9162 16.5955 7.89101 16.546C7.79513 16.3578 7.64215 16.2049 7.45399 16.109C7.40455 16.0838 7.30383 16.0461 7.03216 16.0239C6.78302 16.0036 6.4651 16.0005 6 16.0001V19C6 19.5523 6.44772 20 7 20H7.5V22H7C5.34315 22 4 20.6569 4 19V12.1615C3.99999 11.6344 3.99997 11.1795 4.03057 10.805C4.06287 10.4096 4.13419 10.0164 4.32699 9.63803C4.61461 9.07354 5.07355 8.6146 5.63803 8.32698C6.01641 8.13419 6.40963 8.06287 6.80498 8.03057C7.17954 7.99997 7.6343 7.99998 8.16144 8H11.8C12.3766 8 12.7488 7.99922 13.0322 7.97607C13.3038 7.95388 13.4046 7.9162 13.454 7.89101C13.6422 7.79513 13.7951 7.64215 13.891 7.45399C13.9162 7.40455 13.9539 7.30383 13.9761 7.03216C13.9964 6.78302 13.9995 6.4651 13.9999 6H11C10.4477 6 10 6.44772 10 7V7.5H8V7C8 5.34315 9.34315 4 11 4H17.8385C18.3657 3.99998 18.8205 3.99997 19.195 4.03057C19.5904 4.06287 19.9836 4.13419 20.362 4.32698C20.9265 4.6146 21.3854 5.07355 21.673 5.63803C21.8658 6.01641 21.9371 6.40963 21.9694 6.80498C22 7.17953 22 7.63427 22 8.16139V11.8C22 12.3766 22.0008 12.7488 22.0239 13.0322C22.0461 13.3038 22.0838 13.4045 22.109 13.454C22.2049 13.6422 22.3578 13.7951 22.546 13.891C22.5955 13.9162 22.6962 13.9539 22.9678 13.9761C23.217 13.9964 23.5349 13.9995 24 13.9999V11C24 10.4477 23.5523 10 23 10H22.5V8H23ZM9.23607 15C9.40762 14.8082 9.5548 14.594 9.67302 14.362C9.86582 13.9836 9.93713 13.5904 9.96943 13.195C10 12.8205 10 12.3657 10 11.8385L9.99963 10.5H8V11.8C8 12.3766 7.99923 12.7488 7.97608 13.0322C7.95388 13.3038 7.9162 13.4045 7.89101 13.454C7.79514 13.6421 7.64216 13.7951 7.45399 13.891C7.40455 13.9162 7.30383 13.9539 7.03217 13.9761C6.78302 13.9964 6.46511 13.9995 6 13.9999V12.2C6 11.6234 6.00078 11.2512 6.02393 10.9678C6.04613 10.6962 6.0838 10.5955 6.109 10.546C6.20487 10.3579 6.35785 10.2049 6.54601 10.109C6.59546 10.0838 6.69618 10.0461 6.96784 10.0239C7.25118 10.0008 7.62345 10 8.2 10H11.8386C12.3657 10 12.8205 10 13.195 9.96943C13.5904 9.93713 13.9836 9.86581 14.362 9.67302C14.594 9.55479 14.8082 9.40762 15 9.23607C15.1918 9.40762 15.406 9.5548 15.638 9.67302C16.0164 9.86582 16.4096 9.93713 16.805 9.96943C17.1795 10 17.6343 10 18.1615 10L19.5 9.99962V8H18.2C17.6234 8 17.2512 7.99923 16.9678 7.97608C16.6962 7.95388 16.5955 7.9162 16.546 7.89101C16.3579 7.79514 16.2049 7.64216 16.109 7.45399C16.0838 7.40455 16.0461 7.30383 16.0239 7.03217C16.0036 6.78302 16.0005 6.46511 16.0001 6H17.8C18.3766 6 18.7488 6.00078 19.0322 6.02393C19.3038 6.04613 19.4045 6.0838 19.454 6.109C19.6422 6.20487 19.7951 6.35785 19.891 6.54601C19.9162 6.59546 19.9539 6.69618 19.9761 6.96784C19.9992 7.25118 20 7.62345 20 8.2V11.8386C20 12.3657 20 12.8205 20.0306 13.195C20.0629 13.5904 20.1342 13.9836 20.327 14.362C20.4452 14.594 20.5924 14.8082 20.7639 15C20.5924 15.1918 20.4452 15.406 20.327 15.638C20.1342 16.0164 20.0629 16.4096 20.0306 16.805C20 17.1795 20 17.6343 20 18.1614L20.0004 19.5H22V18.2C22 17.6234 22.0008 17.2512 22.0239 16.9678C22.0461 16.6962 22.0838 16.5955 22.109 16.546C22.2049 16.3579 22.3578 16.2049 22.546 16.109C22.5955 16.0838 22.6962 16.0461 22.9678 16.0239C23.217 16.0036 23.5349 16.0005 24 16.0001V17.8C24 18.3766 23.9992 18.7488 23.9761 19.0322C23.9539 19.3038 23.9162 19.4045 23.891 19.454C23.7951 19.6422 23.6422 19.7951 23.454 19.891C23.4045 19.9162 23.3038 19.9539 23.0322 19.9761C22.7488 19.9992 22.3766 20 21.8 20H18.1615C17.6343 20 17.1795 20 16.805 20.0306C16.4096 20.0629 16.0164 20.1342 15.638 20.327C15.406 20.4452 15.1918 20.5924 15 20.7639C14.8082 20.5924 14.594 20.4452 14.362 20.327C13.9836 20.1342 13.5904 20.0629 13.195 20.0306C12.8205 20 12.3657 20 11.8385 20L10.5 20.0004V22H11.8C12.3766 22 12.7488 22.0008 13.0322 22.0239C13.3038 22.0461 13.4045 22.0838 13.454 22.109C13.6421 22.2049 13.7951 22.3578 13.891 22.546C13.9162 22.5954 13.9539 22.6962 13.9761 22.9678C13.9964 23.217 13.9995 23.5349 13.9999 24H12.2C11.6234 24 11.2512 23.9992 10.9678 23.9761C10.6962 23.9539 10.5955 23.9162 10.546 23.891C10.3579 23.7951 10.2049 23.6421 10.109 23.454C10.0838 23.4045 10.0461 23.3038 10.0239 23.0322C10.0008 22.7488 10 22.3766 10 21.8V18.1615C10 17.6343 10 17.1795 9.96943 16.805C9.93713 16.4096 9.86581 16.0164 9.67302 15.638C9.55479 15.406 9.40762 15.1918 9.23607 15Z" fill="#44403C"/>
<path d="M41.287 8.302C41.0109 8.302 40.787 8.52586 40.787 8.802V16.6221C40.787 18.7265 39.2892 19.6618 37.7515 19.6618C36.074 19.6618 34.716 18.746 34.716 16.6221V8.802C34.716 8.52586 34.4921 8.302 34.216 8.302H32.5C32.2239 8.302 32 8.52586 32 8.802V16.4662C32 19.8566 34.1368 22 37.7515 22C41.2663 22 43.503 19.8566 43.503 16.4662V8.802C43.503 8.52586 43.2792 8.302 43.003 8.302H41.287Z" fill="#44403C"/>
<path d="M51.3609 11.4001C49.5237 11.4001 48.3254 12.842 47.8461 13.8747C47.7663 14.0306 47.7063 14.1475 47.5466 14.1086C47.287 14.0501 47.4068 13.7773 47.4867 13.602C47.6864 13.1928 47.8062 12.8226 47.8062 12.199V12.056C47.8062 11.7799 47.5823 11.556 47.3062 11.556H45.75C45.4738 11.556 45.25 11.7799 45.25 12.056V21.3441C45.25 21.6203 45.4738 21.8441 45.75 21.8441H47.3062C47.5823 21.8441 47.8062 21.6203 47.8062 21.3441V17.6548C47.8062 15.2777 49.1642 13.6604 50.642 13.6604C51.98 13.6604 52.5991 14.3034 52.5991 16.6221V21.3441C52.5991 21.6203 52.823 21.8441 53.0991 21.8441H54.6553C54.9315 21.8441 55.1553 21.6203 55.1553 21.3441V15.7648C55.1553 12.842 53.6376 11.4001 51.3609 11.4001Z" fill="#44403C"/>
<path d="M56.4132 9.24704C56.4132 9.93577 56.9715 10.4941 57.6602 10.4941H57.7224C58.4111 10.4941 58.9694 9.93577 58.9694 9.24704C58.9694 8.55832 58.4111 8 57.7224 8H57.6602C56.9715 8 56.4132 8.55832 56.4132 9.24704ZM56.4132 21.3441C56.4132 21.6203 56.637 21.8441 56.9132 21.8441H58.4694C58.7455 21.8441 58.9694 21.6203 58.9694 21.3441V12.056C58.9694 11.7799 58.7455 11.556 58.4694 11.556H56.9132C56.637 11.556 56.4132 11.7799 56.4132 12.056V21.3441Z" fill="#44403C"/>
<path d="M65.0326 11.4001C61.7375 11.4001 59.7604 13.7773 59.7604 16.7001C59.7604 19.6228 61.7375 22 65.0326 22C68.3278 22 70.3049 19.6228 70.3049 16.7001C70.3049 13.7773 68.3278 11.4001 65.0326 11.4001ZM65.0326 19.7397C63.2952 19.7397 62.3166 18.3758 62.3166 16.7001C62.3166 15.0244 63.2952 13.6604 65.0326 13.6604C66.7701 13.6604 67.7486 15.0244 67.7486 16.7001C67.7486 18.3758 66.7701 19.7397 65.0326 19.7397Z" fill="#44403C"/>
<path d="M77.2056 11.4001C75.3683 11.4001 74.1701 12.842 73.6908 13.8747C73.6109 14.0306 73.551 14.1475 73.3912 14.1086C73.1316 14.0501 73.2514 13.7773 73.3313 13.602C73.531 13.1928 73.6508 12.8226 73.6508 12.199V12.056C73.6508 11.7799 73.427 11.556 73.1508 11.556H71.5946C71.3185 11.556 71.0946 11.7799 71.0946 12.056V21.3441C71.0946 21.6203 71.3185 21.8441 71.5946 21.8441H73.1508C73.427 21.8441 73.6508 21.6203 73.6508 21.3441V17.6548C73.6508 15.2777 75.0088 13.6604 76.4867 13.6604C77.8247 13.6604 78.4438 14.3034 78.4438 16.6221V21.3441C78.4438 21.6203 78.6676 21.8441 78.9438 21.8441H80.5C80.7761 21.8441 81 21.6203 81 21.3441V15.7648C81 12.842 79.4822 11.4001 77.2056 11.4001Z" fill="#44403C"/>
</g>
<path d="M88.4019 22.1685C87.0692 21.8989 85.9461 21.1764 85.0327 20.001C84.1193 18.8255 83.6626 17.3206 83.6626 15.4863C83.6626 13.6445 84.1904 12.0386 85.2461 10.6685C86.3092 9.29834 87.7842 8.60954 89.6709 8.60205C91.5726 8.60205 93.0999 9.23096 94.2529 10.4888C95.4059 11.7466 95.9862 13.375 95.9937 15.374V15.3965C95.9937 17.2458 95.5594 18.7207 94.6909 19.8213C93.8224 20.9144 92.9277 21.6144 92.0068 21.9214C94.762 23.3364 97.2327 24.3659 99.4189 25.0098C101.613 25.6611 103.346 25.9868 104.619 25.9868C105.891 25.9868 106.82 25.9194 107.404 25.7847C107.988 25.6499 108.519 25.5039 108.999 25.3467V25.8857C108.677 26.2451 108.059 26.5334 107.146 26.7505C106.232 26.9676 105.169 27.0799 103.956 27.0874C100.362 27.0874 95.1776 25.4478 88.4019 22.1685ZM85.3472 15.2056C85.3472 17.3768 85.7964 18.964 86.6948 19.9673C87.5933 20.9705 88.6789 21.4759 89.9517 21.4834C91.4416 21.4834 92.5347 20.9294 93.231 19.8213C93.9347 18.7057 94.2904 17.3094 94.2979 15.6323C94.2979 13.5285 93.8299 11.9637 92.894 10.938C91.9657 9.91227 90.8426 9.39567 89.5249 9.38818H89.5137C88.2559 9.38818 87.2451 9.92725 86.4814 11.0054C85.7253 12.0835 85.3472 13.4836 85.3472 15.2056ZM97.4087 13.4199V12.9707H99.9805V17.665C99.9805 17.7699 99.9692 18.1292 99.9468 18.7432C99.8869 20.4876 100.497 21.3674 101.777 21.3823C102.489 21.3823 103.106 21.0978 103.63 20.5288C104.154 19.9598 104.417 19.3159 104.417 18.5972V15.8682C104.417 14.8724 104.372 14.2397 104.282 13.9702C104.162 13.6108 103.735 13.4312 103.001 13.4312V12.9707H105.809V19.563C105.809 20.3791 105.978 20.8657 106.314 21.0229C106.472 21.0903 106.771 21.1128 107.213 21.0903L107.269 21.4834L104.821 22.3257L104.417 20.8433L104.046 21.2026C103.17 21.9588 102.249 22.3407 101.283 22.3481C100.085 22.3481 99.2954 21.8914 98.9136 20.978C98.689 20.439 98.5767 19.7052 98.5767 18.7769V15.2617C98.5767 14.3408 98.3857 13.7568 98.0039 13.5098C97.8317 13.4049 97.6333 13.375 97.4087 13.4199ZM112.738 12.7236C114.176 12.7236 115.078 13.2852 115.445 14.4082C115.61 14.9173 115.654 15.4152 115.58 15.9019H110.2C110.103 16.4409 110.054 16.9425 110.054 17.4067C110.054 18.9865 110.526 20.0646 111.469 20.6411C111.971 20.9481 112.574 21.1016 113.277 21.1016C114.011 21.1016 114.749 20.832 115.49 20.293L115.815 20.6299L115.501 21.0005C114.647 21.8914 113.637 22.3407 112.469 22.3481C111.772 22.3481 111.129 22.1385 110.537 21.7192C109.347 20.8732 108.751 19.5929 108.751 17.8784C108.751 16.0666 109.257 14.6927 110.268 13.7568C111.031 13.0905 111.855 12.7461 112.738 12.7236ZM110.312 15.1719H114.131C114.131 14.5804 113.996 14.1424 113.727 13.8579C113.457 13.5659 113.113 13.4199 112.693 13.4199C112.042 13.4199 111.51 13.6146 111.099 14.0039C110.687 14.3857 110.425 14.7751 110.312 15.1719ZM122.632 13.3975L122.576 15.1382H121.992C121.947 14.367 121.715 13.8542 121.296 13.5996C121.041 13.4499 120.723 13.375 120.341 13.375C119.93 13.375 119.615 13.506 119.398 13.7681C119.188 14.0226 119.083 14.3521 119.083 14.7563C119.091 15.228 119.364 15.6885 119.903 16.1377L121.386 17.4292C122 17.9757 122.396 18.4325 122.576 18.7993C122.763 19.1587 122.857 19.5181 122.857 19.8774C122.857 20.7459 122.498 21.4123 121.779 21.8765C121.262 22.2059 120.611 22.3669 119.825 22.3594C119.046 22.3594 118.275 22.161 117.511 21.7642L117.376 19.9897H117.927C118.076 20.6336 118.275 21.0828 118.522 21.3374C118.769 21.5845 119.188 21.708 119.78 21.708C120.356 21.708 120.802 21.5433 121.116 21.2139C121.431 20.8844 121.584 20.54 121.577 20.1807C121.577 19.679 121.24 19.1325 120.566 18.541L119.083 17.272C118.185 16.5083 117.732 15.7783 117.725 15.082C117.725 14.2585 118.002 13.667 118.556 13.3076C119.117 12.9408 119.761 12.7573 120.487 12.7573C121.243 12.7573 121.958 12.9707 122.632 13.3975ZM129.112 13.8354H126.776V18.3052C126.776 18.9491 126.784 19.5555 126.799 20.1245C126.814 20.686 126.9 21.0716 127.057 21.2812C127.222 21.4834 127.458 21.5845 127.765 21.5845C128.311 21.5845 128.895 21.4347 129.517 21.1353V21.7417C128.723 22.161 128.045 22.3706 127.484 22.3706C126.952 22.3706 126.541 22.2808 126.249 22.1011C125.964 21.9289 125.754 21.7043 125.62 21.4272C125.492 21.1427 125.417 20.8245 125.395 20.4727C125.373 20.1208 125.361 19.7689 125.361 19.417V14.5991C125.361 14.4344 125.358 14.3071 125.35 14.2173C125.35 14.1274 125.335 14.0488 125.305 13.9814C125.283 13.9141 125.223 13.8729 125.125 13.8579C125.028 13.8429 124.882 13.8354 124.688 13.8354H124.059V13.3076C124.777 13.0007 125.271 12.7049 125.541 12.4204C125.811 12.1359 126.099 11.6418 126.406 10.938H126.776V12.9932H129.112V13.8354Z" fill="#D4AF37"/>
<defs>
<clipPath id="clip0_7_54">
<rect width="77" height="22" fill="white" transform="translate(4 4)"/>
</clipPath>
</defs>
</svg>
