<svg width="38" height="30" viewBox="0 0 38 30" fill="none" xmlns="http://www.w3.org/2000/svg">
<g clip-path="url(#clip0_7_47)">
<path fill-rule="evenodd" clip-rule="evenodd" d="M23 8C24.6569 8 26 9.34315 26 11V17.8385C26 18.3657 26 18.8205 25.9694 19.195C25.9371 19.5904 25.8658 19.9836 25.673 20.362C25.3854 20.9265 24.9265 21.3854 24.362 21.673C23.9836 21.8658 23.5904 21.9371 23.195 21.9694C22.8205 22 22.3657 22 21.8385 22H18.2C17.6234 22 17.2512 22.0008 16.9678 22.0239C16.6962 22.0461 16.5955 22.0838 16.546 22.109C16.3578 22.2049 16.2049 22.3578 16.109 22.546C16.0838 22.5955 16.0461 22.6962 16.0239 22.9678C16.0036 23.217 16.0005 23.5349 16.0001 24H19C19.5523 24 20 23.5523 20 23V22.5H22V23C22 24.6569 20.6569 26 19 26H12.1615C11.6344 26 11.1795 26 10.805 25.9694C10.4096 25.9371 10.0164 25.8658 9.63803 25.673C9.07354 25.3854 8.6146 24.9265 8.32698 24.362C8.13419 23.9836 8.06287 23.5904 8.03057 23.195C7.99997 22.8205 7.99998 22.3657 8 21.8385V18.2C8 17.6234 7.99922 17.2512 7.97607 16.9678C7.95388 16.6962 7.9162 16.5955 7.89101 16.546C7.79513 16.3578 7.64215 16.2049 7.45399 16.109C7.40455 16.0838 7.30383 16.0461 7.03216 16.0239C6.78302 16.0036 6.4651 16.0005 6 16.0001V19C6 19.5523 6.44772 20 7 20H7.5V22H7C5.34315 22 4 20.6569 4 19V12.1615C3.99999 11.6344 3.99997 11.1795 4.03057 10.805C4.06287 10.4096 4.13419 10.0164 4.32699 9.63803C4.61461 9.07354 5.07355 8.6146 5.63803 8.32698C6.01641 8.13419 6.40963 8.06287 6.80498 8.03057C7.17954 7.99997 7.6343 7.99998 8.16144 8H11.8C12.3766 8 12.7488 7.99922 13.0322 7.97607C13.3038 7.95388 13.4046 7.9162 13.454 7.89101C13.6422 7.79513 13.7951 7.64215 13.891 7.45399C13.9162 7.40455 13.9539 7.30383 13.9761 7.03216C13.9964 6.78302 13.9995 6.4651 13.9999 6H11C10.4477 6 10 6.44772 10 7V7.5H8V7C8 5.34315 9.34315 4 11 4H17.8385C18.3657 3.99998 18.8205 3.99997 19.195 4.03057C19.5904 4.06287 19.9836 4.13419 20.362 4.32698C20.9265 4.6146 21.3854 5.07355 21.673 5.63803C21.8658 6.01641 21.9371 6.40963 21.9694 6.80498C22 7.17953 22 7.63427 22 8.16139V11.8C22 12.3766 22.0008 12.7488 22.0239 13.0322C22.0461 13.3038 22.0838 13.4045 22.109 13.454C22.2049 13.6422 22.3578 13.7951 22.546 13.891C22.5955 13.9162 22.6962 13.9539 22.9678 13.9761C23.217 13.9964 23.5349 13.9995 24 13.9999V11C24 10.4477 23.5523 10 23 10H22.5V8H23ZM9.23607 15C9.40762 14.8082 9.5548 14.594 9.67302 14.362C9.86582 13.9836 9.93713 13.5904 9.96943 13.195C10 12.8205 10 12.3657 10 11.8385L9.99963 10.5H8V11.8C8 12.3766 7.99923 12.7488 7.97608 13.0322C7.95388 13.3038 7.9162 13.4045 7.89101 13.454C7.79514 13.6421 7.64216 13.7951 7.45399 13.891C7.40455 13.9162 7.30383 13.9539 7.03217 13.9761C6.78302 13.9964 6.46511 13.9995 6 13.9999V12.2C6 11.6234 6.00078 11.2512 6.02393 10.9678C6.04613 10.6962 6.0838 10.5955 6.109 10.546C6.20487 10.3579 6.35785 10.2049 6.54601 10.109C6.59546 10.0838 6.69618 10.0461 6.96784 10.0239C7.25118 10.0008 7.62345 10 8.2 10H11.8386C12.3657 10 12.8205 10 13.195 9.96943C13.5904 9.93713 13.9836 9.86581 14.362 9.67302C14.594 9.55479 14.8082 9.40762 15 9.23607C15.1918 9.40762 15.406 9.5548 15.638 9.67302C16.0164 9.86582 16.4096 9.93713 16.805 9.96943C17.1795 10 17.6343 10 18.1615 10L19.5 9.99962V8H18.2C17.6234 8 17.2512 7.99923 16.9678 7.97608C16.6962 7.95388 16.5955 7.9162 16.546 7.89101C16.3579 7.79514 16.2049 7.64216 16.109 7.45399C16.0838 7.40455 16.0461 7.30383 16.0239 7.03217C16.0036 6.78302 16.0005 6.46511 16.0001 6H17.8C18.3766 6 18.7488 6.00078 19.0322 6.02393C19.3038 6.04613 19.4045 6.0838 19.454 6.109C19.6422 6.20487 19.7951 6.35785 19.891 6.54601C19.9162 6.59546 19.9539 6.69618 19.9761 6.96784C19.9992 7.25118 20 7.62345 20 8.2V11.8386C20 12.3657 20 12.8205 20.0306 13.195C20.0629 13.5904 20.1342 13.9836 20.327 14.362C20.4452 14.594 20.5924 14.8082 20.7639 15C20.5924 15.1918 20.4452 15.406 20.327 15.638C20.1342 16.0164 20.0629 16.4096 20.0306 16.805C20 17.1795 20 17.6343 20 18.1614L20.0004 19.5H22V18.2C22 17.6234 22.0008 17.2512 22.0239 16.9678C22.0461 16.6962 22.0838 16.5955 22.109 16.546C22.2049 16.3579 22.3578 16.2049 22.546 16.109C22.5955 16.0838 22.6962 16.0461 22.9678 16.0239C23.217 16.0036 23.5349 16.0005 24 16.0001V17.8C24 18.3766 23.9992 18.7488 23.9761 19.0322C23.9539 19.3038 23.9162 19.4045 23.891 19.454C23.7951 19.6422 23.6422 19.7951 23.454 19.891C23.4045 19.9162 23.3038 19.9539 23.0322 19.9761C22.7488 19.9992 22.3766 20 21.8 20H18.1615C17.6343 20 17.1795 20 16.805 20.0306C16.4096 20.0629 16.0164 20.1342 15.638 20.327C15.406 20.4452 15.1918 20.5924 15 20.7639C14.8082 20.5924 14.594 20.4452 14.362 20.327C13.9836 20.1342 13.5904 20.0629 13.195 20.0306C12.8205 20 12.3657 20 11.8385 20L10.5 20.0004V22H11.8C12.3766 22 12.7488 22.0008 13.0322 22.0239C13.3038 22.0461 13.4045 22.0838 13.454 22.109C13.6421 22.2049 13.7951 22.3578 13.891 22.546C13.9162 22.5954 13.9539 22.6962 13.9761 22.9678C13.9964 23.217 13.9995 23.5349 13.9999 24H12.2C11.6234 24 11.2512 23.9992 10.9678 23.9761C10.6962 23.9539 10.5955 23.9162 10.546 23.891C10.3579 23.7951 10.2049 23.6421 10.109 23.454C10.0838 23.4045 10.0461 23.3038 10.0239 23.0322C10.0008 22.7488 10 22.3766 10 21.8V18.1615C10 17.6343 10 17.1795 9.96943 16.805C9.93713 16.4096 9.86581 16.0164 9.67302 15.638C9.55479 15.406 9.40762 15.1918 9.23607 15Z" fill="#44403C"/>
</g>
<path d="M13.4019 21.1685C12.0692 20.8989 10.9461 20.1764 10.0327 19.001C9.1193 17.8255 8.6626 16.3206 8.6626 14.4863C8.6626 12.6445 9.19043 11.0386 10.2461 9.66846C11.3092 8.29834 12.7842 7.60954 14.6709 7.60205C16.5726 7.60205 18.0999 8.23096 19.2529 9.48877C20.4059 10.7466 20.9862 12.375 20.9937 14.374V14.3965C20.9937 16.2458 20.5594 17.7207 19.6909 18.8213C18.8224 19.9144 17.9277 20.6144 17.0068 20.9214C19.762 22.3364 22.2327 23.3659 24.4189 24.0098C26.6126 24.6611 28.3459 24.9868 29.6187 24.9868C30.8914 24.9868 31.8198 24.9194 32.4038 24.7847C32.9878 24.6499 33.5194 24.5039 33.9985 24.3467V24.8857C33.6766 25.2451 33.0589 25.5334 32.1455 25.7505C31.2321 25.9676 30.1689 26.0799 28.9561 26.0874C25.3623 26.0874 20.1776 24.4478 13.4019 21.1685ZM10.3472 14.2056C10.3472 16.3768 10.7964 17.964 11.6948 18.9673C12.5933 19.9705 13.6789 20.4759 14.9517 20.4834C16.4416 20.4834 17.5347 19.9294 18.231 18.8213C18.9347 17.7057 19.2904 16.3094 19.2979 14.6323C19.2979 12.5285 18.8299 10.9637 17.894 9.93799C16.9657 8.91227 15.8426 8.39567 14.5249 8.38818H14.5137C13.2559 8.38818 12.2451 8.92725 11.4814 10.0054C10.7253 11.0835 10.3472 12.4836 10.3472 14.2056Z" fill="#D4AF37"/>
<path fill-rule="evenodd" clip-rule="evenodd" d="M26 11C26 9.34315 24.6569 8 23 8H22.5V10H23C23.5523 10 24 10.4477 24 11V13.9999C23.5349 13.9995 23.217 13.9964 22.9678 13.9761C22.6962 13.9539 22.5955 13.9162 22.546 13.891C22.3578 13.7951 22.2049 13.6422 22.109 13.454C22.0838 13.4045 22.0461 13.3038 22.0239 13.0322C22.0008 12.7488 22 12.3766 22 11.8V8.16139C22 7.63427 22 7.17953 21.9694 6.80498C21.9371 6.40963 21.8658 6.01641 21.673 5.63803C21.3854 5.07355 20.9265 4.6146 20.362 4.32698C19.9836 4.13419 19.5904 4.06287 19.195 4.03057C18.8205 3.99997 18.3657 3.99998 17.8385 4H11C9.34315 4 8 5.34315 8 7V7.5H10V7C10 6.44772 10.4477 6 11 6H13.9999H16.0001H17.8C18.3766 6 18.7488 6.00078 19.0322 6.02393C19.3038 6.04613 19.4045 6.0838 19.454 6.109C19.6422 6.20487 19.7951 6.35785 19.891 6.54601C19.9162 6.59546 19.9539 6.69618 19.9761 6.96784C19.9992 7.25118 20 7.62345 20 8.2V11.8386C20 12.3657 20 12.8205 20.0306 13.195C20.0629 13.5904 20.1342 13.9836 20.327 14.362C20.4452 14.594 20.5924 14.8082 20.7639 15C20.5924 15.1918 20.4452 15.406 20.327 15.638C20.1342 16.0164 20.0629 16.4096 20.0306 16.805C20 17.1795 20 17.6343 20 18.1614L20.0004 19.5H22V18.2C22 17.6234 22.0008 17.2512 22.0239 16.9678C22.0461 16.6962 22.0838 16.5955 22.109 16.546C22.2049 16.3579 22.3578 16.2049 22.546 16.109C22.5955 16.0838 22.6962 16.0461 22.9678 16.0239C23.217 16.0036 23.5349 16.0005 24 16.0001V17.8C24 18.3766 23.9992 18.7488 23.9761 19.0322C23.9539 19.3038 23.9162 19.4045 23.891 19.454C23.7951 19.6422 23.6422 19.7951 23.454 19.891C23.4045 19.9162 23.3038 19.9539 23.0322 19.9761C22.7488 19.9992 22.3766 20 21.8 20H20.9808L20 22H21.8385C22.3657 22 22.8205 22 23.195 21.9694C23.5904 21.9371 23.9836 21.8658 24.362 21.673C24.9265 21.3854 25.3854 20.9265 25.673 20.362C25.8658 19.9836 25.9371 19.5904 25.9694 19.195C26 18.8205 26 18.3657 26 17.8385V11ZM8.16144 8L8.2 10C7.62345 10 7.25118 10.0008 6.96784 10.0239C6.69618 10.0461 6.59546 10.0838 6.54601 10.109C6.35785 10.2049 6.20487 10.3579 6.109 10.546C6.0838 10.5955 6.04613 10.6962 6.02393 10.9678C6.00078 11.2512 6 11.6234 6 12.2V13.9999C6.46511 13.9995 6.78302 13.9964 7.03217 13.9761C7.30383 13.9539 7.40455 13.9162 7.45399 13.891C7.64216 13.7951 7.79514 13.6421 7.89101 13.454C7.9162 13.4045 7.95388 13.3038 7.97608 13.0322C7.99923 12.7488 8 12.3766 8 11.8V10.5H9.99963L10 11.8385C10 12.3657 10 12.8205 9.96943 13.195C9.93713 13.5904 9.86582 13.9836 9.67302 14.362C9.5548 14.594 9.40762 14.8082 9.23607 15C9.40762 15.1918 9.55479 15.406 9.67302 15.638C9.86581 16.0164 9.93713 16.4096 9.96943 16.805C10 17.1795 10 17.6343 10 18.1615V21.8C10 22.3766 10.0008 22.7488 10.0239 23.0322C10.0461 23.3038 10.0838 23.4045 10.109 23.454C10.2049 23.6421 10.3579 23.7951 10.546 23.891C10.5955 23.9162 10.6962 23.9539 10.9678 23.9761C11.2512 23.9992 11.6234 24 12.2 24H15H16.0001H16.9678V26H12.1615C11.6344 26 11.1795 26 10.805 25.9694C10.4096 25.9371 10.0164 25.8658 9.63803 25.673C9.07354 25.3854 8.6146 24.9265 8.32698 24.362C8.13419 23.9836 8.06287 23.5904 8.03057 23.195C7.99997 22.8205 7.99998 22.3657 8 21.8385V18.2C8 17.6234 7.99922 17.2512 7.97607 16.9678C7.95388 16.6962 7.9162 16.5955 7.89101 16.546C7.79513 16.3578 7.64215 16.2049 7.45399 16.109C7.40455 16.0838 7.30383 16.0461 7.03216 16.0239C6.78302 16.0036 6.4651 16.0005 6 16.0001V19C6 19.5523 6.44772 20 7 20H7.5V22H7C5.34315 22 4 20.6569 4 19V12.1615C3.99999 11.6344 3.99997 11.1795 4.03057 10.805C4.06287 10.4096 4.13419 10.0164 4.32699 9.63803C4.61461 9.07354 5.07355 8.6146 5.63803 8.32698C6.01641 8.13419 6.40963 8.06287 6.80498 8.03057C7.17954 7.99997 7.6343 7.99998 8.16144 8Z" fill="#44403C"/>
<defs>
<clipPath id="clip0_7_47">
<rect width="23" height="22" fill="white" transform="translate(4 4)"/>
</clipPath>
</defs>
</svg>
