<svg width="100" height="100" viewBox="0 0 100 100" fill="none" xmlns="http://www.w3.org/2000/svg">
<rect width="100" height="100" fill="white"/>
<path d="M82.725 46.8742L62.775 44L61.1125 44.2366L56.8478 50.8602M82.725 46.8742L79.4 53.4624M82.725 46.8742L86.2875 52.9892L87 63.3978L84.3875 64.2397M79.4 53.4624L56.8478 50.8602M79.4 53.4624L78.925 66M56.8478 50.8602V53.6768M78.925 66L65.15 64.1075M78.925 66L82.1355 64.9654M65.15 64.1075V59.1398M65.15 64.1075L57.55 65.5269M65.15 59.1398L60.4 53.4624L56.8478 53.6768M65.15 59.1398L57.55 60.5591M52.5625 53.9355L57.55 60.5591M52.5625 53.9355L56.8478 53.6768M52.5625 53.9355L49 58.9032V63.3978L57.55 65.5269M57.55 60.5591V65.5269M84.3875 64.2397V60.086L82.0125 60.5591L82.1355 64.9654M84.3875 64.2397L82.1355 64.9654M84.3875 53.4624L84.625 55.5914L82.1355 56.0645L82.0125 53.6768L84.3875 53.4624ZM75.8375 56.0645L73.7 55.3548L73.4625 57.4839L75.8375 58.1935V56.0645ZM70.6125 54.8817V57.4839L68 57.2473V55.3548L70.6125 54.8817ZM53.75 60.086V61.2688L51.85 60.7957V59.6129L53.75 60.086Z" stroke="black"/>
<path d="M65.275 6.87419L85.225 4L86.8875 4.23656L91.1522 10.8602M65.275 6.87419L68.6 13.4624M65.275 6.87419L61.7125 12.9892L61 23.3978L63.6125 24.2397M68.6 13.4624L91.1522 10.8602M68.6 13.4624L69.075 26M91.1522 10.8602V13.6768M69.075 26L82.85 24.1075M69.075 26L65.8645 24.9654M82.85 24.1075V19.1398M82.85 24.1075L90.45 25.5269M82.85 19.1398L87.6 13.4624L91.1522 13.6768M82.85 19.1398L90.45 20.5591M95.4375 13.9355L90.45 20.5591M95.4375 13.9355L91.1522 13.6768M95.4375 13.9355L99 18.9032V23.3978L90.45 25.5269M90.45 20.5591V25.5269M63.6125 24.2397V20.086L65.9875 20.5591L65.8645 24.9654M63.6125 24.2397L65.8645 24.9654M63.6125 13.4624L63.375 15.5914L65.8645 16.0645L65.9875 13.6768L63.6125 13.4624ZM72.1625 16.0645L74.3 15.3548L74.5375 17.4839L72.1625 18.1935V16.0645ZM77.3875 14.8817V17.4839L80 17.2473V15.3548L77.3875 14.8817ZM94.25 20.086V21.2688L96.15 20.7957V19.6129L94.25 20.086Z" stroke="black"/>
<path d="M26.1366 91.0513L28.2733 91.4222M26.1366 91.0513L30.9441 91.8859M26.1366 91.0513L24 92.906M26.1366 91.0513L25.3238 83.6325L24.8012 78.8632L29.3416 71.9744M29.3416 71.9744L36.2857 68L39.4907 73.2991M29.3416 71.9744L31.6837 75.1538M34.4161 78.8632L51.5093 82.3077M34.4161 78.8632L39.4907 73.2991M34.4161 78.8632L33.8306 78.0684M51.5093 82.3077L52.3106 95.0256M51.5093 82.3077L54.9814 76.4786M52.3106 95.0256L36.8199 92.906L30.9441 91.8859M52.3106 95.0256L58.1863 91.0513V79.6581L54.9814 76.4786M54.9814 76.4786L39.4907 73.2991M28.2733 91.4222V86.2821L30.9441 87.0769V91.8859M28.2733 91.4222L30.9441 91.8859M30.9441 91.8859L27.205 94.2308L52.8447 99L67 88.6667L59.2547 86.2821M33.3478 71.4444L31.6837 75.1538M31.6837 75.1538L32.6596 76.4786M35.2174 71.1795L32.6596 76.4786M32.6596 76.4786L33.8306 78.0684M37.087 71.1795L33.8306 78.0684M28.0062 78.0684V80.453H30.1429V78.0684L28.2733 77.5385L28.0062 78.0684ZM34.6832 83.6325L37.087 83.8974V86.2821H34.6832V83.6325ZM40.2919 83.8974L39.7578 84.9573V86.2821L42.4286 86.812L42.9627 84.4274L40.2919 83.8974Z" stroke="black"/>
<path d="M45.764 35.7949L43.528 36.1778M45.764 35.7949L40.7329 36.6564M45.764 35.7949L48 37.7094M45.764 35.7949L46.6146 28.1368L47.1615 23.2137L42.4099 16.1026M42.4099 16.1026L35.1429 12L31.7888 17.4701M42.4099 16.1026L39.9589 19.3846M37.0994 23.2137L19.2112 26.7692M37.0994 23.2137L31.7888 17.4701M37.0994 23.2137L37.7121 22.3932M19.2112 26.7692L18.3727 39.8974M19.2112 26.7692L15.5776 20.7521M18.3727 39.8974L34.5839 37.7094L40.7329 36.6564M18.3727 39.8974L12.2236 35.7949V24.0342L15.5776 20.7521M15.5776 20.7521L31.7888 17.4701M43.528 36.1778V30.8718L40.7329 31.6923V36.6564M43.528 36.1778L40.7329 36.6564M40.7329 36.6564L44.646 39.0769L17.8137 44L3 33.3333L11.1056 30.8718M38.2174 15.5556L39.9589 19.3846M39.9589 19.3846L38.9376 20.7521M36.2609 15.2821L38.9376 20.7521M38.9376 20.7521L37.7121 22.3932M34.3043 15.2821L37.7121 22.3932M43.8075 22.3932V24.8547H41.5714V22.3932L43.528 21.8462L43.8075 22.3932ZM36.8199 28.1368L34.3043 28.4103V30.8718H36.8199V28.1368ZM30.9503 28.4103L31.5093 29.5043V30.8718L28.7143 31.4188L28.1553 28.9573L30.9503 28.4103Z" stroke="black"/>
<path d="M44.5184 39.3016C45.4664 40.0485 46.2504 40.9134 45.2867 41.9905C44.7893 42.5464 43.7248 43.8157 43.078 44.1032C40.8825 45.079 39.1722 47.2258 36.932 48.0511C35.7972 48.4692 34.9815 49.5649 34.0404 50.1638C33.1549 50.7273 32.2675 51.4709 31.4583 52.1698C30.518 52.9818 28.9405 53.6847 27.8945 54.2824C26.891 54.8558 25.5614 55.5371 24.3947 55.6269C22.1967 55.7959 20.3084 57.4057 18.3341 58.1237C17.401 58.4629 16.7188 60.0904 16.2854 60.8552C15.5714 62.1152 15.5934 63.5391 15.0263 64.8352C14.4249 66.2098 14.0732 67.7123 13.4258 69.1459C12.5228 71.1453 12.0633 73.3999 10.4382 75.0251C9.51797 75.9453 8.14303 76.4666 7.26918 77.3405C6.81812 77.7915 6.04398 78.6743 5.33789 78.6743" stroke="black" stroke-linecap="round"/>
<path d="M10.5234 84.052C11.9712 83.7565 13.4526 82.8883 14.8555 82.3128C16.3555 81.6974 16.7826 80.6388 17.9498 79.7199C19.2702 78.6805 20.6088 77.9708 21.7377 76.6683C22.6018 75.6713 23.1392 74.4504 23.7864 73.3179C26.0141 69.4193 27.3536 65.3012 30.5939 62.0609C31.0552 61.5996 31.7746 61.2785 32.3758 61.0473C33.0443 60.7902 33.7988 60.1209 34.3497 59.6388C36.44 57.8099 38.6679 56.2626 40.293 53.941C41.523 52.1838 43.2679 50.9101 44.8278 49.4702C46.2945 48.1163 48.2477 47.4538 49.8107 46.2585C51.0742 45.2923 52.6716 44.3105 53.5025 42.9508C53.9866 42.1587 54.5181 41.7859 55.1671 41.1369C55.5174 40.7866 56.8096 39.8778 57.2904 39.8778C58.0042 39.8778 58.6059 39.5132 59.3071 39.4937C60.1472 39.4704 61.126 39.2816 61.8892 38.9602C62.4549 38.722 63.2028 38.6544 63.8099 38.5441C64.4927 38.4199 65.2651 37.9572 65.9439 37.9572C67.8214 37.9572 69.8503 37.7205 71.7057 37.9679C72.645 38.0931 73.4524 38.7255 74.4373 38.7255C75.2524 38.7255 75.9876 38.8777 76.7847 38.9175C78.4405 39.0003 80.1145 39.4898 81.7676 39.6964C83.0985 39.8628 84.4423 39.8778 85.8116 39.8778" stroke="black" stroke-linecap="round"/>
<path d="M55.8502 21.4399C53.5524 23.3931 55.834 25.6095 57.1306 27.4365C58.0176 28.6864 58.7449 29.6437 60.0862 30.3815C61.3087 31.0539 62.5179 31.1858 63.8314 31.4698C66.0169 31.9424 68.2539 32.4967 70.4895 32.5795C72.7097 32.6617 74.7303 33.9239 76.9769 33.9239" stroke="black" stroke-linecap="round"/>
<path d="M49.8961 36.2287C50.1865 35.3745 50.6643 34.5589 50.6643 33.6465C50.6643 32.4052 50.6643 31.1639 50.6643 29.9226C50.6643 28.0948 49.6883 25.7844 48.9358 24.1288" stroke="black" stroke-linecap="round"/>
<path d="M16.3433 65.9997C17.033 65.2491 17.4351 64.1867 17.8638 63.2681C18.0817 62.8012 18.2425 62.3187 18.5232 61.8821C18.8171 61.4248 19.1653 61.213 19.5324 60.846C20.6943 59.684 21.7995 58.5165 23.1252 57.5223" stroke="black" stroke-width="0.5" stroke-linecap="round"/>
<path d="M16.8276 63.9409C17.5569 61.4957 19.4054 59.7714 21.3085 58.2489" stroke="black" stroke-width="0.5" stroke-linecap="round"/>
<path d="M71.3406 78.2138C71.3406 77.2116 71.2782 76.8346 71 76" stroke="black" stroke-width="0.5" stroke-linecap="round"/>
<path d="M71.511 78.0435C71.6889 77.5493 72.0662 76.5738 72.5327 76.3406" stroke="black" stroke-width="0.5" stroke-linecap="round"/>
<path d="M71.511 78.0435C72.1405 77.7349 72.8808 77.5251 73.3842 77.0217" stroke="black" stroke-width="0.5" stroke-linecap="round"/>
<path d="M93.0437 67.2138C93.0437 66.2116 93.1061 65.8346 93.3843 65" stroke="black" stroke-width="0.5" stroke-linecap="round"/>
<path d="M92.8733 67.0435C92.6954 66.5493 92.318 65.5738 91.8515 65.3406" stroke="black" stroke-width="0.5" stroke-linecap="round"/>
<path d="M92.8733 67.0435C92.2438 66.7349 91.5034 66.5251 91.0001 66.0217" stroke="black" stroke-width="0.5" stroke-linecap="round"/>
<path d="M89.3406 94.2138C89.3406 93.2116 89.2782 92.8346 89 92" stroke="black" stroke-width="0.5" stroke-linecap="round"/>
<path d="M89.511 94.0435C89.6889 93.5493 90.0662 92.5738 90.5327 92.3406" stroke="black" stroke-width="0.5" stroke-linecap="round"/>
<path d="M89.511 94.0435C90.1405 93.7349 90.8808 93.5251 91.3842 93.0217" stroke="black" stroke-width="0.5" stroke-linecap="round"/>
<path d="M79.0437 84.2138C79.0437 83.2116 79.1061 82.8346 79.3843 82" stroke="black" stroke-width="0.5" stroke-linecap="round"/>
<path d="M78.8733 84.0435C78.6954 83.5493 78.318 82.5738 77.8515 82.3406" stroke="black" stroke-width="0.5" stroke-linecap="round"/>
<path d="M78.8733 84.0435C78.2438 83.7349 77.5034 83.5251 77.0001 83.0217" stroke="black" stroke-width="0.5" stroke-linecap="round"/>
<path d="M23.5081 49.8222C23.6946 48.8662 23.6092 47.8618 23.6092 46.89" stroke="black" stroke-width="0.5" stroke-linecap="round"/>
<path d="M23.2047 50.0245C23.1145 49.7482 23.0664 49.3845 22.9013 49.1369C22.8047 48.992 22.6283 48.8916 22.598 48.71C22.5782 48.5911 22.3844 48.2493 22.2947 48.2045" stroke="black" stroke-width="0.5" stroke-linecap="round"/>
<path d="M23.6091 49.62C23.755 49.4217 23.8837 49.2212 24.0136 49.0134" stroke="black" stroke-width="0.5" stroke-linecap="round"/>
<path d="M35.439 44.969C35.4936 44.3213 35.4831 43.7782 35.3379 43.149" stroke="black" stroke-width="0.5" stroke-linecap="round"/>
<path d="M35.439 44.8678C35.5543 44.6323 35.6513 44.4026 35.7423 44.16" stroke="black" stroke-width="0.5" stroke-linecap="round"/>
<path d="M34.9334 44.7667C34.6468 44.4242 34.2681 44.1227 34.0234 43.7556" stroke="black" stroke-width="0.5" stroke-linecap="round"/>
<path d="M75.2483 29.3145V31.4271" stroke="black" stroke-width="0.5" stroke-linecap="round"/>
<path d="M75.2483 31.6192C74.7062 31.4738 73.5198 30.9631 73.5198 30.2748" stroke="black" stroke-width="0.5" stroke-linecap="round"/>
<path d="M75.0562 31.6192C74.6571 31.3758 74.2821 31.1211 73.9038 30.851" stroke="black" stroke-width="0.5" stroke-linecap="round"/>
<path d="M74.6721 29.8906C74.6721 30.4464 74.6871 31.7227 75.2483 32.0033" stroke="black" stroke-width="0.5" stroke-linecap="round"/>
<path d="M63.3359 28.5639C63.3359 27.8276 63.2146 27.1163 63.1113 26.3933" stroke="black" stroke-width="0.5" stroke-linecap="round"/>
<path d="M63.4106 28.5639C62.9589 28.2387 62.4027 27.791 62.2878 27.2166" stroke="black" stroke-width="0.5" stroke-linecap="round"/>
<path d="M63.5603 28.489C63.6184 28.2116 63.6788 27.9463 63.71 27.6657" stroke="black" stroke-width="0.5" stroke-linecap="round"/>
<path d="M43.572 68.0887C43.326 67.4956 43.1142 66.9171 42.73 66.4048" stroke="black" stroke-width="0.5" stroke-linecap="round"/>
<path d="M43.6772 66.931V67.9835" stroke="black" stroke-width="0.5" stroke-linecap="round"/>
<path d="M43.6772 68.2993C43.9196 67.8326 44.1745 67.4303 44.5192 67.0363" stroke="black" stroke-width="0.5" stroke-linecap="round"/>
</svg>
