<svg width="100" height="100" viewBox="0 0 100 100" fill="none" xmlns="http://www.w3.org/2000/svg">
<g clip-path="url(#clip0_68_730)">
<rect width="100" height="100" fill="white"/>
<path d="M45 54H44L39 93.5H63.5L57 54H55.5M45 54C45.3074 49.1739 45.3631 46.7851 50 45.5C53.6763 46.0394 55.4848 47.7269 55.5 54M45 54H55.5" stroke="black"/>
<path d="M38.7051 97.2613C37.912 96.4117 37.6103 95.2593 37.0119 94.284C36.6186 93.6431 36.2091 92.9812 35.7278 92.4036" stroke="black" stroke-width="0.5" stroke-linecap="round"/>
<path d="M38.4702 97.0263C38.1806 95.8852 37.7247 94.7902 37.469 93.6399C37.3781 93.2306 37.1762 92.7195 37.3733 92.3253" stroke="black" stroke-width="0.5" stroke-linecap="round"/>
<path d="M38.5484 96.7912C37.5765 96.2036 36.725 95.4648 35.7278 94.9108" stroke="black" stroke-width="0.5" stroke-linecap="round"/>
<path d="M63.6206 97.7314C64.0001 96.8037 64.4388 95.9125 64.7567 94.9587C64.8433 94.6989 65.0095 94.478 65.1093 94.2231C65.1848 94.03 65.1535 93.8259 65.266 93.6572" stroke="black" stroke-width="0.5" stroke-linecap="round"/>
<path d="M63.7773 96.7913C63.7773 96.1333 63.6206 95.514 63.6206 94.8499C63.6206 94.3214 63.6707 93.7795 63.5422 93.2655" stroke="black" stroke-width="0.5" stroke-linecap="round"/>
<path d="M64.0906 97.3397C64.368 96.1469 65.7637 95.5137 66.7545 94.9892" stroke="black" stroke-width="0.5" stroke-linecap="round"/>
<path d="M28.9619 81.5345C29.0721 80.8456 29.3402 80.0469 29.2212 79.3464C29.1335 78.8299 28.832 78.3731 28.6702 77.8876" stroke="black" stroke-width="0.5" stroke-linecap="round"/>
<path d="M28.9619 81.3886C28.5964 80.8708 28.3853 79.9333 27.7949 79.6381" stroke="black" stroke-width="0.5" stroke-linecap="round"/>
<path d="M28.6702 81.6804C29.2551 81.3237 29.6761 80.8127 30.2748 80.5134" stroke="black" stroke-width="0.5" stroke-linecap="round"/>
<path d="M26.6279 85.0355C26.3204 84.0274 25.9654 83.0427 25.4609 82.118" stroke="black" stroke-width="0.5" stroke-linecap="round"/>
<path d="M26.6279 84.5978C26.6419 83.8731 26.7824 83.2422 26.9197 82.5556" stroke="black" stroke-width="0.5" stroke-linecap="round"/>
<path d="M26.4822 84.7437C26.81 84.291 27.1505 83.8621 27.5033 83.4308" stroke="black" stroke-width="0.5" stroke-linecap="round"/>
<path d="M10.436 92.7669C10.4514 91.9818 10.5819 91.2192 10.5819 90.4329" stroke="black" stroke-width="0.5" stroke-linecap="round"/>
<path d="M10.5818 92.7669C10.3014 92.0823 9.97943 91.4068 9.70654 90.7246" stroke="black" stroke-width="0.5" stroke-linecap="round"/>
<path d="M10.436 92.4751C10.583 91.7402 10.8489 91.3026 11.3113 90.7246" stroke="black" stroke-width="0.5" stroke-linecap="round"/>
<path d="M11.0194 84.8896C10.8334 83.3806 10.6541 81.8854 10.5818 80.3675" stroke="black" stroke-width="0.5" stroke-linecap="round"/>
<path d="M11.4572 84.3061C10.6656 83.8861 10.3159 83.4428 9.85254 82.7015" stroke="black" stroke-width="0.5" stroke-linecap="round"/>
<path d="M11.457 83.7226L12.0405 83.285" stroke="black" stroke-width="0.5" stroke-linecap="round"/>
<path d="M78.851 88.6824C78.5049 88.2524 78.1778 87.5715 77.8298 87.2236" stroke="black" stroke-width="0.5" stroke-linecap="round"/>
<path d="M78.7051 87.0778V88.3906" stroke="black" stroke-width="0.5" stroke-linecap="round"/>
<path d="M78.9968 88.6824L79.2886 87.6613" stroke="black" stroke-width="0.5" stroke-linecap="round"/>
<path d="M3.375 52.221L19.125 50L20.4375 50.1828L23.8043 55.3011M3.375 52.221L6 57.3118M3.375 52.221L0.5625 56.9462L0 64.9892L2.0625 65.6398M6 57.3118L23.8043 55.3011M6 57.3118L6.375 67M23.8043 55.3011V57.4775M6.375 67L17.25 65.5376M6.375 67L3.84043 66.2006M17.25 65.5376V61.6989M17.25 65.5376L23.25 66.6344M17.25 61.6989L21 57.3118L23.8043 57.4775M17.25 61.6989L23.25 62.7957M27.1875 57.6774L23.25 62.7957M27.1875 57.6774L23.8043 57.4775M27.1875 57.6774L30 61.5161V64.9892L23.25 66.6344M23.25 62.7957V66.6344M2.0625 65.6398V62.4301L3.9375 62.7957L3.84043 66.2006M2.0625 65.6398L3.84043 66.2006M2.0625 57.3118L1.875 58.957L3.84043 59.3226L3.9375 57.4775L2.0625 57.3118ZM8.8125 59.3226L10.5 58.7742L10.6875 60.4194L8.8125 60.9677V59.3226ZM12.9375 58.4086V60.4194L15 60.2366V58.7742L12.9375 58.4086ZM26.25 62.4301V63.3441L27.75 62.9785V62.0645L26.25 62.4301Z" stroke="black"/>
<path d="M96.4596 81.1026L94.9193 81.3778M96.4596 81.1026L92.9938 81.7218M96.4596 81.1026L98 82.4786M96.4596 81.1026L97.0456 75.5983L97.4224 72.0598L94.1491 66.9487M94.1491 66.9487L89.1429 64L86.8323 67.9316M94.1491 66.9487L92.4606 69.3077M90.4907 72.0598L78.1677 74.6154M90.4907 72.0598L86.8323 67.9316M90.4907 72.0598L90.9128 71.4701M78.1677 74.6154L77.5901 84.0513M78.1677 74.6154L75.6646 70.2906M77.5901 84.0513L88.7578 82.4786L92.9938 81.7218M77.5901 84.0513L73.354 81.1026V72.6496L75.6646 70.2906M75.6646 70.2906L86.8323 67.9316M94.9193 81.3778V77.5641L92.9938 78.1538V81.7218M94.9193 81.3778L92.9938 81.7218M92.9938 81.7218L95.6894 83.4615L77.205 87L67 79.3333L72.5838 77.5641M91.2609 66.5556L92.4606 69.3077M92.4606 69.3077L91.757 70.2906M89.913 66.359L91.757 70.2906M91.757 70.2906L90.9128 71.4701M88.5652 66.359L90.9128 71.4701M95.1118 71.4701V73.2393H93.5714V71.4701L94.9193 71.0769L95.1118 71.4701ZM90.2981 75.5983L88.5652 75.7949V77.5641H90.2981V75.5983ZM86.2547 75.7949L86.6398 76.5812V77.5641L84.7143 77.9573L84.3292 76.188L86.2547 75.7949Z" stroke="black"/>
</g>
<defs>
<clipPath id="clip0_68_730">
<rect width="100" height="100" fill="white"/>
</clipPath>
</defs>
</svg>
