<svg width="100" height="100" viewBox="0 0 100 100" fill="none" xmlns="http://www.w3.org/2000/svg">
<g clip-path="url(#clip0_68_569)">
<rect width="100" height="100" fill="white"/>
<path d="M76.0654 34.8542C75.7836 34.9914 75.6002 35.1712 75.453 35.4418C75.323 35.6807 75.1515 35.9889 75.0934 36.2555C75.0492 36.4584 74.9854 36.6672 74.9616 36.8737C74.9258 37.1845 75.121 37.5454 75.1974 37.8456C75.3615 38.4903 75.8101 38.9982 76.1723 39.5455C76.582 40.1645 76.8136 40.9571 77.2789 41.5305" stroke="black" stroke-width="0.5" stroke-linecap="round"/>
<path d="M73.9381 34.4936C73.9222 35.7432 73.9695 36.9985 73.3017 38.1224C73.1033 38.4562 72.877 38.8919 72.5496 39.1157C72.3622 39.2437 72.3077 39.5522 72.1006 39.6334" stroke="black" stroke-width="0.5" stroke-linecap="round"/>
<path d="M68.8475 39.4799C69.2396 38.7776 69.706 38.209 69.9841 37.4618" stroke="black" stroke-width="0.5" stroke-linecap="round"/>
<path d="M69.1226 39.017C69.1676 37.9735 69.1987 37.1447 68.8704 36.1736" stroke="black" stroke-width="0.5" stroke-linecap="round"/>
<path d="M69.1225 39.017C69.0182 38.1482 68.8583 37.4916 68.3926 36.7667" stroke="black" stroke-width="0.5" stroke-linecap="round"/>
<path d="M81.2692 41.6622C81.3406 41.3345 81.4551 39.9647 81.8342 39.8682" stroke="black" stroke-width="0.5" stroke-linecap="round"/>
<path d="M80.9364 41.5898C81.1102 40.7917 81.0891 40.2948 80.9645 39.5045C80.8966 39.0746 80.6328 38.7725 80.5903 38.3773" stroke="black" stroke-width="0.5" stroke-linecap="round"/>
<path d="M80.3218 40.4102C80.1592 39.9402 80.0127 39.4834 79.7435 39.0643" stroke="black" stroke-width="0.5" stroke-linecap="round"/>
<path d="M43.5123 49.9815C43.6066 48.9838 43.58 48.6026 43.3816 47.7455" stroke="black" stroke-width="0.5" stroke-linecap="round"/>
<path d="M43.6979 49.828C43.9215 49.3527 44.389 48.4171 44.8754 48.2288" stroke="black" stroke-width="0.5" stroke-linecap="round"/>
<path d="M43.698 49.828C44.3538 49.58 45.1106 49.4409 45.6591 48.9871" stroke="black" stroke-width="0.5" stroke-linecap="round"/>
<path d="M66.1544 41.0733C66.2488 40.0755 66.3464 39.7061 66.7019 38.9014" stroke="black" stroke-width="0.5" stroke-linecap="round"/>
<path d="M66.0008 40.8877C65.8702 40.3789 65.5864 39.3723 65.1439 39.0961" stroke="black" stroke-width="0.5" stroke-linecap="round"/>
<path d="M66.0007 40.8877C65.4031 40.5212 64.6858 40.2427 64.232 39.6942" stroke="black" stroke-width="0.5" stroke-linecap="round"/>
<path d="M59.9261 67.6048C60.0204 66.6071 59.9938 66.2259 59.7954 65.3688" stroke="black" stroke-width="0.5" stroke-linecap="round"/>
<path d="M60.1119 67.4513C60.3356 66.9761 60.803 66.0405 61.2894 65.8522" stroke="black" stroke-width="0.5" stroke-linecap="round"/>
<path d="M60.1118 67.4513C60.7676 67.2033 61.5244 67.0642 62.0729 66.6104" stroke="black" stroke-width="0.5" stroke-linecap="round"/>
<path d="M50.6164 56.68C50.7107 55.6822 50.8083 55.3128 51.1638 54.5081" stroke="black" stroke-width="0.5" stroke-linecap="round"/>
<path d="M50.4627 56.4944C50.3321 55.9856 50.0483 54.979 49.6058 54.7028" stroke="black" stroke-width="0.5" stroke-linecap="round"/>
<path d="M50.4627 56.4944C49.865 56.1279 49.1477 55.8494 48.6939 55.3008" stroke="black" stroke-width="0.5" stroke-linecap="round"/>
<path d="M101.873 59.0435C101.244 58.7349 100.503 58.5251 100 58.0217" stroke="black" stroke-width="0.5" stroke-linecap="round"/>
<path d="M80.3406 48.2138C80.3406 47.2116 80.2782 46.8346 80 46" stroke="black" stroke-width="0.5" stroke-linecap="round"/>
<path d="M80.511 48.0435C80.6889 47.5493 81.0662 46.5738 81.5327 46.3406" stroke="black" stroke-width="0.5" stroke-linecap="round"/>
<path d="M80.511 48.0435C81.1405 47.7349 81.8808 47.5251 82.3842 47.0217" stroke="black" stroke-width="0.5" stroke-linecap="round"/>
<path d="M84.0437 75.2138C84.0437 74.2116 84.1061 73.8346 84.3843 73" stroke="black" stroke-width="0.5" stroke-linecap="round"/>
<path d="M83.8733 75.0435C83.6954 74.5493 83.318 73.5738 82.8515 73.3406" stroke="black" stroke-width="0.5" stroke-linecap="round"/>
<path d="M83.8733 75.0435C83.2438 74.7349 82.5034 74.5251 82.0001 74.0217" stroke="black" stroke-width="0.5" stroke-linecap="round"/>
<path d="M94.3406 65.2138C94.3406 64.2116 94.2782 63.8346 94 63" stroke="black" stroke-width="0.5" stroke-linecap="round"/>
<path d="M94.511 65.0435C94.6889 64.5493 95.0662 63.5738 95.5327 63.3406" stroke="black" stroke-width="0.5" stroke-linecap="round"/>
<path d="M94.511 65.0435C95.1405 64.7349 95.8808 64.5251 96.3842 64.0217" stroke="black" stroke-width="0.5" stroke-linecap="round"/>
<path d="M20.5761 22.7246C20.49 22.2835 20.324 21.9106 20.5761 21.5326" stroke="black" stroke-width="0.5" stroke-linecap="round"/>
<path d="M20.0651 22.895C19.7546 22.0992 19.0921 20.3001 18.1919 20" stroke="black" stroke-width="0.5" stroke-linecap="round"/>
<path d="M19.8949 22.8949C19.8949 22.2104 19.7553 21.301 20.0652 20.6812" stroke="black" stroke-width="0.5" stroke-linecap="round"/>
<path d="M17.6812 30.8987C17.6502 30.1404 17.4842 29.7606 17 29.1957" stroke="black" stroke-width="0.5" stroke-linecap="round"/>
<path d="M18.1918 30.2175C18.1918 29.7043 18.0718 29.1204 18.3621 28.6849" stroke="black" stroke-width="0.5" stroke-linecap="round"/>
<path d="M17.6812 30.8987C18.2086 30.2771 18.8899 29.9794 19.5544 29.5364" stroke="black" stroke-width="0.5" stroke-linecap="round"/>
<path d="M33.879 49.2432C33.996 48.8093 34.0112 48.4014 34.404 48.173" stroke="black" stroke-width="0.5" stroke-linecap="round"/>
<path d="M33.3453 49.1711C33.4169 48.32 33.6145 46.4129 32.9385 45.7471" stroke="black" stroke-width="0.5" stroke-linecap="round"/>
<path d="M33.1923 49.0961C33.4938 48.4815 33.7689 47.6036 34.3202 47.1836" stroke="black" stroke-width="0.5" stroke-linecap="round"/>
<path d="M27.6799 55.3069C27.9861 54.6125 28.0043 54.1984 27.8184 53.478" stroke="black" stroke-width="0.5" stroke-linecap="round"/>
<path d="M28.4384 54.9203C28.6644 54.4595 28.8138 53.8824 29.2663 53.6193" stroke="black" stroke-width="0.5" stroke-linecap="round"/>
<path d="M27.68 55.307C28.4274 54.9811 29.1701 55.0139 29.9618 54.9088" stroke="black" stroke-width="0.5" stroke-linecap="round"/>
<path d="M40.0899 64.8088C40.3911 64.1946 40.6223 63.7036 40.762 63.052" stroke="black" stroke-width="0.5" stroke-linecap="round"/>
<path d="M39.9369 64.7338C40.3525 64.517 40.8682 64.3114 41.2264 64.0386" stroke="black" stroke-width="0.5" stroke-linecap="round"/>
<path d="M40.1647 64.6558C39.9082 64.2531 39.7312 63.7099 39.4695 63.3664" stroke="black" stroke-width="0.5" stroke-linecap="round"/>
<path d="M44.035 43.9444C43.7376 43.2461 43.448 42.9497 42.7952 42.5928" stroke="black" stroke-width="0.5" stroke-linecap="round"/>
<path d="M48.1918 40.2175C48.1918 39.7043 48.0718 39.1204 48.3621 38.6849" stroke="black" stroke-width="0.5" stroke-linecap="round"/>
<path d="M47.6812 40.8987C48.2086 40.2771 48.8899 39.9794 49.5544 39.5364" stroke="black" stroke-width="0.5" stroke-linecap="round"/>
<path d="M63.0075 43.9639C63.0075 43.2798 62.9988 42.7372 62.8372 42.0907" stroke="black" stroke-width="0.5" stroke-linecap="round"/>
<path d="M62.8372 43.964C63.1148 43.5863 63.4873 43.1746 63.6886 42.7719" stroke="black" stroke-width="0.5" stroke-linecap="round"/>
<path d="M63.0072 43.7937C62.5996 43.5451 62.2015 43.1354 61.8152 42.9422" stroke="black" stroke-width="0.5" stroke-linecap="round"/>
<path d="M20.5761 22.7246C20.49 22.2835 20.324 21.9106 20.5761 21.5326" stroke="black" stroke-width="0.5" stroke-linecap="round"/>
<path d="M20.0651 22.895C19.7546 22.0992 19.0921 20.3001 18.1919 20" stroke="black" stroke-width="0.5" stroke-linecap="round"/>
<path d="M19.8949 22.8949C19.8949 22.2104 19.7553 21.301 20.0652 20.6812" stroke="black" stroke-width="0.5" stroke-linecap="round"/>
<path d="M17.6812 30.8987C17.6502 30.1404 17.4842 29.7606 17 29.1957" stroke="black" stroke-width="0.5" stroke-linecap="round"/>
<path d="M18.1918 30.2175C18.1918 29.7043 18.0718 29.1204 18.3621 28.6849" stroke="black" stroke-width="0.5" stroke-linecap="round"/>
<path d="M17.6812 30.8987C18.2086 30.2771 18.8899 29.9794 19.5544 29.5364" stroke="black" stroke-width="0.5" stroke-linecap="round"/>
<path d="M7.84058 5.51609C8.19306 5.05516 8.99819 4.48858 9.61065 4.7781C10.2346 5.07306 10.5981 5.54058 10.8758 6.1653C11.0074 6.46149 11.0638 6.77133 11.1255 7.10305C11.1517 7.24392 11.1938 7.73894 11.2753 7.28616C11.3171 7.05387 11.2873 6.82286 11.3363 6.58979C11.4359 6.11689 11.7526 5.71763 12.1354 5.44119C12.4868 5.18738 13.0191 4.61719 13.4837 4.61719C13.8589 4.61719 14.112 4.73739 14.4575 4.81417C14.6269 4.85182 14.9223 5.18752 14.9819 5.36628" stroke="black" stroke-width="0.5" stroke-linecap="round"/>
<path d="M20.7202 11.9185C20.8255 11.6583 20.9751 11.1349 21.2293 10.9655C21.462 10.8103 21.6796 10.6937 21.9475 10.6044C22.2181 10.5142 22.5774 10.3757 22.8669 10.4446C23.082 10.4958 23.2024 10.7385 23.2694 10.9319C23.3382 11.1307 23.3958 11.3451 23.4371 11.5515C23.469 11.7107 23.4559 11.9129 23.518 12.0605C23.5465 12.1282 23.5193 12.2654 23.5654 12.3229C23.6503 12.4291 23.6853 12.0756 23.7114 11.9421C23.7979 11.5 23.9785 10.853 24.5361 10.853C24.7492 10.853 25.024 10.8068 25.2286 10.8708C25.3881 10.9206 25.4386 10.9681 25.5779 11.0661C25.7305 11.1735 25.8382 11.6344 25.9764 11.6344" stroke="black" stroke-width="0.5" stroke-linecap="round"/>
<path d="M23.739 5.70339C23.9435 5.50496 24.1392 5.28469 24.3566 5.10161C24.51 4.97238 24.673 4.78 24.8913 4.78C25.2157 4.78 25.476 4.66171 25.6884 5.0069C25.8239 5.22712 26.1308 5.46567 26.1876 5.72115C26.2246 5.88787 26.2674 6.04772 26.2981 6.21638C26.3198 6.33576 26.3671 6.06019 26.3671 6.03092C26.3671 5.92238 26.3583 5.80946 26.3691 5.70142C26.4005 5.38739 26.6033 5.08698 26.8288 4.88654C27.0367 4.70176 27.4669 4.78 27.7246 4.78C28.0459 4.78 28.3826 4.82669 28.6756 4.96547C28.7911 5.02018 28.9251 5.10445 28.9873 5.22196C29.0257 5.29435 29.137 5.45466 29.2083 5.4903" stroke="black" stroke-width="0.5" stroke-linecap="round"/>
<path d="M71.0605 7.37367C71.3059 7.06142 72.179 4.91294 72.8991 5.29192C73.3181 5.51243 73.3921 6.05569 73.58 6.41062C73.7131 6.66201 74.0499 5.46611 74.1686 5.32111C74.3981 5.04059 74.4833 4.83472 74.869 4.83472C75.2149 4.83472 75.5494 5.27015 75.618 5.57889C75.6671 5.79994 76.1129 6.04459 76.2649 6.19661C76.4592 6.39084 76.6025 6.61197 76.8389 6.84837" stroke="black" stroke-width="0.5" stroke-linecap="round"/>
<path d="M45 43.9978C44.5815 43.9978 43.8573 44.0446 43.5161 43.7057C43.1268 43.3192 42.6928 43.0174 42.2953 42.655C42.0197 42.4037 41.7951 42.2769 41.6411 41.8924C41.418 41.3351 41.1454 40.8124 40.9211 40.2575C40.6836 39.6702 40.5014 39.1094 40.3911 38.4766C40.2695 37.7795 40.1015 37.148 40.0621 36.4279C40.0166 35.5948 40 34.7731 40 33.9371C40 32.9829 40.0687 31.727 40.7237 31" stroke="black" stroke-linecap="round"/>
<path d="M40 31.859C40.2977 31.9848 40.5191 32.1954 40.8106 32.3317C41.0936 32.464 41.3975 32.5569 41.6835 32.6843C42.5222 33.0582 43.7015 33.1807 44.4581 32.598C44.8519 32.2947 45.1907 32.0722 45.1907 31.5589C45.1907 31.5178 45.1734 31.2538 45.2296 31.2925C45.4073 31.4146 45.548 31.5083 45.7674 31.5739C47.3099 32.0347 48.1725 29.4726 48.2731 28.4076C48.3307 27.7981 47.5957 27.3591 47.0573 27.1996C46.7766 27.1165 47.0305 27.1321 47.182 27.1321C47.4474 27.1321 47.7254 27.1289 47.9809 27.0495C48.6559 26.8399 49.3493 25.854 48.8031 25.2113C48.3979 24.7345 47.7642 24.8361 47.1976 24.8361C46.9373 24.8361 46.6265 24.7903 46.3792 24.8737C46.2148 24.9291 45.8592 24.9136 45.7284 25.0237C45.4633 25.2471 46.286 24.5141 46.313 24.1759C46.3436 23.7928 46.5103 23.2299 46.2389 22.8816C45.6909 22.1781 44.985 22.2956 44.1424 22.1688C43.535 22.0775 42.8605 22 42.2446 22" stroke="black" stroke-linecap="round"/>
<path d="M42 22.0737C41.4344 21.3727 40.7852 21.0077 39.888 21.0077C39.5093 21.0077 39.1204 20.9828 38.7432 21.0225C38.3844 21.0603 38.0517 21.1368 37.7121 21.2594C37.4448 21.3559 37.137 21.3388 36.8801 21.4482C36.6282 21.5554 36.1801 21.7752 36.0197 22.0182C35.8705 22.244 35.8214 22.6799 35.6499 22.8584C35.5401 22.9727 35.1854 22.7195 35.0953 22.6585C34.5914 22.3175 33.7265 22.1549 33.1433 22.0774C32.4783 21.989 31.8102 22.0071 31.1416 22.0071C30.6728 22.0071 30.1203 21.9351 29.6874 22.1736C29.307 22.3833 29.0581 22.8621 29.0154 23.2951C28.9559 23.8995 29.4444 24.2686 29.7763 24.6868C29.9971 24.9651 30.1282 25.1384 30.4803 25.1384C30.5477 25.1384 31.1227 25.1384 30.8607 25.1384C30.472 25.1384 30.089 24.9947 29.7123 24.9089C29.0954 24.7684 28.5982 25.0263 28.0839 25.3679C27.64 25.6626 27.2505 25.9834 26.8679 26.3672C26.536 26.7002 26.2022 26.9026 26.0643 27.3888C25.7507 28.4953 26.6382 28.9237 27.5434 29.0359C27.8794 29.0775 28.1944 29.0026 28.5283 29.0026C28.5819 29.0026 28.6692 28.9424 28.6172 28.9804C28.464 29.092 28.3391 29.25 28.1834 29.3653C27.6214 29.7816 27.0819 30.7493 26.9674 31.464C26.9323 31.6834 26.9603 31.9371 26.9603 32.1598C26.9603 32.4758 27.595 32.5864 27.7994 32.6373C28.2457 32.7484 28.6076 33 29.0723 33C29.4083 33 29.6859 32.9105 30.0038 32.8001C30.7413 32.5442 32.2703 32.2772 32.4642 31.2678" stroke="black" stroke-linecap="round"/>
<path d="M35.1173 30C35.4384 31.0114 35.4508 32.1808 35.645 33.2655C35.7478 33.8398 35.8209 34.4659 35.8731 35.0613C35.9155 35.5454 35.9969 36.015 35.9969 36.5082C35.9969 37.7323 36.0302 39.0034 35.8796 40.2083C35.8494 40.4493 35.7801 40.6643 35.733 40.8946C35.6532 41.2849 35.5965 41.6908 35.5212 42.0841C35.3896 42.7724 35.1642 43.341 35 44" stroke="black" stroke-linecap="round"/>
<path d="M39.6053 39C39.3791 39.1548 39.2496 39.3262 39.1704 39.5622C39.1004 39.7705 39.0066 40.04 39.0066 40.2578C39.0066 40.4235 38.9902 40.5971 39.0092 40.7622C39.0378 41.0107 39.2836 41.2589 39.4108 41.48C39.6842 41.9549 40.1862 42.2747 40.6184 42.64C41.1073 43.0531 41.4701 43.6318 42 44" stroke="black" stroke-width="0.5" stroke-linecap="round"/>
<path d="M37.6664 39C37.9043 40.1309 38.2019 41.2546 37.8092 42.4002C37.6926 42.7404 37.5707 43.1781 37.3121 43.4444C37.164 43.5969 37.1758 43.886 37 44" stroke="black" stroke-width="0.5" stroke-linecap="round"/>
<path d="M39.0507 33C38.9966 32.5241 38.9762 31.8829 39.0379 31.4096C39.0846 31.0527 39.2235 30.7335 39.308 30.4029C39.3739 30.1453 39.5136 29.9216 39.5973 29.6747C39.7042 29.3592 39.8342 29.2083 40 29" stroke="black" stroke-width="0.5" stroke-linecap="round"/>
<path d="M38 32C38 31.0509 37.9429 30.1251 37.551 29.2491C37.2839 28.6521 36.5783 28.1988 36 28" stroke="black" stroke-width="0.5" stroke-linecap="round"/>
<path d="M45 27C45.4303 27.0157 45.6931 27.2846 45.8357 27.5538C45.9731 27.813 46 27.9917 46 28.2615C46 28.6222 45.4838 28.746 45.3043 29" stroke="black" stroke-width="0.5" stroke-linecap="round"/>
<path d="M42 26.4001C41.8967 26.5715 41.6667 26.9244 41.4279 26.9581C41.1498 26.9973 40.5901 27.0366 40.3333 26.9381C39.9911 26.8067 39.6624 26.7039 39.3964 26.4313C39.2863 26.3184 39.1416 26.0466 39 26" stroke="black" stroke-width="0.5" stroke-linecap="round"/>
<path d="M43 24C43 24.2056 43 24.3594 43 24.5952C43 24.723 43 25.0438 43 25.1429C43 25.3847 43 25.8925 43 26" stroke="black" stroke-width="0.5" stroke-linecap="round"/>
<path d="M34 26C33.9183 26.7951 33.5819 27.292 33.2558 27.5556C32.8444 27.8881 32.4347 28 32 28" stroke="black" stroke-width="0.5" stroke-linecap="round"/>
<path d="M33 29C32.2177 30.0569 31.0399 29.9994 30 29.9994" stroke="black" stroke-width="0.5" stroke-linecap="round"/>
<path d="M33 31.9235C33.4323 31.9235 34.315 32.2058 34.6835 31.686C34.9646 31.2894 35 30.6419 35 30" stroke="black" stroke-linecap="round"/>
<path d="M37.7946 36.2643C38.1439 36.3485 38.6857 36.7158 38.392 36.9488C38.1797 37.1173 37.6433 37.0688 37.5098 36.8814C37.3433 36.6477 37.782 36.4 38.1863 36.5403C38.5488 36.666 38.5242 36.8667 38.5068 37.077C38.4816 37.3817 37.7227 37.2233 37.5533 37.0575C37.3524 36.8608 37.0745 36.1182 37.7946 36.1078C38.5425 36.097 38.8116 36.6253 38.7877 36.9466C38.7521 37.426 38.0481 37.2548 37.7076 36.9684C37.5878 36.8675 37.1007 36.2918 37.4504 36.2078C38.0433 36.0653 38.4266 36.7333 38.4909 36.9292C38.5446 37.0927 38.6852 37.6859 38.1507 37.429C37.6241 37.176 37.5073 36.6378 37.763 36.2904C38.1307 35.7908 39.6322 37.6786 38.1982 37.4204C37.9153 37.3694 37.6583 37.0857 37.5414 36.951C37.3379 36.7164 37.3132 36.4253 37.5177 36.1882C37.6227 36.0665 37.7874 35.9277 38.0439 35.897C38.4748 35.8456 38.5827 36.1838 38.6492 36.3425C38.7999 36.7019 39.0416 37.3967 38.6096 37.7289C37.9898 38.2056 37.1416 36.9721 37.0825 36.7728C37.0156 36.547 36.8627 35.7949 37.5889 35.7949C38.3669 35.7949 38.5845 36.6214 38.6334 36.9553C38.682 37.2874 38.4641 37.6364 37.8659 37.253C37.1373 36.7862 36.7713 35.8777 37.1537 35.2908C37.3004 35.0656 37.6603 34.8936 38.0755 35.0778C38.7195 35.3635 38.7736 36.0492 38.8628 36.4468C38.9607 36.8828 39.1022 37.4754 38.8312 37.9006C38.7288 38.0613 38.245 38.0023 38.0637 37.8984C37.159 37.3804 37.1131 36.6712 37.5098 36.0274C37.5802 35.9132 37.8471 35.5019 38.1507 35.5211C38.5012 35.5433 38.7438 35.9624 38.8312 36.1078C38.9997 36.3881 39.3261 37.9877 38.0953 37.3117C37.4474 36.9558 37.2644 36.2761 37.3792 35.7927C37.4157 35.639 37.5461 35.3058 37.8659 35.2473" stroke="black" stroke-width="0.5" stroke-linecap="round"/>
<path d="M37 31V35" stroke="black" stroke-width="0.5" stroke-linecap="round"/>
<path d="M38 30C38.1018 29.5766 38.1802 29.2566 38.5432 28.8931C38.9295 28.5062 39.4297 28.2506 40 28" stroke="black" stroke-width="0.5" stroke-linecap="round"/>
<path d="M44 29C43.9826 29.61 43.8521 29.7699 43.4146 29.8699C43.0288 29.9582 42.3532 30.1122 42 29.8699" stroke="black" stroke-width="0.5" stroke-linecap="round"/>
<path d="M46 42C46 41.3047 46 40.713 46 40" stroke="black" stroke-width="0.5" stroke-linecap="round"/>
<path d="M46 42C45.7908 40.8668 45.6195 39.9679 45 39" stroke="black" stroke-width="0.5" stroke-linecap="round"/>
<path d="M46 42C45.7594 41.1909 45.5111 40.5962 45 40" stroke="black" stroke-width="0.5" stroke-linecap="round"/>
<path d="M57.213 42C57.213 41.6418 56.3829 40.1868 58 40" stroke="black" stroke-width="0.5" stroke-linecap="round"/>
<path d="M57 42C57 41.2006 56.8764 40.7298 56.5926 40C56.4382 39.603 56.123 39.369 56 39" stroke="black" stroke-width="0.5" stroke-linecap="round"/>
<path d="M56 41C55.6959 40.2876 55.4136 39.5909 55 39" stroke="black" stroke-width="0.5" stroke-linecap="round"/>
<path d="M41.8203 73.1748C42.2774 73.0652 43.0783 72.9261 43.3783 72.4693C43.7206 71.9483 44.13 71.5074 44.4864 71.0104C44.7336 70.6658 44.9517 70.4695 45.0375 70.0122C45.1618 69.3497 45.3474 68.7116 45.4735 68.0512C45.607 67.3523 45.6858 66.6967 45.6707 65.9817C45.6541 65.1942 45.7023 64.4655 45.5909 63.6746C45.4621 62.7596 45.3042 61.8644 45.1251 60.9581C44.9206 59.9237 44.5764 58.5802 43.7054 57.9637" stroke="black" stroke-linecap="round"/>
<path d="M44.2054 58.59C43.9296 58.8107 43.7516 59.1119 43.4847 59.3433C43.2254 59.5681 42.9357 59.7515 42.6722 59.9713C41.8997 60.6156 40.7202 61.0491 39.8102 60.552C39.3365 60.2932 38.9379 60.1156 38.819 59.5139C38.8095 59.4657 38.766 59.152 38.7174 59.2112C38.5637 59.398 38.4413 59.5424 38.2317 59.6732C36.7585 60.5926 35.2812 57.8011 34.9314 56.5773C34.7312 55.8769 35.3824 55.1817 35.8969 54.8624C36.1651 54.696 35.9087 54.7766 35.7535 54.8139C35.4816 54.8791 35.1962 54.9437 34.9161 54.9135C34.1761 54.8336 33.2374 53.8482 33.6479 52.9606C33.9525 52.3021 34.6252 52.2655 35.2056 52.1263C35.4722 52.0623 35.7799 51.9322 36.0525 51.9691C36.2337 51.9937 36.5944 51.8881 36.7539 51.9851C37.0772 52.1818 36.0647 51.5247 35.9587 51.1348C35.8385 50.6933 35.5374 50.0744 35.7346 49.5994C36.133 48.6401 36.8833 48.6042 37.7169 48.2486C38.3179 47.9922 38.9909 47.7356 39.6217 47.5843" stroke="black" stroke-linecap="round"/>
<path d="M40.331 47.7457C40.8014 46.7605 41.4444 46.1519 42.4517 45.9102C42.8769 45.8082 43.3077 45.6739 43.7405 45.6194C44.1522 45.5677 44.5437 45.569 44.9537 45.6232C45.2764 45.6658 45.618 45.5626 45.9321 45.6233C46.24 45.6829 46.7947 45.8234 47.0319 46.0688C47.2524 46.297 47.4099 46.8016 47.6444 46.9675C47.7945 47.0737 48.1332 46.6774 48.2201 46.5806C48.7057 46.0398 49.6385 45.6136 50.275 45.3644C51.0008 45.0803 51.7551 44.9217 52.5058 44.7416C53.032 44.6154 53.6355 44.381 54.1775 44.5478C54.6538 44.6944 55.0457 45.1963 55.1953 45.6993C55.4041 46.4014 54.9423 46.9715 54.6679 47.5579C54.4854 47.948 54.3789 48.1892 53.9837 48.284C53.9079 48.3022 53.2624 48.4571 53.5566 48.3865C53.9929 48.2818 54.3891 48.0079 54.792 47.8045C55.4515 47.4714 56.0702 47.6439 56.7279 47.9112C57.2954 48.1418 57.808 48.418 58.3278 48.771C58.7786 49.0772 59.2009 49.2279 59.4698 49.7684C60.0818 50.9986 59.186 51.7467 58.1961 52.1238C57.8287 52.2638 57.4574 52.2596 57.0826 52.3495C57.0224 52.364 56.9103 52.316 56.9776 52.3471C57.1757 52.4384 57.3531 52.5925 57.555 52.6876C58.2837 53.0308 59.1167 54.0353 59.413 54.8536C59.504 55.1049 59.5321 55.4139 59.5844 55.6785C59.6586 56.054 58.9721 56.3563 58.7545 56.4718C58.2796 56.7241 57.9323 57.1205 57.4107 57.2457C57.0335 57.3362 56.7008 57.3046 56.3179 57.2591C55.4299 57.1537 53.6507 57.2484 53.1959 56.1012" stroke="black" stroke-linecap="round"/>
<path d="M49.691 55.4438C49.6125 56.616 49.8527 57.8917 49.907 59.1155C49.9357 59.7634 50.0031 60.4611 50.0831 61.1209C50.1481 61.6573 50.1742 62.1865 50.2803 62.7234C50.5437 64.0559 50.7864 65.4472 51.1846 66.7255C51.2643 66.9812 51.3745 67.1998 51.4675 67.4402C51.6251 67.8474 51.7647 68.2767 51.9187 68.6883C52.1883 69.4084 52.5184 69.9775 52.8117 70.6586" stroke="black" stroke-linecap="round"/>
<path d="M46.1035 59.8385C46.091 59.3147 45.99 58.6292 45.7919 58.153C45.6424 57.7938 45.3525 57.51 45.1476 57.1933C44.9879 56.9465 44.7167 56.764 44.5307 56.5353C44.2931 56.2431 44.0525 56.1338 43.7427 55.9776" stroke="black" stroke-width="0.5" stroke-linecap="round"/>
<path d="M47.2466 58.7641C47.0197 57.6162 46.863 56.4809 47.0974 55.315C47.2571 54.5203 47.9479 53.7803 48.5552 53.3827" stroke="black" stroke-width="0.5" stroke-linecap="round"/>
<path d="M38.3175 53.7588C37.8652 53.8946 37.6738 54.4066 37.6102 54.8886C37.549 55.3526 37.5788 55.6552 37.6671 56.1018C37.7851 56.6988 38.3743 56.7719 38.6483 57.1466" stroke="black" stroke-width="0.5" stroke-linecap="round"/>
<path d="M41.0101 52.686C41.171 52.8758 41.522 53.2621 41.8027 53.2397C42.1297 53.2135 42.7777 53.1104 43.0457 52.9147C43.4028 52.654 43.7517 52.4332 43.9864 52.0134C44.0836 51.8396 44.1801 51.4541 44.3299 51.3561" stroke="black" stroke-width="0.5" stroke-linecap="round"/>
<path d="M39.4034 50.1911C39.33 50.439 39.2945 50.6198 39.3443 50.872C39.3713 51.0086 39.3807 51.3657 39.4858 51.4515C39.7423 51.6608 40.0914 52.1459 40.4271 52.1858" stroke="black" stroke-width="0.5" stroke-linecap="round"/>
<path d="M49.2959 50.2712C49.6104 51.0016 50.374 51.322 51.0725 51.4215C51.9538 51.547 52.7896 51.4599 53.6535 51.2526" stroke="black" stroke-width="0.5" stroke-linecap="round"/>
<path d="M52.1328 53.1111C53.2043 53.8694 54.5187 53.4988 55.6882 53.2182" stroke="black" stroke-width="0.5" stroke-linecap="round"/>
<path d="M53.1342 56.7732C52.4952 56.9265 51.2421 57.5003 50.6025 57.1509C50.1146 56.8843 49.9441 56.2988 49.8269 55.7059" stroke="black" stroke-linecap="round"/>
<path d="M47.6025 61.8734C47.4056 62.031 47.1585 62.5715 47.3992 62.8189C47.5733 62.9979 47.8958 62.857 47.9327 62.6027C47.9788 62.2854 47.644 62.0412 47.4265 62.2771C47.2316 62.4887 47.2965 62.736 47.3594 62.9964C47.4505 63.3738 47.8845 63.0621 47.9491 62.8293C48.0257 62.5533 48.0155 61.5829 47.5638 61.6777C47.0948 61.776 47.0577 62.477 47.152 62.8754C47.2927 63.4696 47.6894 63.1502 47.8309 62.741C47.8806 62.5969 48.042 61.804 47.8032 61.7512C47.3983 61.6617 47.3244 62.5546 47.3327 62.8092C47.3397 63.0218 47.3987 63.7848 47.6684 63.3835C47.9342 62.9882 47.874 62.2975 47.6287 61.9012C47.2759 61.3314 46.8064 63.9173 47.6367 63.3797C47.8005 63.2737 47.8906 62.8804 47.9302 62.6944C47.9991 62.3705 47.9425 62.0028 47.7564 61.7368C47.6608 61.6002 47.5238 61.4512 47.3563 61.4513C47.0749 61.4514 47.0912 61.8906 47.089 62.0991C47.0839 62.5711 47.1049 63.4764 47.4564 63.8272C47.9608 64.3307 48.1847 62.6609 48.1723 62.4028C48.1582 62.1105 48.0676 61.1468 47.6148 61.2555C47.1296 61.3719 47.1983 62.4382 47.2504 62.8632C47.3022 63.2858 47.5243 63.6897 47.8026 63.1207C48.1414 62.4278 48.145 61.2367 47.7615 60.5598C47.6143 60.3001 47.3474 60.1388 47.134 60.4314C46.8031 60.885 46.9389 61.7508 46.9816 62.2615C47.0283 62.8214 47.0866 63.5838 47.3607 64.0751C47.4643 64.2608 47.7514 64.1146 47.8388 63.9576C48.2748 63.1742 48.1281 62.2804 47.7216 61.5345C47.6494 61.4021 47.3813 60.9276 47.1967 60.9971C46.9837 61.0773 46.936 61.6378 46.9175 61.8327C46.8817 62.2085 47.0737 64.2581 47.674 63.2284C47.99 62.6864 47.9361 61.8089 47.745 61.2214C47.6842 61.0346 47.5205 60.6374 47.3067 60.612" stroke="black" stroke-width="0.5" stroke-linecap="round"/>
<path d="M48.093 57.2974L48.6152 59.9393" stroke="black" stroke-width="0.5" stroke-linecap="round"/>
<path d="M45.7566 56.0645C45.5668 55.5351 45.4221 55.1352 45.0388 54.7335C44.6309 54.306 44.1656 54.0706 43.6455 53.855" stroke="black" stroke-width="0.5" stroke-linecap="round"/>
<path d="M39.885 56.2433C39.989 56.6855 40.1309 56.7739 40.5436 56.7515C40.9076 56.7317 41.5449 56.6968 41.8314 56.4425" stroke="black" stroke-width="0.5" stroke-linecap="round"/>
<path d="M17.8844 88.3482C18.3519 88.3666 19.1591 88.4504 19.5525 88.0898C20.0012 87.6783 20.4969 87.3629 20.9539 86.9786C21.2709 86.7121 21.5263 86.5814 21.7122 86.1618C21.9815 85.5538 22.3048 84.9863 22.5754 84.3809C22.8618 83.7402 23.0855 83.1264 23.2316 82.4296C23.3925 81.6621 23.603 80.9693 23.6729 80.1726C23.7537 79.2509 23.802 78.3406 23.8321 77.4136C23.8665 76.3557 23.835 74.9601 23.1296 74.1252" stroke="black" stroke-linecap="round"/>
<path d="M23.4734 74.8683C23.1566 75.0069 22.9165 75.2502 22.6058 75.4016C22.3041 75.5486 21.9822 75.6473 21.6776 75.7883C20.7842 76.2018 19.544 76.3 18.7741 75.5701C18.3733 75.1901 18.0271 74.9093 18.0471 74.2939C18.0487 74.2446 18.0771 73.9288 18.0167 73.9729C17.8258 74.112 17.6748 74.2185 17.4423 74.288C15.8083 74.7768 15.0045 71.6692 14.9407 70.3881C14.9041 69.6549 15.6913 69.159 16.2615 68.99C16.5588 68.9019 16.2923 68.9102 16.1335 68.9039C15.8554 68.8929 15.5644 68.8776 15.2998 68.7719C14.6007 68.4926 13.9128 67.2819 14.51 66.5339C14.9531 65.979 15.6131 66.1271 16.2067 66.1505C16.4794 66.1612 16.8068 66.1192 17.0626 66.2293C17.2327 66.3025 17.6058 66.2986 17.7385 66.4361C18.0076 66.7149 17.1743 65.802 17.1592 65.3954C17.142 64.9348 16.9893 64.253 17.2872 63.8467C17.8888 63.0259 18.6238 63.1959 19.5114 63.0787C20.1513 62.9943 20.861 62.9293 21.5062 62.9548" stroke="black" stroke-linecap="round"/>
<path d="M22.157 63.3048C22.8342 62.4786 23.594 62.0644 24.6242 62.1051C25.059 62.1222 25.5066 62.1096 25.9382 62.175C26.3487 62.2371 26.7277 62.3452 27.1128 62.5096C27.4159 62.6389 27.77 62.6321 28.0606 62.7767C28.3456 62.9184 28.8515 63.2058 29.0261 63.5084C29.1884 63.7896 29.2277 64.3215 29.4175 64.5462C29.539 64.69 29.9563 64.3984 30.0623 64.3284C30.6543 63.9369 31.6539 63.7784 32.3266 63.7107C33.0936 63.6334 33.86 63.6856 34.6278 63.7159C35.1661 63.7372 35.8034 63.6747 36.291 63.9843C36.7195 64.2563 36.9864 64.8494 37.0183 65.3776C37.0628 66.1148 36.4872 66.5412 36.0896 67.0344C35.8251 67.3625 35.6677 67.5672 35.2635 67.5512C35.186 67.5481 34.5257 67.5221 34.8266 67.534C35.2729 67.5516 35.7183 67.3943 36.1544 67.3071C36.8682 67.1644 37.4289 67.5002 38.006 67.9387C38.504 68.317 38.9386 68.7245 39.3628 69.2083C39.7307 69.6279 40.1061 69.8891 40.2451 70.4861C40.5615 71.845 39.5255 72.3254 38.4816 72.4207C38.0942 72.4561 37.7355 72.3507 37.3521 72.3356C37.2905 72.3331 37.1927 72.2561 37.2509 72.3046C37.4224 72.4471 37.5595 72.6448 37.7338 72.792C38.3626 73.3233 38.9439 74.5238 39.0471 75.3975C39.0788 75.6658 39.0365 75.9728 39.0277 76.2434C39.0153 76.6275 38.2822 76.733 38.0454 76.7856C37.5285 76.9004 37.103 77.1898 36.5695 77.1687C36.1837 77.1535 35.8685 77.0321 35.5078 76.8836C34.671 76.5392 32.926 76.1455 32.7432 74.91" stroke="black" stroke-linecap="round"/>
<path d="M29.4954 73.3168C29.1559 74.431 29.1019 75.7325 28.8794 76.933C28.7617 77.5686 28.6701 78.263 28.5993 78.924C28.5418 79.4614 28.448 79.9813 28.4302 80.5304C28.3859 81.8933 28.3084 83.3074 28.4069 84.6546C28.4265 84.924 28.4842 85.1659 28.5203 85.4242C28.5814 85.8617 28.6202 86.3158 28.6769 86.7565C28.7762 87.5278 28.9682 88.1692 29.0992 88.909" stroke="black" stroke-linecap="round"/>
<path d="M24.3253 82.3048C24.551 82.5156 24.6766 82.7439 24.748 83.0545C24.811 83.3286 24.8958 83.6833 24.8866 83.9669C24.8796 84.1827 24.8891 84.4094 24.8626 84.6236C24.8227 84.946 24.5599 85.2593 24.4199 85.542C24.1192 86.1493 23.5902 86.5455 23.1311 87.0036C22.6118 87.5217 22.2148 88.2606 21.6552 88.7185" stroke="black" stroke-width="0.5" stroke-linecap="round"/>
<path d="M26.355 82.4891C26.0774 83.7522 25.7407 85.0047 26.0888 86.309C26.1921 86.6963 26.2972 87.1936 26.5443 87.5033C26.6857 87.6806 26.6635 88.0054 26.8339 88.1406" stroke="black" stroke-width="0.5" stroke-linecap="round"/>
<path d="M25.0318 76.5958C25.1375 76.085 25.1936 75.3933 25.1087 74.8778C25.0447 74.489 24.8276 74.135 24.7002 73.7723C24.601 73.4895 24.3793 73.2388 24.2505 72.9664C24.0859 72.6185 23.8774 72.447 23.6123 72.2111" stroke="black" stroke-width="0.5" stroke-linecap="round"/>
<path d="M26.3806 75.8668C26.4188 74.6927 26.5221 73.55 27.0113 72.4843C27.3447 71.758 28.1802 71.2296 28.858 71.01" stroke="black" stroke-width="0.5" stroke-linecap="round"/>
<path d="M18.8549 68.5812C18.3862 68.5894 18.0856 69.0332 17.9157 69.4829C17.7521 69.9157 17.713 70.217 17.6981 70.6738C17.6783 71.2844 18.2327 71.516 18.4139 71.9537" stroke="black" stroke-width="0.5" stroke-linecap="round"/>
<path d="M21.7047 68.2765C21.818 68.5044 22.0712 68.9744 22.3482 69.0292C22.671 69.093 23.3219 69.17 23.6255 69.0535C24.0301 68.8983 24.4178 68.7796 24.7396 68.4369C24.8728 68.295 25.0529 67.9479 25.2201 67.8938" stroke="black" stroke-width="0.5" stroke-linecap="round"/>
<path d="M20.7088 65.4209C20.582 65.6411 20.5069 65.8066 20.4986 66.0645C20.494 66.2043 20.4228 66.5528 20.5053 66.6646C20.7068 66.9374 20.936 67.5026 21.2523 67.6328" stroke="black" stroke-width="0.5" stroke-linecap="round"/>
<path d="M30.2751 68.1975C30.4157 68.9909 31.0835 69.5097 31.7379 69.7967C32.5635 70.1587 33.3928 70.3024 34.2765 70.3373" stroke="black" stroke-width="0.5" stroke-linecap="round"/>
<path d="M32.3853 71.7229C33.2529 72.7499 34.6097 72.7494 35.8059 72.7967" stroke="black" stroke-width="0.5" stroke-linecap="round"/>
<path d="M32.5325 75.5441C31.8789 75.5183 30.5359 75.7323 29.9948 75.2193C29.582 74.828 29.5484 74.2141 29.5681 73.6078" stroke="black" stroke-linecap="round"/>
<path d="M26.0267 78.9763C25.8004 79.0752 25.4396 79.5315 25.6172 79.8369C25.7456 80.0578 26.0898 80.0093 26.1827 79.7729C26.2986 79.4781 26.0291 79.1502 25.7654 79.3195C25.529 79.4712 25.5364 79.7285 25.5387 79.998C25.5421 80.3885 26.0327 80.2049 26.1476 79.997C26.2839 79.7505 26.4921 78.8076 26.0332 78.7761C25.5567 78.7435 25.3631 79.4124 25.365 79.8242C25.3678 80.4383 25.8239 80.2371 26.0529 79.8792C26.1335 79.7532 26.4681 79.029 26.2486 78.9127C25.8764 78.7155 25.6041 79.5604 25.555 79.8094C25.5139 80.0172 25.3996 80.7725 25.7512 80.4573C26.0975 80.1468 26.1944 79.4613 26.0458 79.0104C25.8321 78.362 24.7959 80.7393 25.7212 80.445C25.9037 80.387 26.0794 80.0305 26.1596 79.8611C26.2992 79.5661 26.327 79.1944 26.2065 78.8859C26.1446 78.7275 26.0453 78.5458 25.883 78.5002C25.6103 78.4235 25.5275 78.8535 25.4784 79.0548C25.3674 79.5108 25.1843 80.3936 25.446 80.8294C25.8215 81.4548 26.4138 79.8981 26.4597 79.6447C26.5118 79.3576 26.6406 78.3993 26.1774 78.381C25.6813 78.3614 25.5081 79.4133 25.463 79.8392C25.4182 80.2628 25.5427 80.7147 25.9401 80.2393C26.4242 79.6605 26.6954 78.5074 26.4759 77.747C26.3917 77.4553 26.1694 77.2262 25.8969 77.4514C25.4743 77.8006 25.4113 78.6764 25.3378 79.1829C25.2573 79.7381 25.1424 80.4927 25.2976 81.0435C25.3562 81.2516 25.6672 81.1883 25.7871 81.06C26.3857 80.42 26.4444 79.514 26.2182 78.6804C26.1781 78.5325 26.0249 77.9996 25.8305 78.0166C25.6061 78.0362 25.4339 78.5662 25.3721 78.75C25.253 79.1044 24.9783 81.1425 25.7914 80.3086C26.2194 79.8697 26.3643 79.0048 26.3112 78.3835C26.2944 78.1859 26.2251 77.7564 26.0236 77.6735" stroke="black" stroke-width="0.5" stroke-linecap="round"/>
<path d="M27.5305 74.6767L27.4427 77.379" stroke="black" stroke-width="0.5" stroke-linecap="round"/>
<path d="M25.5439 72.8448C25.479 72.2801 25.4286 71.8532 25.1476 71.3594C24.8484 70.8339 24.4505 70.4789 23.9951 70.1282" stroke="black" stroke-width="0.5" stroke-linecap="round"/>
<path d="M19.8149 71.4161C19.8163 71.8728 19.934 71.9972 20.3388 72.0881C20.6959 72.1682 21.3212 72.3082 21.6559 72.1401" stroke="black" stroke-width="0.5" stroke-linecap="round"/>
<path d="M29.8445 88.8237C29.6502 88.0152 29.3565 87.3222 29.2769 86.4978" stroke="black" stroke-width="0.5" stroke-linecap="round"/>
<path d="M29.7014 88.2865C29.9042 87.2236 30.0694 86.3806 30.5966 85.4867" stroke="black" stroke-width="0.5" stroke-linecap="round"/>
<path d="M29.7012 88.2865C29.9997 87.4381 30.2994 86.8177 30.8946 86.2073" stroke="black" stroke-width="0.5" stroke-linecap="round"/>
<path d="M17.976 87.8236C17.9873 87.475 18.2028 86.0655 17.8787 85.8707" stroke="black" stroke-width="0.5" stroke-linecap="round"/>
<path d="M18.2968 87.8363C18.3244 86.9875 18.4598 86.4923 18.7585 85.7282C18.921 85.3126 19.2328 85.0761 19.3641 84.689" stroke="black" stroke-width="0.5" stroke-linecap="round"/>
<path d="M19.1345 86.8063C19.3931 86.3746 19.6338 85.9521 19.9779 85.5992" stroke="black" stroke-width="0.5" stroke-linecap="round"/>
<path d="M41.0483 88.42C41.0483 87.3779 40.9894 86.9859 40.7268 86.118" stroke="black" stroke-width="0.5" stroke-linecap="round"/>
<path d="M41.209 88.243C41.3769 87.7291 41.733 86.7147 42.1733 86.4722" stroke="black" stroke-width="0.5" stroke-linecap="round"/>
<path d="M41.209 88.243C41.8031 87.9221 42.5019 87.7039 42.977 87.1805" stroke="black" stroke-width="0.5" stroke-linecap="round"/>
<path d="M61.5321 76.9816C61.5321 75.9395 61.5909 75.5475 61.8535 74.6796" stroke="black" stroke-width="0.5" stroke-linecap="round"/>
<path d="M61.3713 76.8045C61.2034 76.2906 60.8473 75.2762 60.407 75.0337" stroke="black" stroke-width="0.5" stroke-linecap="round"/>
<path d="M61.3713 76.8045C60.7772 76.4836 60.0784 76.2654 59.6034 75.742" stroke="black" stroke-width="0.5" stroke-linecap="round"/>
<path d="M48.3184 94.6592C48.3184 93.6171 48.3773 93.2251 48.6399 92.3572" stroke="black" stroke-width="0.5" stroke-linecap="round"/>
<path d="M48.1577 94.4821C47.9898 93.9682 47.6337 92.9539 47.1934 92.7113" stroke="black" stroke-width="0.5" stroke-linecap="round"/>
<path d="M48.1577 94.4821C47.5636 94.1612 46.8648 93.943 46.3897 93.4196" stroke="black" stroke-width="0.5" stroke-linecap="round"/>
<path d="M87 65C87 64.2696 87 63.6903 87 63" stroke="black" stroke-width="0.5" stroke-linecap="round"/>
<path d="M87 65C86.6739 64.3664 86.2365 63.6757 86 63" stroke="black" stroke-width="0.5" stroke-linecap="round"/>
<path d="M87 64C87.342 64 87.6759 64 88 64" stroke="black" stroke-width="0.5" stroke-linecap="round"/>
<path d="M70 63C70.6438 62.63 71.8852 62.3171 70 62" stroke="black" stroke-width="0.5" stroke-linecap="round"/>
<path d="M71 64C71.3315 63.1754 72.0389 61.3109 73 61" stroke="black" stroke-width="0.5" stroke-linecap="round"/>
<path d="M71 64C71 63.0723 71 61.84 71 61" stroke="black" stroke-width="0.5" stroke-linecap="round"/>
<path d="M87 65C87 64.2696 87 63.6903 87 63" stroke="black" stroke-width="0.5" stroke-linecap="round"/>
<path d="M87 65C86.6739 64.3664 86.2365 63.6757 86 63" stroke="black" stroke-width="0.5" stroke-linecap="round"/>
<path d="M87 64C87.342 64 87.6759 64 88 64" stroke="black" stroke-width="0.5" stroke-linecap="round"/>
</g>
<defs>
<clipPath id="clip0_68_569">
<rect width="100" height="100" fill="white"/>
</clipPath>
</defs>
</svg>
