<svg width="100" height="100" viewBox="0 0 100 100" fill="none" xmlns="http://www.w3.org/2000/svg">
<g clip-path="url(#clip0_68_408)">
<rect width="100" height="100" fill="white"/>
<path d="M38 39.998C37.5815 39.998 36.8573 40.0412 36.5161 39.7284C36.1268 39.3715 35.6928 39.093 35.2953 38.7585C35.0197 38.5265 34.7951 38.4095 34.6411 38.0545C34.418 37.5401 34.1454 37.0576 33.9211 36.5454C33.6836 36.0032 33.5014 35.4856 33.3911 34.9015C33.2695 34.258 33.1015 33.6751 33.0621 33.0104C33.0166 32.2414 33 31.4829 33 30.7112C33 29.8304 33.0687 28.671 33.7237 28" stroke="black" stroke-linecap="round"/>
<path d="M33 28.859C33.2977 28.9848 33.5191 29.1954 33.8106 29.3317C34.0936 29.464 34.3975 29.5569 34.6835 29.6843C35.5222 30.0582 36.7015 30.1807 37.4581 29.598C37.8519 29.2947 38.1907 29.0722 38.1907 28.5589C38.1907 28.5178 38.1734 28.2538 38.2296 28.2925C38.4073 28.4146 38.548 28.5083 38.7674 28.5739C40.3099 29.0347 41.1725 26.4726 41.2731 25.4076C41.3307 24.7981 40.5957 24.3591 40.0573 24.1996C39.7766 24.1165 40.0305 24.1321 40.182 24.1321C40.4474 24.1321 40.7254 24.1289 40.9809 24.0495C41.6559 23.8399 42.3493 22.854 41.8031 22.2113C41.3979 21.7345 40.7642 21.8361 40.1976 21.8361C39.9373 21.8361 39.6265 21.7903 39.3792 21.8737C39.2148 21.9291 38.8592 21.9136 38.7284 22.0237C38.4633 22.2471 39.286 21.5141 39.313 21.1759C39.3436 20.7928 39.5103 20.2299 39.2389 19.8816C38.6909 19.1781 37.985 19.2956 37.1424 19.1688C36.535 19.0775 35.8605 19 35.2446 19" stroke="black" stroke-linecap="round"/>
<path d="M35 19.0737C34.399 18.3727 33.7093 18.0077 32.756 18.0077C32.3537 18.0077 31.9404 17.9828 31.5396 18.0225C31.1584 18.0603 30.8049 18.1368 30.4441 18.2594C30.1601 18.3559 29.833 18.3388 29.5601 18.4482C29.2925 18.5554 28.8164 18.7752 28.6459 19.0182C28.4874 19.244 28.4352 19.6799 28.253 19.8584C28.1364 19.9727 27.7595 19.7195 27.6637 19.6585C27.1284 19.3175 26.2094 19.1549 25.5898 19.0774C24.8832 18.989 24.1734 19.0071 23.4629 19.0071C22.9649 19.0071 22.3778 18.9351 21.9178 19.1736C21.5137 19.3833 21.2492 19.8621 21.2039 20.2951C21.1406 20.8995 21.6597 21.2686 22.0123 21.6868C22.2469 21.9651 22.3862 22.1384 22.7603 22.1384C22.832 22.1384 23.4429 22.1384 23.1645 22.1384C22.7515 22.1384 22.3446 21.9947 21.9443 21.9089C21.2889 21.7684 20.7606 22.0263 20.2141 22.3679C19.7425 22.6626 19.3287 22.9834 18.9221 23.3672C18.5695 23.7002 18.2148 23.9026 18.0684 24.3888C17.7351 25.4953 18.6781 25.9237 19.6399 26.0359C19.9969 26.0775 20.3316 26.0026 20.6863 26.0026C20.7433 26.0026 20.836 25.9424 20.7808 25.9804C20.618 26.092 20.4853 26.25 20.3199 26.3653C19.7228 26.7816 19.1495 27.7493 19.0279 28.464C18.9906 28.6834 19.0203 28.9371 19.0203 29.1598C19.0203 29.4758 19.6947 29.5864 19.9119 29.6373C20.3861 29.7484 20.7706 30 21.2643 30C21.6213 30 21.9162 29.9105 22.2541 29.8001C23.0377 29.5442 24.6622 29.2772 24.8682 28.2678" stroke="black" stroke-linecap="round"/>
<path d="M28.1173 27C28.4384 27.9392 28.4508 29.025 28.645 30.0323C28.7478 30.5655 28.8209 31.1469 28.8731 31.6998C28.9155 32.1493 28.9969 32.5854 28.9969 33.0433C28.9969 34.18 29.0302 35.3603 28.8796 36.4792C28.8494 36.7029 28.7801 36.9025 28.733 37.1164C28.6532 37.4789 28.5965 37.8558 28.5212 38.221C28.3896 38.8601 28.1642 39.3881 28 40" stroke="black" stroke-linecap="round"/>
<path d="M32.6053 35C32.3791 35.1548 32.2496 35.3262 32.1704 35.5622C32.1004 35.7705 32.0066 36.04 32.0066 36.2578C32.0066 36.4235 31.9902 36.5971 32.0092 36.7622C32.0378 37.0107 32.2836 37.2589 32.4108 37.48C32.6842 37.9549 33.1862 38.2747 33.6184 38.64C34.1073 39.0531 34.4701 39.6318 35 40" stroke="black" stroke-width="0.5" stroke-linecap="round"/>
<path d="M30.6664 35C30.9043 36.1309 31.2019 37.2546 30.8092 38.4002C30.6926 38.7404 30.5707 39.1781 30.3121 39.4444C30.164 39.5969 30.1758 39.886 30 40" stroke="black" stroke-width="0.5" stroke-linecap="round"/>
<path d="M32.0507 30C31.9966 29.5241 31.9762 28.8829 32.0379 28.4096C32.0846 28.0527 32.2235 27.7335 32.308 27.4029C32.3739 27.1453 32.5136 26.9216 32.5973 26.6747C32.7042 26.3592 32.8342 26.2083 33 26" stroke="black" stroke-width="0.5" stroke-linecap="round"/>
<path d="M31 29C31 28.0509 30.9429 27.1251 30.551 26.2491C30.2839 25.6521 29.5783 25.1988 29 25" stroke="black" stroke-width="0.5" stroke-linecap="round"/>
<path d="M38 24C38.4303 24.0157 38.6931 24.2846 38.8357 24.5538C38.9731 24.813 39 24.9917 39 25.2615C39 25.6222 38.4838 25.746 38.3043 26" stroke="black" stroke-width="0.5" stroke-linecap="round"/>
<path d="M35 23.4001C34.8967 23.5715 34.6667 23.9244 34.4279 23.9581C34.1498 23.9973 33.5901 24.0366 33.3333 23.9381C32.9911 23.8067 32.6624 23.7039 32.3964 23.4313C32.2863 23.3184 32.1416 23.0466 32 23" stroke="black" stroke-width="0.5" stroke-linecap="round"/>
<path d="M36 21C36 21.2056 36 21.3594 36 21.5952C36 21.723 36 22.0438 36 22.1429C36 22.3847 36 22.8925 36 23" stroke="black" stroke-width="0.5" stroke-linecap="round"/>
<path d="M27 23C26.8774 23.7951 26.3728 24.292 25.8837 24.5556C25.2666 24.8881 24.652 25 24 25" stroke="black" stroke-width="0.5" stroke-linecap="round"/>
<path d="M25 26C24.2177 27.0569 23.0399 26.9994 22 26.9994" stroke="black" stroke-width="0.5" stroke-linecap="round"/>
<path d="M25 28.9235C25.6485 28.9235 26.9725 29.2058 27.5253 28.686C27.947 28.2894 28 27.6419 28 27" stroke="black" stroke-linecap="round"/>
<path d="M30.7946 32.2643C31.1439 32.3485 31.6857 32.7158 31.392 32.9488C31.1797 33.1173 30.6433 33.0688 30.5098 32.8814C30.3433 32.6477 30.782 32.4 31.1863 32.5403C31.5488 32.666 31.5242 32.8667 31.5068 33.077C31.4816 33.3817 30.7227 33.2233 30.5533 33.0575C30.3524 32.8608 30.0745 32.1182 30.7946 32.1078C31.5425 32.097 31.8116 32.6253 31.7877 32.9466C31.7521 33.426 31.0481 33.2548 30.7076 32.9684C30.5878 32.8675 30.1007 32.2918 30.4504 32.2078C31.0433 32.0653 31.4266 32.7333 31.4909 32.9292C31.5446 33.0927 31.6852 33.6859 31.1507 33.429C30.6241 33.176 30.5073 32.6378 30.763 32.2904C31.1307 31.7908 32.6322 33.6786 31.1982 33.4204C30.9153 33.3694 30.6583 33.0857 30.5414 32.951C30.3379 32.7164 30.3132 32.4253 30.5177 32.1882C30.6227 32.0665 30.7874 31.9277 31.0439 31.897C31.4748 31.8456 31.5827 32.1838 31.6492 32.3425C31.7999 32.7019 32.0416 33.3967 31.6096 33.7289C30.9898 34.2056 30.1416 32.9721 30.0825 32.7728C30.0156 32.547 29.8627 31.7949 30.5889 31.7949C31.3669 31.7949 31.5845 32.6214 31.6334 32.9553C31.682 33.2874 31.4641 33.6364 30.8659 33.253C30.1373 32.7862 29.7713 31.8777 30.1537 31.2908C30.3004 31.0656 30.6603 30.8936 31.0755 31.0778C31.7195 31.3635 31.7736 32.0492 31.8628 32.4468C31.9607 32.8828 32.1022 33.4754 31.8312 33.9006C31.7288 34.0613 31.245 34.0023 31.0637 33.8984C30.159 33.3804 30.1131 32.6712 30.5098 32.0274C30.5802 31.9132 30.8471 31.5019 31.1507 31.5211C31.5012 31.5433 31.7438 31.9624 31.8312 32.1078C31.9997 32.3881 32.3261 33.9877 31.0953 33.3117C30.4474 32.9558 30.2644 32.2761 30.3792 31.7927C30.4157 31.639 30.5461 31.3058 30.8659 31.2473" stroke="black" stroke-width="0.5" stroke-linecap="round"/>
<path d="M30 28V31" stroke="black" stroke-width="0.5" stroke-linecap="round"/>
<path d="M31 27C31.1018 26.5766 31.1802 26.2566 31.5432 25.8931C31.9295 25.5062 32.4297 25.2506 33 25" stroke="black" stroke-width="0.5" stroke-linecap="round"/>
<path d="M37 26C36.9826 26.61 36.8521 26.7699 36.4146 26.8699C36.0288 26.9582 35.3532 27.1122 35 26.8699" stroke="black" stroke-width="0.5" stroke-linecap="round"/>
<path d="M38.7771 38.489C39.0107 37.7193 39.3455 37.0644 39.4583 36.2752" stroke="black" stroke-width="0.5" stroke-linecap="round"/>
<path d="M38.9473 37.9782C38.7691 36.949 38.6232 36.1326 38.0958 35.2535" stroke="black" stroke-width="0.5" stroke-linecap="round"/>
<path d="M38.9473 37.9781C38.6605 37.1514 38.3644 36.5438 37.7552 35.9346" stroke="black" stroke-width="0.5" stroke-linecap="round"/>
<path d="M51.3785 37.9781C51.3785 37.6427 51.1989 36.2799 51.5488 36.1049" stroke="black" stroke-width="0.5" stroke-linecap="round"/>
<path d="M51.0381 37.9782C51.0381 37.1614 50.9118 36.6803 50.6218 35.9347C50.4641 35.529 50.142 35.29 50.0163 34.9129" stroke="black" stroke-width="0.5" stroke-linecap="round"/>
<path d="M50.1865 36.9564C49.9276 36.5318 49.6873 36.1165 49.3351 35.7643" stroke="black" stroke-width="0.5" stroke-linecap="round"/>
<path d="M34.762 68.1749C35.2462 68.0695 36.0948 67.9358 36.4127 67.4965C36.7754 66.9954 37.2091 66.5715 37.5868 66.0935C37.8487 65.7621 38.0798 65.5733 38.1706 65.1336C38.3023 64.4964 38.499 63.8828 38.6326 63.2477C38.774 62.5756 38.8575 61.9451 38.8415 61.2576C38.8239 60.5003 38.875 59.7995 38.757 59.0389C38.6205 58.1589 38.4532 57.2981 38.2634 56.4265C38.0468 55.4318 37.6821 54.1397 36.7592 53.5469" stroke="black" stroke-linecap="round"/>
<path d="M37.289 54.1491C36.9968 54.3614 36.8083 54.6511 36.5254 54.8736C36.2507 55.0897 35.9437 55.2662 35.6646 55.4775C34.8461 56.0971 33.5964 56.514 32.6322 56.036C32.1303 55.7871 31.708 55.6163 31.582 55.0376C31.5719 54.9913 31.5259 54.6896 31.4743 54.7465C31.3116 54.9262 31.1818 55.0651 30.9598 55.1908C29.3989 56.0749 27.8337 53.3905 27.463 52.2136C27.2509 51.5401 27.9409 50.8714 28.486 50.5644C28.7702 50.4044 28.4985 50.482 28.3341 50.5178C28.046 50.5805 27.7436 50.6426 27.4468 50.6135C26.6627 50.5367 25.6682 49.5891 26.1032 48.7355C26.4259 48.1023 27.1386 48.0671 27.7535 47.9332C28.036 47.8716 28.362 47.7466 28.6508 47.782C28.8429 47.8056 29.225 47.7041 29.394 47.7974C29.7366 47.9865 28.6638 47.3546 28.5514 46.9797C28.4242 46.5551 28.1051 45.9599 28.314 45.5032C28.7361 44.5806 29.5311 44.5461 30.4144 44.2041C31.0511 43.9576 31.7642 43.7108 32.4326 43.5653" stroke="black" stroke-linecap="round"/>
<path d="M33.1842 43.7205C33.6825 42.7731 34.3639 42.1879 35.4311 41.9554C35.8815 41.8573 36.338 41.7281 36.7966 41.6758C37.2327 41.626 37.6476 41.6273 38.082 41.6794C38.4239 41.7203 38.7858 41.6211 39.1186 41.6795C39.4449 41.7369 40.0326 41.8719 40.2839 42.1079C40.5175 42.3274 40.6844 42.8126 40.9328 42.9722C41.0918 43.0743 41.4508 42.6932 41.5428 42.6001C42.0574 42.08 43.0457 41.6701 43.7201 41.4305C44.4891 41.1573 45.2883 41.0048 46.0836 40.8316C46.6412 40.7102 47.2806 40.4848 47.8548 40.6452C48.3595 40.7862 48.7747 41.2689 48.9332 41.7526C49.1544 42.4278 48.6652 42.9761 48.3745 43.5399C48.181 43.9151 48.0682 44.147 47.6495 44.2382C47.5692 44.2557 46.8852 44.4047 47.1969 44.3368C47.6593 44.2361 48.0791 43.9727 48.5059 43.7771C49.2046 43.4568 49.8602 43.6226 50.5571 43.8797C51.1584 44.1015 51.7015 44.3671 52.2521 44.7066C52.7298 45.0011 53.1773 45.1459 53.4621 45.6657C54.1105 46.8488 53.1614 47.5682 52.1126 47.9308C51.7234 48.0654 51.33 48.0614 50.9328 48.1479C50.8691 48.1618 50.7503 48.1157 50.8216 48.1456C51.0315 48.2334 51.2194 48.3816 51.4333 48.473C52.2054 48.8031 53.088 49.7691 53.402 50.556C53.4984 50.7977 53.5282 51.0948 53.5836 51.3493C53.6622 51.7104 52.9348 52.0011 52.7043 52.1122C52.2011 52.3547 51.8332 52.736 51.2805 52.8564C50.8808 52.9434 50.5283 52.913 50.1227 52.8693C49.1818 52.7679 47.2966 52.859 46.8148 51.7558" stroke="black" stroke-linecap="round"/>
<path d="M43.1013 51.1236C43.0181 52.2508 43.2726 53.4776 43.3301 54.6545C43.3606 55.2775 43.4319 55.9486 43.5167 56.583C43.5856 57.0988 43.6132 57.6078 43.7256 58.1241C44.0047 59.4056 44.2619 60.7434 44.6838 61.9728C44.7682 62.2186 44.885 62.4289 44.9835 62.6601C45.1505 63.0517 45.2984 63.4646 45.4616 63.8603C45.7472 64.5529 46.097 65.1002 46.4077 65.7551" stroke="black" stroke-linecap="round"/>
<path d="M39.9346 60.8542C40.2164 60.9914 40.3998 61.1712 40.547 61.4418C40.677 61.6807 40.8485 61.9889 40.9066 62.2555C40.9508 62.4584 41.0146 62.6672 41.0384 62.8737C41.0742 63.1845 40.879 63.5454 40.8026 63.8456C40.6385 64.4903 40.1899 64.9982 39.8277 65.5455C39.418 66.1645 39.1864 66.9571 38.7211 67.5305" stroke="black" stroke-width="0.5" stroke-linecap="round"/>
<path d="M42.0619 60.4936C42.0778 61.7432 42.0305 62.9985 42.6983 64.1224C42.8967 64.4562 43.123 64.8919 43.4504 65.1157C43.6378 65.2437 43.6923 65.5522 43.8994 65.6334" stroke="black" stroke-width="0.5" stroke-linecap="round"/>
<path d="M39.3002 55.3498C39.287 54.8461 39.1799 54.1869 38.97 53.7289C38.8117 53.3834 38.5045 53.1106 38.2874 52.806C38.1182 52.5686 37.8309 52.3931 37.6338 52.1732C37.382 51.8922 37.1271 51.7871 36.7988 51.6369" stroke="black" stroke-width="0.5" stroke-linecap="round"/>
<path d="M40.5113 54.3166C40.2708 53.2127 40.1048 52.1209 40.3532 50.9996C40.5224 50.2354 41.2543 49.5238 41.8978 49.1415" stroke="black" stroke-width="0.5" stroke-linecap="round"/>
<path d="M31.0507 49.5031C30.5715 49.6337 30.3687 50.1261 30.3013 50.5897C30.2364 51.0359 30.2681 51.3269 30.3616 51.7563C30.4866 52.3305 31.1109 52.4008 31.4011 52.7611" stroke="black" stroke-width="0.5" stroke-linecap="round"/>
<path d="M33.9035 48.4715C34.0741 48.654 34.4459 49.0255 34.7433 49.0039C35.0898 48.9787 35.7764 48.8796 36.0603 48.6915C36.4387 48.4407 36.8083 48.2284 37.057 47.8246C37.16 47.6575 37.2623 47.2868 37.4209 47.1925" stroke="black" stroke-width="0.5" stroke-linecap="round"/>
<path d="M32.2012 46.0722C32.1235 46.3106 32.0858 46.4845 32.1386 46.727C32.1672 46.8584 32.1772 47.2018 32.2885 47.2843C32.5603 47.4856 32.9301 47.9521 33.2858 47.9904" stroke="black" stroke-width="0.5" stroke-linecap="round"/>
<path d="M42.6826 46.1492C43.0158 46.8516 43.8249 47.1597 44.565 47.2554C45.4988 47.3761 46.3843 47.2924 47.2997 47.093" stroke="black" stroke-width="0.5" stroke-linecap="round"/>
<path d="M45.6882 48.8802C46.8235 49.6095 48.2161 49.2531 49.4553 48.9832" stroke="black" stroke-width="0.5" stroke-linecap="round"/>
<path d="M46.7492 52.4019C46.0722 52.5494 44.7445 53.1012 44.0669 52.7652C43.5499 52.5088 43.3693 51.9457 43.2451 51.3756" stroke="black" stroke-linecap="round"/>
<path d="M40.8883 57.3067C40.6796 57.4582 40.4179 57.978 40.6729 58.216C40.8573 58.3881 41.199 58.2526 41.2381 58.008C41.2869 57.7029 40.9322 57.4681 40.7018 57.695C40.4952 57.8984 40.5641 58.1362 40.6307 58.3867C40.7272 58.7496 41.187 58.4499 41.2555 58.226C41.3367 57.9605 41.3258 57.0274 40.8473 57.1185C40.3504 57.2131 40.311 57.8872 40.4109 58.2703C40.56 58.8417 40.9803 58.5346 41.1302 58.141C41.183 58.0025 41.3539 57.2399 41.1009 57.1892C40.6719 57.1031 40.5936 57.9617 40.6024 58.2067C40.6098 58.4111 40.6723 59.1448 40.9581 58.7589C41.2397 58.3787 41.176 57.7146 40.916 57.3335C40.5422 56.7854 40.0447 59.2722 40.9245 58.7553C41.098 58.6533 41.1935 58.2751 41.2354 58.0962C41.3085 57.7847 41.2485 57.4311 41.0513 57.1753C40.95 57.044 40.8049 56.9007 40.6274 56.9008C40.3292 56.9009 40.3466 57.3232 40.3442 57.5237C40.3388 57.9777 40.3611 58.8482 40.7335 59.1856C41.2679 59.6698 41.5051 58.064 41.492 57.8158C41.477 57.5347 41.381 56.608 40.9012 56.7125C40.3873 56.8244 40.46 57.8499 40.5152 58.2585C40.57 58.665 40.8054 59.0534 41.1002 58.5062C41.4592 57.8399 41.4631 56.6944 41.0567 56.0434C40.9008 55.7937 40.618 55.6386 40.3919 55.9199C40.0413 56.3562 40.1852 57.1888 40.2304 57.6799C40.2799 58.2183 40.3417 58.9515 40.6321 59.424C40.7418 59.6025 41.046 59.4619 41.1386 59.311C41.6006 58.5576 41.4452 57.6981 41.0144 56.9808C40.938 56.8535 40.6539 56.3971 40.4583 56.464C40.2326 56.5411 40.1821 57.0802 40.1625 57.2676C40.1246 57.629 40.3279 59.6 40.964 58.6098C41.2988 58.0885 41.2417 57.2446 41.0392 56.6797C40.9748 56.5 40.8014 56.118 40.5748 56.0936" stroke="black" stroke-width="0.5" stroke-linecap="round"/>
<path d="M41.4082 52.9061L41.9615 55.4467" stroke="black" stroke-width="0.5" stroke-linecap="round"/>
<path d="M38.9326 51.7204C38.7315 51.2113 38.5781 50.8268 38.172 50.4405C37.7398 50.0294 37.2468 49.803 36.6958 49.5957" stroke="black" stroke-width="0.5" stroke-linecap="round"/>
<path d="M32.7114 51.8925C32.8216 52.3176 32.972 52.4027 33.4092 52.3811C33.7949 52.3621 34.4701 52.3285 34.7736 52.084" stroke="black" stroke-width="0.5" stroke-linecap="round"/>
<path d="M47.1525 65.4799C46.7604 64.7776 46.294 64.209 46.0159 63.4618" stroke="black" stroke-width="0.5" stroke-linecap="round"/>
<path d="M46.8774 65.017C46.8324 63.9735 46.8013 63.1447 47.1296 62.1736" stroke="black" stroke-width="0.5" stroke-linecap="round"/>
<path d="M46.8775 65.017C46.9818 64.1482 47.1417 63.4916 47.6074 62.7667" stroke="black" stroke-width="0.5" stroke-linecap="round"/>
<path d="M34.7308 67.6622C34.6594 67.3345 34.5449 65.9647 34.1658 65.8682" stroke="black" stroke-width="0.5" stroke-linecap="round"/>
<path d="M35.0636 67.5898C34.8898 66.7917 34.9109 66.2948 35.0355 65.5045C35.1034 65.0746 35.3672 64.7725 35.4097 64.3773" stroke="black" stroke-width="0.5" stroke-linecap="round"/>
<path d="M35.6782 66.4102C35.8408 65.9402 35.9873 65.4834 36.2565 65.0643" stroke="black" stroke-width="0.5" stroke-linecap="round"/>
<path d="M60.4137 50.1447C60.9089 50.1625 61.7642 50.2431 62.181 49.8962C62.6564 49.5005 63.1816 49.1972 63.6659 48.8276C64.0017 48.5714 64.2724 48.4457 64.4693 48.0422C64.7546 47.4575 65.0972 46.9117 65.3839 46.3295C65.6873 45.7133 65.9243 45.1231 66.0791 44.453C66.2496 43.715 66.4726 43.0487 66.5467 42.2826C66.6323 41.3962 66.6834 40.5207 66.7154 39.6293C66.7518 38.6119 66.7184 37.2698 65.9711 36.4669" stroke="black" stroke-linecap="round"/>
<path d="M66.3352 37.1816C65.9996 37.3148 65.7452 37.5488 65.416 37.6943C65.0963 37.8357 64.7552 37.9306 64.4325 38.0662C63.486 38.4639 62.172 38.5583 61.3563 37.8564C60.9316 37.491 60.5648 37.221 60.586 36.6291C60.5877 36.5817 60.6178 36.2781 60.5537 36.3204C60.3515 36.4542 60.1915 36.5566 59.9452 36.6235C58.2139 37.0935 57.3623 34.105 57.2946 32.873C57.2559 32.168 58.0899 31.691 58.6941 31.5286C59.0091 31.4439 58.7267 31.4518 58.5585 31.4457C58.2638 31.4352 57.9554 31.4204 57.6751 31.3188C56.9344 31.0502 56.2055 29.8859 56.8384 29.1666C57.3078 28.633 58.007 28.7753 58.636 28.7979C58.9249 28.8082 59.2718 28.7678 59.5428 28.8737C59.723 28.9441 60.1184 28.9403 60.259 29.0726C60.5441 29.3406 59.6612 28.4628 59.6452 28.0717C59.627 27.6288 59.4652 26.9732 59.7808 26.5824C60.4182 25.793 61.1969 25.9565 62.1374 25.8439C62.8154 25.7627 63.5673 25.7002 64.2509 25.7247" stroke="black" stroke-linecap="round"/>
<path d="M64.9406 26.0612C65.6581 25.2667 66.4631 24.8684 67.5547 24.9075C68.0154 24.924 68.4896 24.9119 68.9469 24.9747C69.3818 25.0345 69.7834 25.1385 70.1914 25.2965C70.5125 25.4209 70.8877 25.4143 71.1957 25.5534C71.4976 25.6897 72.0336 25.9661 72.2186 26.257C72.3906 26.5274 72.4321 27.0389 72.6333 27.255C72.7621 27.3934 73.2042 27.113 73.3164 27.0456C73.9437 26.6691 75.0028 26.5167 75.7155 26.4516C76.5282 26.3773 77.3402 26.4275 78.1537 26.4566C78.724 26.4771 79.3993 26.417 79.9159 26.7147C80.37 26.9762 80.6527 27.5466 80.6865 28.0546C80.7337 28.7635 80.1238 29.1736 79.7026 29.6478C79.4223 29.9634 79.2555 30.1602 78.8272 30.1449C78.7451 30.1419 78.0456 30.1169 78.3644 30.1283C78.8372 30.1452 79.3092 29.994 79.7711 29.9102C80.5275 29.7729 81.1215 30.0959 81.733 30.5175C82.2607 30.8813 82.7211 31.2732 83.1705 31.7384C83.5604 32.142 83.9581 32.3931 84.1054 32.9673C84.4406 34.2741 83.3429 34.7361 82.237 34.8277C81.8265 34.8617 81.4464 34.7604 81.0402 34.7459C80.9749 34.7435 80.8712 34.6694 80.933 34.716C81.1146 34.8531 81.26 35.0432 81.4446 35.1848C82.1108 35.6958 82.7268 36.8502 82.836 37.6904C82.8696 37.9484 82.8249 38.2437 82.8156 38.5039C82.8023 38.8732 82.0256 38.9748 81.7747 39.0253C81.2271 39.1357 80.7763 39.414 80.211 39.3938C79.8022 39.3791 79.4683 39.2624 79.0861 39.1196C78.1995 38.7884 76.3506 38.4097 76.1569 37.2216" stroke="black" stroke-linecap="round"/>
<path d="M72.7159 35.6895C72.3562 36.761 72.2989 38.0126 72.0632 39.1671C71.9385 39.7783 71.8414 40.4461 71.7665 41.0818C71.7055 41.5986 71.6062 42.0985 71.5872 42.6266C71.5403 43.9373 71.4582 45.2972 71.5625 46.5927C71.5834 46.8518 71.6445 47.0844 71.6827 47.3328C71.7475 47.7535 71.7886 48.1902 71.8487 48.614C71.9539 49.3557 72.1572 49.9726 72.2961 50.6841" stroke="black" stroke-linecap="round"/>
<path d="M67.238 44.3329C67.4771 44.5356 67.6102 44.7553 67.6858 45.0539C67.7525 45.3175 67.8425 45.6586 67.8327 45.9313C67.8253 46.1388 67.8354 46.3569 67.8073 46.5629C67.765 46.8729 67.4865 47.1742 67.3382 47.4461C67.0196 48.03 66.4592 48.4111 65.9727 48.8516C65.4225 49.3499 65.0018 50.0604 64.409 50.5008" stroke="black" stroke-width="0.5" stroke-linecap="round"/>
<path d="M69.3884 44.5103C69.0942 45.7249 68.7375 46.9294 69.1063 48.1837C69.2158 48.5562 69.3272 49.0343 69.589 49.3322C69.7388 49.5027 69.7152 49.8151 69.8958 49.9451" stroke="black" stroke-width="0.5" stroke-linecap="round"/>
<path d="M67.9864 38.8428C68.0984 38.3516 68.1579 37.6864 68.0679 37.1907C68.0001 36.8167 67.77 36.4763 67.6351 36.1275C67.5299 35.8556 67.295 35.6144 67.1586 35.3525C66.9842 35.0179 66.7633 34.853 66.4824 34.6262" stroke="black" stroke-width="0.5" stroke-linecap="round"/>
<path d="M69.4157 38.1417C69.4562 37.0126 69.5657 35.9137 70.0839 34.8889C70.4372 34.1904 71.3224 33.6822 72.0406 33.4711" stroke="black" stroke-width="0.5" stroke-linecap="round"/>
<path d="M61.4419 31.1354C60.9453 31.1433 60.6268 31.5701 60.4467 32.0025C60.2734 32.4187 60.232 32.7085 60.2162 33.1478C60.1952 33.735 60.7826 33.9577 60.9746 34.3787" stroke="black" stroke-width="0.5" stroke-linecap="round"/>
<path d="M64.4613 30.8424C64.5813 31.0615 64.8496 31.5135 65.1431 31.5662C65.485 31.6276 66.1747 31.7016 66.4964 31.5896C66.9251 31.4403 67.3358 31.3262 67.6768 30.9966C67.8179 30.8602 68.0088 30.5263 68.1859 30.4743" stroke="black" stroke-width="0.5" stroke-linecap="round"/>
<path d="M63.4061 28.0963C63.2718 28.308 63.1922 28.4672 63.1833 28.7152C63.1785 28.8496 63.1031 29.1848 63.1905 29.2922C63.404 29.5546 63.6468 30.0981 63.9819 30.2234" stroke="black" stroke-width="0.5" stroke-linecap="round"/>
<path d="M73.542 30.7664C73.6909 31.5294 74.3985 32.0283 75.0918 32.3043C75.9666 32.6525 76.8453 32.7906 77.7815 32.8241" stroke="black" stroke-width="0.5" stroke-linecap="round"/>
<path d="M75.7776 34.1567C76.6969 35.1443 78.1344 35.1439 79.4018 35.1893" stroke="black" stroke-width="0.5" stroke-linecap="round"/>
<path d="M75.9336 37.8314C75.2411 37.8066 73.8181 38.0124 73.2448 37.5191C72.8074 37.1427 72.7718 36.5524 72.7927 35.9693" stroke="black" stroke-linecap="round"/>
<path d="M69.0405 41.132C68.8008 41.2272 68.4185 41.666 68.6067 41.9597C68.7427 42.1721 69.1073 42.1254 69.2058 41.8982C69.3286 41.6146 69.0431 41.2993 68.7637 41.4621C68.5132 41.608 68.521 41.8555 68.5235 42.1146C68.5271 42.4901 69.0468 42.3136 69.1686 42.1137C69.313 41.8766 69.5336 40.9698 69.0474 40.9396C68.5425 40.9082 68.3374 41.5515 68.3394 41.9474C68.3424 42.538 68.8256 42.3445 69.0683 42.0003C69.1537 41.8792 69.5082 41.1827 69.2756 41.0709C68.8813 40.8813 68.5928 41.6938 68.5407 41.9332C68.4972 42.1331 68.3761 42.8595 68.7486 42.5563C69.1155 42.2578 69.2182 41.5985 69.0607 41.1649C68.8343 40.5413 67.7365 42.8275 68.7169 42.5445C68.9102 42.4887 69.0964 42.1459 69.1813 41.983C69.3292 41.6993 69.3587 41.3418 69.231 41.0452C69.1654 40.8928 69.0602 40.7181 68.8883 40.6742C68.5994 40.6005 68.5116 41.014 68.4596 41.2076C68.342 41.6461 68.148 42.495 68.4252 42.9142C68.8231 43.5156 69.4506 42.0186 69.4993 41.7748C69.5545 41.4987 69.6909 40.5772 69.2002 40.5596C68.6745 40.5407 68.491 41.5523 68.4433 41.9619C68.3958 42.3693 68.5277 42.8038 68.9488 42.3467C69.4617 41.79 69.7491 40.6812 69.5165 39.9499C69.4273 39.6694 69.1917 39.449 68.903 39.6656C68.4553 40.0014 68.3885 40.8437 68.3107 41.3307C68.2253 41.8647 68.1036 42.5903 68.268 43.12C68.3301 43.3202 68.6596 43.2593 68.7867 43.1359C69.4209 42.5205 69.4831 41.6492 69.2434 40.8475C69.2009 40.7053 69.0387 40.1928 68.8327 40.2091C68.5949 40.228 68.4124 40.7377 68.347 40.9145C68.2208 41.2552 67.9297 43.2152 68.7912 42.4133C69.2447 41.9912 69.3983 41.1595 69.342 40.562C69.3241 40.3719 69.2507 39.9589 69.0372 39.8792" stroke="black" stroke-width="0.5" stroke-linecap="round"/>
<path d="M70.634 36.9973L70.5409 39.5958" stroke="black" stroke-width="0.5" stroke-linecap="round"/>
<path d="M68.5292 35.2355C68.4604 34.6925 68.407 34.2819 68.1092 33.8071C67.7923 33.3018 67.3707 32.9604 66.8882 32.623" stroke="black" stroke-width="0.5" stroke-linecap="round"/>
<path d="M62.4592 33.8616C62.4607 34.3009 62.5853 34.4205 63.0143 34.5079C63.3926 34.585 64.0551 34.7196 64.4098 34.5579" stroke="black" stroke-width="0.5" stroke-linecap="round"/>
<path d="M73.0856 50.602C72.8797 49.8245 72.5686 49.158 72.4841 48.3652" stroke="black" stroke-width="0.5" stroke-linecap="round"/>
<path d="M72.9339 50.0854C73.1488 49.0632 73.3238 48.2525 73.8824 47.3929" stroke="black" stroke-width="0.5" stroke-linecap="round"/>
<path d="M72.9339 50.0853C73.2501 49.2695 73.5677 48.6728 74.1984 48.0858" stroke="black" stroke-width="0.5" stroke-linecap="round"/>
<path d="M60.5106 49.6403C60.5226 49.305 60.7509 47.9495 60.4075 47.7621" stroke="black" stroke-width="0.5" stroke-linecap="round"/>
<path d="M60.8507 49.6525C60.88 48.8362 61.0234 48.3599 61.3399 47.6252C61.512 47.2254 61.8424 46.9981 61.9815 46.6258" stroke="black" stroke-width="0.5" stroke-linecap="round"/>
<path d="M61.7383 48.6619C62.0123 48.2468 62.2673 47.8404 62.6319 47.5011" stroke="black" stroke-width="0.5" stroke-linecap="round"/>
<path d="M72.4877 75.9815C72.3934 74.9838 72.42 74.6026 72.6184 73.7455" stroke="black" stroke-width="0.5" stroke-linecap="round"/>
<path d="M72.3021 75.828C72.0785 75.3527 71.611 74.4171 71.1246 74.2288" stroke="black" stroke-width="0.5" stroke-linecap="round"/>
<path d="M72.302 75.828C71.6462 75.58 70.8894 75.4409 70.3409 74.9871" stroke="black" stroke-width="0.5" stroke-linecap="round"/>
<path d="M49.8456 67.0733C49.7512 66.0755 49.6536 65.7061 49.2981 64.9014" stroke="black" stroke-width="0.5" stroke-linecap="round"/>
<path d="M49.9992 66.8877C50.1298 66.3789 50.4136 65.3723 50.8561 65.0961" stroke="black" stroke-width="0.5" stroke-linecap="round"/>
<path d="M49.9993 66.8877C50.5969 66.5212 51.3142 66.2427 51.768 65.6942" stroke="black" stroke-width="0.5" stroke-linecap="round"/>
<path d="M56.0739 93.6048C55.9796 92.6071 56.0062 92.2259 56.2046 91.3688" stroke="black" stroke-width="0.5" stroke-linecap="round"/>
<path d="M55.8881 93.4513C55.6644 92.9761 55.197 92.0405 54.7106 91.8522" stroke="black" stroke-width="0.5" stroke-linecap="round"/>
<path d="M55.8882 93.4513C55.2324 93.2033 54.4756 93.0642 53.9271 92.6104" stroke="black" stroke-width="0.5" stroke-linecap="round"/>
<path d="M65.3836 82.68C65.2893 81.6822 65.1917 81.3128 64.8362 80.5081" stroke="black" stroke-width="0.5" stroke-linecap="round"/>
<path d="M65.5373 82.4944C65.6679 81.9856 65.9517 80.979 66.3942 80.7028" stroke="black" stroke-width="0.5" stroke-linecap="round"/>
<path d="M65.5373 82.4944C66.135 82.1279 66.8523 81.8494 67.3061 81.3008" stroke="black" stroke-width="0.5" stroke-linecap="round"/>
<path d="M84.9563 50.2138C84.9563 49.2116 84.8939 48.8346 84.6157 48" stroke="black" stroke-width="0.5" stroke-linecap="round"/>
<path d="M85.1267 50.0435C85.3046 49.5493 85.682 48.5738 86.1485 48.3406" stroke="black" stroke-width="0.5" stroke-linecap="round"/>
<path d="M85.1267 50.0435C85.7562 49.7349 86.4966 49.5251 86.9999 49.0217" stroke="black" stroke-width="0.5" stroke-linecap="round"/>
<path d="M92.6594 56.2138C92.6594 55.2116 92.7218 54.8346 93 54" stroke="black" stroke-width="0.5" stroke-linecap="round"/>
<path d="M92.489 56.0435C92.3111 55.5493 91.9338 54.5738 91.4673 54.3406" stroke="black" stroke-width="0.5" stroke-linecap="round"/>
<path d="M92.489 56.0435C91.8595 55.7349 91.1192 55.5251 90.6158 55.0217" stroke="black" stroke-width="0.5" stroke-linecap="round"/>
<path d="M100.044 80.2138C100.044 79.2116 100.106 78.8346 100.384 78" stroke="black" stroke-width="0.5" stroke-linecap="round"/>
<path d="M99.8733 80.0435C99.6954 79.5493 99.318 78.5738 98.8515 78.3406" stroke="black" stroke-width="0.5" stroke-linecap="round"/>
<path d="M99.8733 80.0435C99.2438 79.7349 98.5034 79.5251 98.0001 79.0217" stroke="black" stroke-width="0.5" stroke-linecap="round"/>
<path d="M78.3406 69.2138C78.3406 68.2116 78.2782 67.8346 78 67" stroke="black" stroke-width="0.5" stroke-linecap="round"/>
<path d="M78.511 69.0435C78.6889 68.5493 79.0662 67.5738 79.5327 67.3406" stroke="black" stroke-width="0.5" stroke-linecap="round"/>
<path d="M78.511 69.0435C79.1405 68.7349 79.8808 68.5251 80.3842 68.0217" stroke="black" stroke-width="0.5" stroke-linecap="round"/>
<path d="M82.0437 96.2138C82.0437 95.2116 82.1061 94.8346 82.3843 94" stroke="black" stroke-width="0.5" stroke-linecap="round"/>
<path d="M81.8733 96.0435C81.6954 95.5493 81.318 94.5738 80.8515 94.3406" stroke="black" stroke-width="0.5" stroke-linecap="round"/>
<path d="M81.8733 96.0435C81.2438 95.7349 80.5034 95.5251 80.0001 95.0217" stroke="black" stroke-width="0.5" stroke-linecap="round"/>
<path d="M92.3406 86.2138C92.3406 85.2116 92.2782 84.8346 92 84" stroke="black" stroke-width="0.5" stroke-linecap="round"/>
<path d="M92.511 86.0435C92.6889 85.5493 93.0662 84.5738 93.5327 84.3406" stroke="black" stroke-width="0.5" stroke-linecap="round"/>
<path d="M92.511 86.0435C93.1405 85.7349 93.8808 85.5251 94.3842 85.0217" stroke="black" stroke-width="0.5" stroke-linecap="round"/>
<path d="M18.5761 43.7246C18.49 43.2835 18.324 42.9106 18.5761 42.5326" stroke="black" stroke-width="0.5" stroke-linecap="round"/>
<path d="M18.0651 43.895C17.7546 43.0992 17.0921 41.3001 16.1919 41" stroke="black" stroke-width="0.5" stroke-linecap="round"/>
<path d="M17.8949 43.8949C17.8949 43.2104 17.7553 42.301 18.0652 41.6812" stroke="black" stroke-width="0.5" stroke-linecap="round"/>
<path d="M15.6812 51.8987C15.6502 51.1404 15.4842 50.7606 15 50.1957" stroke="black" stroke-width="0.5" stroke-linecap="round"/>
<path d="M16.1918 51.2175C16.1918 50.7043 16.0718 50.1204 16.3621 49.6849" stroke="black" stroke-width="0.5" stroke-linecap="round"/>
<path d="M15.6812 51.8987C16.2086 51.2771 16.8899 50.9794 17.5544 50.5364" stroke="black" stroke-width="0.5" stroke-linecap="round"/>
<path d="M82.9925 59.9639C82.9925 59.2798 83.0012 58.7372 83.1628 58.0907" stroke="black" stroke-width="0.5" stroke-linecap="round"/>
<path d="M83.1628 59.964C82.8852 59.5863 82.5127 59.1746 82.3114 58.7719" stroke="black" stroke-width="0.5" stroke-linecap="round"/>
<path d="M82.9928 59.7937C83.4004 59.5451 83.7985 59.1354 84.1848 58.9422" stroke="black" stroke-width="0.5" stroke-linecap="round"/>
<path d="M31.879 70.2432C31.996 69.8093 32.0112 69.4014 32.404 69.173" stroke="black" stroke-width="0.5" stroke-linecap="round"/>
<path d="M31.3453 70.1711C31.4169 69.32 31.6145 67.4129 30.9385 66.7471" stroke="black" stroke-width="0.5" stroke-linecap="round"/>
<path d="M31.1923 70.0961C31.4938 69.4815 31.7689 68.6036 32.3202 68.1836" stroke="black" stroke-width="0.5" stroke-linecap="round"/>
<path d="M25.6799 76.3069C25.9861 75.6125 26.0043 75.1984 25.8184 74.478" stroke="black" stroke-width="0.5" stroke-linecap="round"/>
<path d="M26.4384 75.9203C26.6644 75.4595 26.8138 74.8824 27.2663 74.6193" stroke="black" stroke-width="0.5" stroke-linecap="round"/>
<path d="M25.68 76.307C26.4274 75.9811 27.1701 76.0139 27.9618 75.9088" stroke="black" stroke-width="0.5" stroke-linecap="round"/>
<path d="M38.0899 85.8088C38.3911 85.1946 38.6223 84.7036 38.762 84.052" stroke="black" stroke-width="0.5" stroke-linecap="round"/>
<path d="M37.9369 85.7338C38.3525 85.517 38.8682 85.3114 39.2264 85.0386" stroke="black" stroke-width="0.5" stroke-linecap="round"/>
<path d="M38.1647 85.6558C37.9082 85.2531 37.7312 84.7099 37.4695 84.3664" stroke="black" stroke-width="0.5" stroke-linecap="round"/>
<path d="M65.4239 58.7246C65.51 58.2835 65.676 57.9106 65.4239 57.5326" stroke="black" stroke-width="0.5" stroke-linecap="round"/>
<path d="M65.9349 58.895C66.2454 58.0992 66.9079 56.3001 67.8081 56" stroke="black" stroke-width="0.5" stroke-linecap="round"/>
<path d="M66.1051 58.8949C66.1051 58.2104 66.2447 57.301 65.9348 56.6812" stroke="black" stroke-width="0.5" stroke-linecap="round"/>
<path d="M71.965 69.9444C72.2624 69.2461 72.552 68.9497 73.2048 68.5928" stroke="black" stroke-width="0.5" stroke-linecap="round"/>
<path d="M67.8082 66.2175C67.8082 65.7043 67.9282 65.1204 67.6379 64.6849" stroke="black" stroke-width="0.5" stroke-linecap="round"/>
<path d="M68.3188 66.8987C67.7914 66.2771 67.1101 65.9794 66.4456 65.5364" stroke="black" stroke-width="0.5" stroke-linecap="round"/>
<path d="M52.9925 69.9639C52.9925 69.2798 53.0012 68.7372 53.1628 68.0907" stroke="black" stroke-width="0.5" stroke-linecap="round"/>
<path d="M53.1628 69.964C52.8852 69.5863 52.5127 69.1746 52.3114 68.7719" stroke="black" stroke-width="0.5" stroke-linecap="round"/>
<path d="M52.9928 69.7937C53.4004 69.5451 53.7985 69.1354 54.1848 68.9422" stroke="black" stroke-width="0.5" stroke-linecap="round"/>
<path d="M18.5761 43.7246C18.49 43.2835 18.324 42.9106 18.5761 42.5326" stroke="black" stroke-width="0.5" stroke-linecap="round"/>
<path d="M18.0651 43.895C17.7546 43.0992 17.0921 41.3001 16.1919 41" stroke="black" stroke-width="0.5" stroke-linecap="round"/>
<path d="M17.8949 43.8949C17.8949 43.2104 17.7553 42.301 18.0652 41.6812" stroke="black" stroke-width="0.5" stroke-linecap="round"/>
<path d="M15.6812 51.8987C15.6502 51.1404 15.4842 50.7606 15 50.1957" stroke="black" stroke-width="0.5" stroke-linecap="round"/>
<path d="M16.1918 51.2175C16.1918 50.7043 16.0718 50.1204 16.3621 49.6849" stroke="black" stroke-width="0.5" stroke-linecap="round"/>
<path d="M15.6812 51.8987C16.2086 51.2771 16.8899 50.9794 17.5544 50.5364" stroke="black" stroke-width="0.5" stroke-linecap="round"/>
<path d="M82.9925 59.9639C82.9925 59.2798 83.0012 58.7372 83.1628 58.0907" stroke="black" stroke-width="0.5" stroke-linecap="round"/>
<path d="M83.1628 59.964C82.8852 59.5863 82.5127 59.1746 82.3114 58.7719" stroke="black" stroke-width="0.5" stroke-linecap="round"/>
<path d="M82.9928 59.7937C83.4004 59.5451 83.7985 59.1354 84.1848 58.9422" stroke="black" stroke-width="0.5" stroke-linecap="round"/>
<path d="M7.84058 5.51609C8.19306 5.05516 8.99819 4.48858 9.61065 4.7781C10.2346 5.07306 10.5981 5.54058 10.8758 6.1653C11.0074 6.46149 11.0638 6.77133 11.1255 7.10305C11.1517 7.24392 11.1938 7.73894 11.2753 7.28616C11.3171 7.05387 11.2873 6.82286 11.3363 6.58979C11.4359 6.11689 11.7526 5.71763 12.1354 5.44119C12.4868 5.18738 13.0191 4.61719 13.4837 4.61719C13.8589 4.61719 14.112 4.73739 14.4575 4.81417C14.6269 4.85182 14.9223 5.18752 14.9819 5.36628" stroke="black" stroke-width="0.5" stroke-linecap="round"/>
<path d="M36 5.49245C36.1053 5.23229 36.2549 4.7089 36.509 4.53946C36.7418 4.38431 36.9594 4.26767 37.2272 4.17839C37.4979 4.08817 37.8572 3.94966 38.1467 4.01857C38.3617 4.06978 38.4822 4.3125 38.5492 4.50592C38.618 4.70467 38.6756 4.91903 38.7169 5.12546C38.7487 5.28468 38.7356 5.48692 38.7978 5.63451C38.8263 5.70217 38.7991 5.83935 38.8451 5.89692C38.9301 6.00308 38.965 5.64954 38.9912 5.51612C39.0777 5.07396 39.2583 4.427 39.8159 4.427C40.029 4.427 40.3038 4.38082 40.5084 4.44475C40.6679 4.49458 40.7184 4.54207 40.8577 4.64009C41.0103 4.7475 41.118 5.20833 41.2562 5.20833" stroke="black" stroke-width="0.5" stroke-linecap="round"/>
<path d="M22 10.943C22.2044 10.7445 22.4002 10.5243 22.6176 10.3412C22.771 10.2119 22.934 10.0196 23.1523 10.0196C23.4767 10.0196 23.737 9.90127 23.9494 10.2465C24.0849 10.4667 24.3918 10.7052 24.4486 10.9607C24.4856 11.1274 24.5284 11.2873 24.5591 11.4559C24.5808 11.5753 24.6281 11.2998 24.6281 11.2705C24.6281 11.1619 24.6193 11.049 24.6301 10.941C24.6615 10.627 24.8643 10.3265 25.0898 10.1261C25.2977 9.94132 25.7279 10.0196 25.9856 10.0196C26.3068 10.0196 26.6436 10.0663 26.9366 10.205C27.0521 10.2597 27.1861 10.344 27.2483 10.4615C27.2866 10.5339 27.398 10.6942 27.4693 10.7299" stroke="black" stroke-width="0.5" stroke-linecap="round"/>
<path d="M56 11.539C56.2453 11.2267 57.1185 9.07822 57.8386 9.45721C58.2575 9.67772 58.3316 10.221 58.5195 10.5759C58.6526 10.8273 58.9894 9.63139 59.108 9.48639C59.3375 9.20587 59.4228 9 59.8084 9C60.1544 9 60.4889 9.43543 60.5575 9.74418C60.6066 9.96522 61.0523 10.2099 61.2044 10.3619C61.3986 10.5561 61.5419 10.7773 61.7783 11.0137" stroke="black" stroke-width="0.5" stroke-linecap="round"/>
</g>
<defs>
<clipPath id="clip0_68_408">
<rect width="100" height="100" fill="white"/>
</clipPath>
</defs>
</svg>
