<svg width="100" height="100" viewBox="0 0 100 100" fill="none" xmlns="http://www.w3.org/2000/svg">
<g clip-path="url(#clip0_68_219)">
<rect width="100" height="100" fill="white"/>
<path d="M76 34.998C76.4185 34.998 77.1427 35.0412 77.4839 34.7284C77.8732 34.3715 78.3072 34.093 78.7047 33.7585C78.9803 33.5265 79.2049 33.4095 79.3589 33.0545C79.582 32.5401 79.8546 32.0576 80.0789 31.5454C80.3164 31.0032 80.4986 30.4856 80.6089 29.9015C80.7305 29.258 80.8985 28.6751 80.9379 28.0104C80.9834 27.2414 81 26.4829 81 25.7112C81 24.8304 80.9313 23.671 80.2763 23" stroke="black" stroke-linecap="round"/>
<path d="M81 23.859C80.7023 23.9848 80.4809 24.1954 80.1894 24.3317C79.9064 24.464 79.6025 24.5569 79.3165 24.6843C78.4778 25.0582 77.2985 25.1807 76.5419 24.598C76.1481 24.2947 75.8093 24.0722 75.8093 23.5589C75.8093 23.5178 75.8266 23.2538 75.7704 23.2925C75.5927 23.4146 75.452 23.5083 75.2326 23.5739C73.6901 24.0347 72.8275 21.4726 72.7269 20.4076C72.6693 19.7981 73.4043 19.3591 73.9427 19.1996C74.2234 19.1165 73.9695 19.1321 73.818 19.1321C73.5526 19.1321 73.2746 19.1289 73.0191 19.0495C72.3441 18.8399 71.6507 17.854 72.1969 17.2113C72.6021 16.7345 73.2358 16.8361 73.8024 16.8361C74.0627 16.8361 74.3735 16.7903 74.6208 16.8737C74.7852 16.9291 75.1408 16.9136 75.2716 17.0237C75.5367 17.2471 74.714 16.5141 74.687 16.1759C74.6564 15.7928 74.4897 15.2299 74.7611 14.8816C75.3091 14.1781 76.015 14.2956 76.8576 14.1688C77.465 14.0775 78.1395 14 78.7554 14" stroke="black" stroke-linecap="round"/>
<path d="M79 14.0737C79.601 13.3727 80.2907 13.0077 81.244 13.0077C81.6463 13.0077 82.0596 12.9828 82.4604 13.0225C82.8416 13.0603 83.1951 13.1368 83.5559 13.2594C83.8399 13.3559 84.167 13.3388 84.4399 13.4482C84.7075 13.5554 85.1836 13.7752 85.3541 14.0182C85.5126 14.244 85.5648 14.6799 85.747 14.8584C85.8636 14.9727 86.2405 14.7195 86.3363 14.6585C86.8716 14.3175 87.7906 14.1549 88.4102 14.0774C89.1168 13.989 89.8266 14.0071 90.5371 14.0071C91.0351 14.0071 91.6222 13.9351 92.0822 14.1736C92.4863 14.3833 92.7508 14.8621 92.7961 15.2951C92.8594 15.8995 92.3403 16.2686 91.9877 16.6868C91.7531 16.9651 91.6138 17.1384 91.2397 17.1384C91.168 17.1384 90.5571 17.1384 90.8355 17.1384C91.2485 17.1384 91.6554 16.9947 92.0557 16.9089C92.7111 16.7684 93.2394 17.0263 93.7859 17.3679C94.2575 17.6626 94.6713 17.9834 95.0779 18.3672C95.4305 18.7002 95.7852 18.9026 95.9316 19.3888C96.2649 20.4953 95.3219 20.9237 94.3601 21.0359C94.0031 21.0775 93.6684 21.0026 93.3137 21.0026C93.2567 21.0026 93.164 20.9424 93.2192 20.9804C93.382 21.092 93.5147 21.25 93.6801 21.3653C94.2772 21.7816 94.8505 22.7493 94.9721 23.464C95.0094 23.6834 94.9797 23.9371 94.9797 24.1598C94.9797 24.4758 94.3053 24.5864 94.0881 24.6373C93.6139 24.7484 93.2294 25 92.7357 25C92.3787 25 92.0838 24.9105 91.7459 24.8001C90.9623 24.5442 89.3378 24.2772 89.1318 23.2678" stroke="black" stroke-linecap="round"/>
<path d="M85.8827 22C85.5616 22.9392 85.5492 24.025 85.355 25.0323C85.2522 25.5655 85.1791 26.1469 85.1269 26.6998C85.0845 27.1493 85.0031 27.5854 85.0031 28.0433C85.0031 29.18 84.9698 30.3603 85.1204 31.4792C85.1506 31.7029 85.2199 31.9025 85.267 32.1164C85.3468 32.4789 85.4035 32.8558 85.4788 33.221C85.6104 33.8601 85.8358 34.3881 86 35" stroke="black" stroke-linecap="round"/>
<path d="M81.3947 30C81.6209 30.1548 81.7504 30.3262 81.8296 30.5622C81.8996 30.7705 81.9934 31.04 81.9934 31.2578C81.9934 31.4235 82.0098 31.5971 81.9908 31.7622C81.9622 32.0107 81.7164 32.2589 81.5892 32.48C81.3158 32.9549 80.8138 33.2747 80.3816 33.64C79.8927 34.0531 79.5299 34.6318 79 35" stroke="black" stroke-width="0.5" stroke-linecap="round"/>
<path d="M83.3336 30C83.0957 31.1309 82.7981 32.2546 83.1908 33.4002C83.3074 33.7404 83.4293 34.1781 83.6879 34.4444C83.836 34.5969 83.8242 34.886 84 35" stroke="black" stroke-width="0.5" stroke-linecap="round"/>
<path d="M81.9493 25C82.0034 24.5241 82.0238 23.8829 81.9621 23.4096C81.9154 23.0527 81.7765 22.7335 81.692 22.4029C81.6261 22.1453 81.4864 21.9216 81.4027 21.6747C81.2958 21.3592 81.1658 21.2083 81 21" stroke="black" stroke-width="0.5" stroke-linecap="round"/>
<path d="M83 24C83 23.0509 83.0571 22.1251 83.449 21.2491C83.7161 20.6521 84.4217 20.1988 85 20" stroke="black" stroke-width="0.5" stroke-linecap="round"/>
<path d="M76 19C75.5697 19.0157 75.3069 19.2846 75.1643 19.5538C75.0269 19.813 75 19.9917 75 20.2615C75 20.6222 75.5162 20.746 75.6957 21" stroke="black" stroke-width="0.5" stroke-linecap="round"/>
<path d="M79 18.4001C79.1033 18.5715 79.3333 18.9244 79.5721 18.9581C79.8502 18.9973 80.4099 19.0366 80.6667 18.9381C81.0089 18.8067 81.3376 18.7039 81.6036 18.4313C81.7137 18.3184 81.8584 18.0466 82 18" stroke="black" stroke-width="0.5" stroke-linecap="round"/>
<path d="M78 16C78 16.2056 78 16.3594 78 16.5952C78 16.723 78 17.0438 78 17.1429C78 17.3847 78 17.8925 78 18" stroke="black" stroke-width="0.5" stroke-linecap="round"/>
<path d="M87 18C87.1226 18.7951 87.6272 19.292 88.1163 19.5556C88.7334 19.8881 89.348 20 90 20" stroke="black" stroke-width="0.5" stroke-linecap="round"/>
<path d="M89 21C89.7823 22.0569 90.9601 21.9994 92 21.9994" stroke="black" stroke-width="0.5" stroke-linecap="round"/>
<path d="M89 23.9235C88.3515 23.9235 87.0275 24.2058 86.4747 23.686C86.053 23.2894 86 22.6419 86 22" stroke="black" stroke-linecap="round"/>
<path d="M83.2054 27.2643C82.8561 27.3485 82.3143 27.7158 82.608 27.9488C82.8203 28.1173 83.3567 28.0688 83.4902 27.8814C83.6567 27.6477 83.218 27.4 82.8137 27.5403C82.4512 27.666 82.4758 27.8667 82.4932 28.077C82.5184 28.3817 83.2773 28.2233 83.4467 28.0575C83.6476 27.8608 83.9255 27.1182 83.2054 27.1078C82.4575 27.097 82.1884 27.6253 82.2123 27.9466C82.2479 28.426 82.9519 28.2548 83.2924 27.9684C83.4122 27.8675 83.8993 27.2918 83.5496 27.2078C82.9567 27.0653 82.5734 27.7333 82.5091 27.9292C82.4554 28.0927 82.3148 28.6859 82.8493 28.429C83.3759 28.176 83.4927 27.6378 83.237 27.2904C82.8693 26.7908 81.3678 28.6786 82.8018 28.4204C83.0847 28.3694 83.3417 28.0857 83.4586 27.951C83.6621 27.7164 83.6868 27.4253 83.4823 27.1882C83.3773 27.0665 83.2126 26.9277 82.9561 26.897C82.5252 26.8456 82.4173 27.1838 82.3508 27.3425C82.2001 27.7019 81.9584 28.3967 82.3904 28.7289C83.0102 29.2056 83.8584 27.9721 83.9175 27.7728C83.9844 27.547 84.1373 26.7949 83.4111 26.7949C82.6331 26.7949 82.4155 27.6214 82.3666 27.9553C82.318 28.2874 82.5359 28.6364 83.1341 28.253C83.8627 27.7862 84.2287 26.8777 83.8463 26.2908C83.6996 26.0656 83.3397 25.8936 82.9245 26.0778C82.2805 26.3635 82.2264 27.0492 82.1372 27.4468C82.0393 27.8828 81.8978 28.4754 82.1688 28.9006C82.2712 29.0613 82.755 29.0023 82.9363 28.8984C83.841 28.3804 83.8869 27.6712 83.4902 27.0274C83.4198 26.9132 83.1529 26.5019 82.8493 26.5211C82.4988 26.5433 82.2562 26.9624 82.1688 27.1078C82.0003 27.3881 81.6739 28.9877 82.9047 28.3117C83.5526 27.9558 83.7356 27.2761 83.6208 26.7927C83.5843 26.639 83.4539 26.3058 83.1341 26.2473" stroke="black" stroke-width="0.5" stroke-linecap="round"/>
<path d="M84 23V26" stroke="black" stroke-width="0.5" stroke-linecap="round"/>
<path d="M83 22C82.8982 21.5766 82.8198 21.2566 82.4568 20.8931C82.0705 20.5062 81.5703 20.2506 81 20" stroke="black" stroke-width="0.5" stroke-linecap="round"/>
<path d="M77 21C77.0174 21.61 77.1479 21.7699 77.5854 21.8699C77.9712 21.9582 78.6468 22.1122 79 21.8699" stroke="black" stroke-width="0.5" stroke-linecap="round"/>
<path d="M75.2229 33.489C74.9893 32.7193 74.6545 32.0644 74.5417 31.2752" stroke="black" stroke-width="0.5" stroke-linecap="round"/>
<path d="M75.0527 32.9782C75.2309 31.949 75.3768 31.1326 75.9042 30.2535" stroke="black" stroke-width="0.5" stroke-linecap="round"/>
<path d="M75.0527 32.9781C75.3395 32.1514 75.6356 31.5438 76.2448 30.9346" stroke="black" stroke-width="0.5" stroke-linecap="round"/>
<path d="M62.6215 32.9781C62.6215 32.6427 62.8011 31.2799 62.4512 31.1049" stroke="black" stroke-width="0.5" stroke-linecap="round"/>
<path d="M62.9619 32.9782C62.9619 32.1614 63.0882 31.6803 63.3782 30.9347C63.5359 30.529 63.858 30.29 63.9837 29.9129" stroke="black" stroke-width="0.5" stroke-linecap="round"/>
<path d="M63.8135 31.9564C64.0724 31.5318 64.3127 31.1165 64.6649 30.7643" stroke="black" stroke-width="0.5" stroke-linecap="round"/>
<path d="M79.238 63.1749C78.7538 63.0695 77.9052 62.9358 77.5873 62.4965C77.2246 61.9954 76.7909 61.5715 76.4132 61.0935C76.1513 60.7621 75.9202 60.5733 75.8294 60.1336C75.6977 59.4964 75.501 58.8828 75.3674 58.2477C75.226 57.5756 75.1425 56.9451 75.1585 56.2576C75.1761 55.5003 75.125 54.7995 75.243 54.0389C75.3795 53.1589 75.5468 52.2981 75.7366 51.4265C75.9532 50.4318 76.3179 49.1397 77.2408 48.5469" stroke="black" stroke-linecap="round"/>
<path d="M76.711 49.1491C77.0032 49.3614 77.1917 49.6511 77.4746 49.8736C77.7493 50.0897 78.0563 50.2662 78.3354 50.4775C79.1539 51.0971 80.4036 51.514 81.3678 51.036C81.8697 50.7871 82.292 50.6163 82.418 50.0376C82.4281 49.9913 82.4741 49.6896 82.5257 49.7465C82.6884 49.9262 82.8182 50.0651 83.0402 50.1908C84.6011 51.0749 86.1663 48.3905 86.537 47.2136C86.7491 46.5401 86.0591 45.8714 85.514 45.5644C85.2298 45.4044 85.5015 45.482 85.6659 45.5178C85.954 45.5805 86.2564 45.6426 86.5532 45.6135C87.3373 45.5367 88.3318 44.5891 87.8968 43.7355C87.5741 43.1023 86.8614 43.0671 86.2465 42.9332C85.964 42.8716 85.638 42.7466 85.3492 42.782C85.1571 42.8056 84.775 42.7041 84.606 42.7974C84.2634 42.9865 85.3362 42.3546 85.4486 41.9797C85.5758 41.5551 85.8949 40.9599 85.686 40.5032C85.2639 39.5806 84.4689 39.5461 83.5856 39.2041C82.9489 38.9576 82.2358 38.7108 81.5674 38.5653" stroke="black" stroke-linecap="round"/>
<path d="M80.816 38.7205C80.3176 37.7731 79.6363 37.1879 78.5691 36.9554C78.1186 36.8573 77.6621 36.7281 77.2036 36.6758C76.7674 36.626 76.3526 36.6273 75.9181 36.6794C75.5762 36.7203 75.2143 36.6211 74.8815 36.6795C74.5552 36.7369 73.9675 36.8719 73.7162 37.1079C73.4826 37.3274 73.3157 37.8126 73.0673 37.9722C72.9083 38.0743 72.5493 37.6932 72.4573 37.6001C71.9428 37.08 70.9544 36.6701 70.28 36.4305C69.5111 36.1573 68.7119 36.0048 67.9165 35.8316C67.3589 35.7102 66.7196 35.4848 66.1453 35.6452C65.6406 35.7862 65.2254 36.2689 65.0669 36.7526C64.8457 37.4278 65.3349 37.9761 65.6256 38.5399C65.8191 38.9151 65.9319 39.147 66.3507 39.2382C66.4309 39.2557 67.1149 39.4047 66.8032 39.3368C66.3408 39.2361 65.9211 38.9727 65.4943 38.7771C64.7955 38.4568 64.1399 38.6226 63.4431 38.8797C62.8418 39.1015 62.2986 39.3671 61.748 39.7066C61.2703 40.0011 60.8229 40.1459 60.538 40.6657C59.8896 41.8488 60.8387 42.5682 61.8875 42.9308C62.2768 43.0654 62.6701 43.0614 63.0673 43.1479C63.131 43.1618 63.2499 43.1157 63.1785 43.1456C62.9686 43.2334 62.7807 43.3816 62.5668 43.473C61.7947 43.8031 60.9121 44.7691 60.5982 45.556C60.5018 45.7977 60.472 46.0948 60.4166 46.3493C60.3379 46.7104 61.0653 47.0011 61.2958 47.1122C61.7991 47.3547 62.167 47.736 62.7196 47.8564C63.1193 47.9434 63.4718 47.913 63.8774 47.8693C64.8184 47.7679 66.7035 47.859 67.1854 46.7558" stroke="black" stroke-linecap="round"/>
<path d="M70.8986 46.1236C70.9818 47.2508 70.7273 48.4776 70.6698 49.6545C70.6393 50.2775 70.5679 50.9486 70.4832 51.583C70.4143 52.0988 70.3867 52.6078 70.2743 53.1241C69.9952 54.4056 69.738 55.7434 69.3161 56.9728C69.2317 57.2186 69.1149 57.4289 69.0164 57.6601C68.8494 58.0517 68.7015 58.4646 68.5383 58.8603C68.2527 59.5529 67.9029 60.1002 67.5922 60.7551" stroke="black" stroke-linecap="round"/>
<path d="M74.0654 55.8542C73.7836 55.9914 73.6002 56.1712 73.453 56.4418C73.323 56.6807 73.1515 56.9889 73.0934 57.2555C73.0492 57.4584 72.9854 57.6672 72.9616 57.8737C72.9258 58.1845 73.121 58.5454 73.1974 58.8456C73.3615 59.4903 73.8101 59.9982 74.1723 60.5455C74.582 61.1645 74.8136 61.9571 75.2789 62.5305" stroke="black" stroke-width="0.5" stroke-linecap="round"/>
<path d="M71.9382 55.4936C71.9224 56.7432 71.9697 57.9985 71.3018 59.1224C71.1035 59.4562 70.8771 59.8919 70.5497 60.1157C70.3623 60.2437 70.3079 60.5522 70.1007 60.6334" stroke="black" stroke-width="0.5" stroke-linecap="round"/>
<path d="M74.6998 50.3498C74.713 49.8461 74.8201 49.1869 75.03 48.7289C75.1883 48.3834 75.4955 48.1106 75.7126 47.806C75.8818 47.5686 76.1691 47.3931 76.3662 47.1732C76.618 46.8922 76.8729 46.7871 77.2012 46.6369" stroke="black" stroke-width="0.5" stroke-linecap="round"/>
<path d="M73.4886 49.3166C73.729 48.2127 73.8951 47.1209 73.6467 45.9996C73.4774 45.2354 72.7456 44.5238 72.1021 44.1415" stroke="black" stroke-width="0.5" stroke-linecap="round"/>
<path d="M82.9493 44.5031C83.4285 44.6337 83.6313 45.1261 83.6987 45.5897C83.7636 46.0359 83.7319 46.3269 83.6384 46.7563C83.5134 47.3305 82.8891 47.4008 82.5989 47.7611" stroke="black" stroke-width="0.5" stroke-linecap="round"/>
<path d="M80.0963 43.4715C79.9258 43.654 79.554 44.0255 79.2566 44.0039C78.9101 43.9787 78.2235 43.8796 77.9396 43.6915C77.5612 43.4407 77.1915 43.2284 76.9428 42.8246C76.8399 42.6575 76.7376 42.2868 76.5789 42.1925" stroke="black" stroke-width="0.5" stroke-linecap="round"/>
<path d="M81.7988 41.0722C81.8765 41.3106 81.9142 41.4845 81.8614 41.727C81.8328 41.8584 81.8228 42.2018 81.7115 42.2843C81.4397 42.4856 81.0699 42.9521 80.7142 42.9904" stroke="black" stroke-width="0.5" stroke-linecap="round"/>
<path d="M71.3174 41.1492C70.9842 41.8516 70.1751 42.1597 69.435 42.2554C68.5012 42.3761 67.6157 42.2924 66.7003 42.093" stroke="black" stroke-width="0.5" stroke-linecap="round"/>
<path d="M68.3118 43.8802C67.1765 44.6095 65.7839 44.2531 64.5447 43.9832" stroke="black" stroke-width="0.5" stroke-linecap="round"/>
<path d="M67.2509 47.4019C67.9279 47.5494 69.2556 48.1012 69.9332 47.7652C70.4502 47.5088 70.6309 46.9457 70.755 46.3756" stroke="black" stroke-linecap="round"/>
<path d="M73.1117 52.3067C73.3204 52.4582 73.5821 52.978 73.3271 53.216C73.1427 53.3881 72.801 53.2526 72.7619 53.008C72.7131 52.7029 73.0678 52.4681 73.2982 52.695C73.5048 52.8984 73.4359 53.1362 73.3693 53.3867C73.2728 53.7496 72.813 53.4499 72.7445 53.226C72.6633 52.9605 72.6742 52.0274 73.1527 52.1185C73.6496 52.2131 73.689 52.8872 73.5891 53.2703C73.44 53.8417 73.0197 53.5346 72.8698 53.141C72.817 53.0025 72.6461 52.2399 72.8991 52.1892C73.3281 52.1031 73.4064 52.9617 73.3976 53.2067C73.3902 53.4111 73.3277 54.1448 73.0419 53.7589C72.7603 53.3787 72.824 52.7146 73.084 52.3335C73.4578 51.7854 73.9553 54.2722 73.0755 53.7553C72.902 53.6533 72.8065 53.2751 72.7646 53.0962C72.6915 52.7847 72.7515 52.4311 72.9487 52.1753C73.05 52.044 73.1951 51.9007 73.3726 51.9008C73.6708 51.9009 73.6534 52.3232 73.6558 52.5237C73.6612 52.9777 73.6389 53.8482 73.2665 54.1856C72.7321 54.6698 72.4949 53.064 72.508 52.8158C72.523 52.5347 72.619 51.608 73.0988 51.7125C73.6127 51.8244 73.54 52.8499 73.4848 53.2585C73.43 53.665 73.1946 54.0534 72.8998 53.5062C72.5408 52.8399 72.5369 51.6944 72.9433 51.0434C73.0992 50.7937 73.382 50.6386 73.6081 50.9199C73.9587 51.3562 73.8148 52.1888 73.7696 52.6799C73.7201 53.2183 73.6583 53.9515 73.3679 54.424C73.2582 54.6025 72.954 54.4619 72.8614 54.311C72.3994 53.5576 72.5548 52.6981 72.9856 51.9808C73.062 51.8535 73.3461 51.3971 73.5417 51.464C73.7674 51.5411 73.8179 52.0802 73.8375 52.2676C73.8754 52.629 73.6721 54.6 73.036 53.6098C72.7012 53.0885 72.7583 52.2446 72.9608 51.6797C73.0252 51.5 73.1986 51.118 73.4252 51.0936" stroke="black" stroke-width="0.5" stroke-linecap="round"/>
<path d="M72.5917 47.9061L72.0384 50.4467" stroke="black" stroke-width="0.5" stroke-linecap="round"/>
<path d="M75.0674 46.7204C75.2685 46.2113 75.4219 45.8268 75.828 45.4405C76.2602 45.0294 76.7532 44.803 77.3042 44.5957" stroke="black" stroke-width="0.5" stroke-linecap="round"/>
<path d="M81.2886 46.8925C81.1784 47.3176 81.028 47.4027 80.5908 47.3811C80.2051 47.3621 79.5299 47.3285 79.2264 47.084" stroke="black" stroke-width="0.5" stroke-linecap="round"/>
<path d="M66.8476 60.4799C67.2397 59.7776 67.7061 59.209 67.9843 58.4618" stroke="black" stroke-width="0.5" stroke-linecap="round"/>
<path d="M67.1226 60.017C67.1676 58.9735 67.1987 58.1447 66.8704 57.1736" stroke="black" stroke-width="0.5" stroke-linecap="round"/>
<path d="M67.1225 60.017C67.0182 59.1482 66.8583 58.4916 66.3926 57.7667" stroke="black" stroke-width="0.5" stroke-linecap="round"/>
<path d="M79.2691 62.6622C79.3405 62.3345 79.455 60.9647 79.8341 60.8682" stroke="black" stroke-width="0.5" stroke-linecap="round"/>
<path d="M78.9365 62.5898C79.1103 61.7917 79.0893 61.2948 78.9646 60.5045C78.8968 60.0746 78.633 59.7725 78.5904 59.3773" stroke="black" stroke-width="0.5" stroke-linecap="round"/>
<path d="M78.3218 61.4102C78.1592 60.9402 78.0127 60.4834 77.7435 60.0643" stroke="black" stroke-width="0.5" stroke-linecap="round"/>
<path d="M53.5863 45.1447C53.0911 45.1625 52.2358 45.2431 51.819 44.8962C51.3436 44.5005 50.8184 44.1972 50.3341 43.8276C49.9983 43.5714 49.7276 43.4457 49.5307 43.0422C49.2454 42.4575 48.9028 41.9117 48.6161 41.3295C48.3127 40.7133 48.0757 40.1231 47.9209 39.453C47.7504 38.715 47.5274 38.0487 47.4533 37.2826C47.3677 36.3962 47.3166 35.5207 47.2846 34.6293C47.2482 33.6119 47.2816 32.2698 48.0289 31.4669" stroke="black" stroke-linecap="round"/>
<path d="M47.6648 32.1816C48.0004 32.3148 48.2548 32.5488 48.584 32.6943C48.9037 32.8357 49.2448 32.9306 49.5675 33.0662C50.514 33.4639 51.828 33.5583 52.6437 32.8564C53.0684 32.491 53.4352 32.221 53.414 31.6291C53.4123 31.5817 53.3822 31.2781 53.4463 31.3204C53.6485 31.4542 53.8085 31.5566 54.0548 31.6235C55.7861 32.0935 56.6377 29.105 56.7054 27.873C56.7441 27.168 55.9101 26.691 55.3059 26.5286C54.9909 26.4439 55.2733 26.4518 55.4415 26.4457C55.7362 26.4352 56.0446 26.4204 56.3249 26.3188C57.0656 26.0502 57.7945 24.8859 57.1616 24.1666C56.6922 23.633 55.993 23.7753 55.364 23.7979C55.0751 23.8082 54.7282 23.7678 54.4572 23.8737C54.277 23.9441 53.8816 23.9403 53.741 24.0726C53.4559 24.3406 54.3388 23.4628 54.3548 23.0717C54.373 22.6288 54.5348 21.9732 54.2192 21.5824C53.5818 20.793 52.8031 20.9565 51.8626 20.8439C51.1846 20.7627 50.4327 20.7002 49.7491 20.7247" stroke="black" stroke-linecap="round"/>
<path d="M49.0594 21.0612C48.3419 20.2667 47.5369 19.8684 46.4453 19.9075C45.9846 19.924 45.5104 19.9119 45.0531 19.9747C44.6182 20.0345 44.2166 20.1385 43.8086 20.2965C43.4875 20.4209 43.1123 20.4143 42.8043 20.5534C42.5024 20.6897 41.9664 20.9661 41.7814 21.257C41.6094 21.5274 41.5679 22.0389 41.3667 22.255C41.2379 22.3934 40.7958 22.113 40.6836 22.0456C40.0563 21.6691 38.9972 21.5167 38.2845 21.4516C37.4718 21.3773 36.6598 21.4275 35.8463 21.4566C35.276 21.4771 34.6007 21.417 34.0841 21.7147C33.63 21.9762 33.3473 22.5466 33.3135 23.0546C33.2663 23.7635 33.8762 24.1736 34.2974 24.6478C34.5777 24.9634 34.7445 25.1602 35.1728 25.1449C35.2549 25.1419 35.9544 25.1169 35.6356 25.1283C35.1628 25.1452 34.6908 24.994 34.2289 24.9102C33.4725 24.7729 32.8785 25.0959 32.267 25.5175C31.7393 25.8813 31.2789 26.2732 30.8295 26.7384C30.4396 27.142 30.0419 27.3931 29.8946 27.9673C29.5594 29.2741 30.6571 29.7361 31.763 29.8277C32.1735 29.8617 32.5536 29.7604 32.9598 29.7459C33.0251 29.7435 33.1288 29.6694 33.067 29.716C32.8854 29.8531 32.74 30.0432 32.5554 30.1848C31.8892 30.6958 31.2732 31.8502 31.164 32.6904C31.1304 32.9484 31.1751 33.2437 31.1844 33.5039C31.1977 33.8732 31.9744 33.9748 32.2253 34.0253C32.7729 34.1357 33.2237 34.414 33.789 34.3938C34.1978 34.3791 34.5317 34.2624 34.9139 34.1196C35.8005 33.7884 37.6494 33.4097 37.8431 32.2216" stroke="black" stroke-linecap="round"/>
<path d="M41.2842 30.6895C41.6439 31.761 41.7012 33.0126 41.9369 34.1671C42.0617 34.7783 42.1587 35.4461 42.2337 36.0818C42.2946 36.5986 42.394 37.0985 42.4129 37.6266C42.4598 38.9373 42.542 40.2972 42.4376 41.5927C42.4167 41.8518 42.3557 42.0844 42.3174 42.3328C42.2526 42.7535 42.2116 43.1902 42.1514 43.614C42.0463 44.3557 41.8429 44.9726 41.704 45.6841" stroke="black" stroke-linecap="round"/>
<path d="M46.7619 39.3329C46.5228 39.5356 46.3897 39.7553 46.3141 40.0539C46.2473 40.3175 46.1574 40.6586 46.1672 40.9313C46.1746 41.1388 46.1645 41.3569 46.1926 41.5629C46.2348 41.8729 46.5133 42.1742 46.6617 42.4461C46.9803 43.03 47.5407 43.4111 48.0272 43.8516C48.5774 44.3499 48.9981 45.0604 49.5909 45.5008" stroke="black" stroke-width="0.5" stroke-linecap="round"/>
<path d="M44.6116 39.5103C44.9058 40.7249 45.2625 41.9294 44.8937 43.1837C44.7842 43.5562 44.6728 44.0343 44.411 44.3322C44.2612 44.5027 44.2848 44.8151 44.1042 44.9451" stroke="black" stroke-width="0.5" stroke-linecap="round"/>
<path d="M46.0136 33.8428C45.9016 33.3516 45.8421 32.6864 45.9321 32.1907C45.9999 31.8167 46.23 31.4763 46.3649 31.1275C46.4701 30.8556 46.705 30.6144 46.8414 30.3525C47.0158 30.0179 47.2367 29.853 47.5176 29.6262" stroke="black" stroke-width="0.5" stroke-linecap="round"/>
<path d="M44.5842 33.1417C44.5437 32.0126 44.4342 30.9137 43.9159 29.8889C43.5627 29.1904 42.6774 28.6822 41.9593 28.4711" stroke="black" stroke-width="0.5" stroke-linecap="round"/>
<path d="M52.5583 26.1354C53.0549 26.1433 53.3733 26.5701 53.5534 27.0025C53.7267 27.4187 53.7682 27.7085 53.7839 28.1478C53.8049 28.735 53.2175 28.9577 53.0255 29.3787" stroke="black" stroke-width="0.5" stroke-linecap="round"/>
<path d="M49.5387 25.8424C49.4187 26.0615 49.1504 26.5135 48.8569 26.5662C48.515 26.6276 47.8253 26.7016 47.5036 26.5896C47.0749 26.4403 46.6642 26.3262 46.3232 25.9966C46.1821 25.8602 45.9912 25.5263 45.8141 25.4743" stroke="black" stroke-width="0.5" stroke-linecap="round"/>
<path d="M50.5939 23.0963C50.7282 23.308 50.8078 23.4672 50.8167 23.7152C50.8215 23.8496 50.8969 24.1848 50.8095 24.2922C50.596 24.5546 50.3532 25.0981 50.0181 25.2234" stroke="black" stroke-width="0.5" stroke-linecap="round"/>
<path d="M40.4581 25.7664C40.3093 26.5294 39.6016 27.0283 38.9083 27.3043C38.0335 27.6525 37.1549 27.7906 36.2186 27.8241" stroke="black" stroke-width="0.5" stroke-linecap="round"/>
<path d="M38.2224 29.1567C37.3031 30.1443 35.8656 30.1439 34.5982 30.1893" stroke="black" stroke-width="0.5" stroke-linecap="round"/>
<path d="M38.0666 32.8314C38.759 32.8066 40.182 33.0124 40.7553 32.5191C41.1927 32.1427 41.2283 31.5524 41.2074 30.9693" stroke="black" stroke-linecap="round"/>
<path d="M44.9595 36.132C45.1992 36.2272 45.5815 36.666 45.3933 36.9597C45.2573 37.1721 44.8927 37.1254 44.7942 36.8982C44.6714 36.6146 44.9569 36.2993 45.2363 36.4621C45.4868 36.608 45.479 36.8555 45.4765 37.1146C45.4729 37.4901 44.9532 37.3136 44.8314 37.1137C44.687 36.8766 44.4664 35.9698 44.9526 35.9396C45.4575 35.9082 45.6626 36.5515 45.6606 36.9474C45.6576 37.538 45.1744 37.3445 44.9317 37.0003C44.8463 36.8792 44.4918 36.1827 44.7244 36.0709C45.1187 35.8813 45.4072 36.6938 45.4593 36.9332C45.5028 37.1331 45.6239 37.8595 45.2514 37.5563C44.8845 37.2578 44.7818 36.5985 44.9393 36.1649C45.1657 35.5413 46.2635 37.8275 45.2831 37.5445C45.0898 37.4887 44.9036 37.1459 44.8187 36.983C44.6708 36.6993 44.6413 36.3418 44.769 36.0452C44.8346 35.8928 44.9398 35.7181 45.1117 35.6742C45.4006 35.6005 45.4884 36.014 45.5404 36.2076C45.658 36.6461 45.852 37.495 45.5748 37.9142C45.1769 38.5156 44.5494 37.0186 44.5007 36.7748C44.4455 36.4987 44.3091 35.5772 44.7998 35.5596C45.3255 35.5407 45.509 36.5523 45.5567 36.9619C45.6042 37.3693 45.4723 37.8038 45.0512 37.3467C44.5383 36.79 44.2509 35.6812 44.4835 34.9499C44.5727 34.6694 44.8083 34.449 45.097 34.6656C45.5447 35.0014 45.6115 35.8437 45.6893 36.3307C45.7747 36.8647 45.8964 37.5903 45.732 38.12C45.6699 38.3202 45.3404 38.2593 45.2133 38.1359C44.5791 37.5205 44.5169 36.6492 44.7566 35.8475C44.7991 35.7053 44.9613 35.1928 45.1673 35.2091C45.4051 35.228 45.5876 35.7377 45.653 35.9145C45.7792 36.2552 46.0703 38.2152 45.2088 37.4133C44.7553 36.9912 44.6017 36.1595 44.658 35.562C44.6759 35.3719 44.7493 34.9589 44.9628 34.8792" stroke="black" stroke-width="0.5" stroke-linecap="round"/>
<path d="M43.366 31.9973L43.4591 34.5958" stroke="black" stroke-width="0.5" stroke-linecap="round"/>
<path d="M45.4708 30.2355C45.5396 29.6925 45.593 29.2819 45.8908 28.8071C46.2077 28.3018 46.6293 27.9604 47.1118 27.623" stroke="black" stroke-width="0.5" stroke-linecap="round"/>
<path d="M51.5409 28.8616C51.5394 29.3009 51.4148 29.4205 50.9859 29.5079C50.6075 29.585 49.945 29.7196 49.5904 29.5579" stroke="black" stroke-width="0.5" stroke-linecap="round"/>
<path d="M40.9144 45.602C41.1203 44.8245 41.4314 44.158 41.5159 43.3652" stroke="black" stroke-width="0.5" stroke-linecap="round"/>
<path d="M41.0662 45.0854C40.8513 44.0632 40.6763 43.2525 40.1177 42.3929" stroke="black" stroke-width="0.5" stroke-linecap="round"/>
<path d="M41.0662 45.0853C40.75 44.2695 40.4324 43.6728 39.8018 43.0858" stroke="black" stroke-width="0.5" stroke-linecap="round"/>
<path d="M53.4894 44.6403C53.4774 44.305 53.2491 42.9495 53.5925 42.7621" stroke="black" stroke-width="0.5" stroke-linecap="round"/>
<path d="M53.1493 44.6525C53.12 43.8362 52.9766 43.3599 52.6601 42.6252C52.488 42.2254 52.1576 41.9981 52.0185 41.6258" stroke="black" stroke-width="0.5" stroke-linecap="round"/>
<path d="M52.2617 43.6619C51.9877 43.2468 51.7327 42.8404 51.3681 42.5011" stroke="black" stroke-width="0.5" stroke-linecap="round"/>
<path d="M41.5124 70.9815C41.6067 69.9838 41.5801 69.6026 41.3817 68.7455" stroke="black" stroke-width="0.5" stroke-linecap="round"/>
<path d="M41.698 70.828C41.9216 70.3527 42.3891 69.4171 42.8755 69.2288" stroke="black" stroke-width="0.5" stroke-linecap="round"/>
<path d="M41.698 70.828C42.3538 70.58 43.1106 70.4409 43.6591 69.9871" stroke="black" stroke-width="0.5" stroke-linecap="round"/>
<path d="M64.1546 62.0733C64.2489 61.0755 64.3465 60.7061 64.702 59.9014" stroke="black" stroke-width="0.5" stroke-linecap="round"/>
<path d="M64.001 61.8877C63.8704 61.3789 63.5865 60.3723 63.144 60.0961" stroke="black" stroke-width="0.5" stroke-linecap="round"/>
<path d="M64.001 61.8877C63.4033 61.5212 62.686 61.2427 62.2323 60.6942" stroke="black" stroke-width="0.5" stroke-linecap="round"/>
<path d="M57.9263 88.6048C58.0207 87.6071 57.9941 87.2259 57.7957 86.3688" stroke="black" stroke-width="0.5" stroke-linecap="round"/>
<path d="M58.112 88.4513C58.3357 87.9761 58.8032 87.0405 59.2896 86.8522" stroke="black" stroke-width="0.5" stroke-linecap="round"/>
<path d="M58.1121 88.4513C58.7678 88.2033 59.5246 88.0642 60.0731 87.6104" stroke="black" stroke-width="0.5" stroke-linecap="round"/>
<path d="M48.6165 77.68C48.7108 76.6822 48.8084 76.3128 49.1639 75.5081" stroke="black" stroke-width="0.5" stroke-linecap="round"/>
<path d="M48.4629 77.4944C48.3323 76.9856 48.0484 75.979 47.606 75.7028" stroke="black" stroke-width="0.5" stroke-linecap="round"/>
<path d="M48.4629 77.4944C47.8652 77.1279 47.1479 76.8494 46.6942 76.3008" stroke="black" stroke-width="0.5" stroke-linecap="round"/>
<path d="M29.0437 45.2138C29.0437 44.2116 29.1061 43.8346 29.3843 43" stroke="black" stroke-width="0.5" stroke-linecap="round"/>
<path d="M28.8733 45.0435C28.6954 44.5493 28.318 43.5738 27.8515 43.3406" stroke="black" stroke-width="0.5" stroke-linecap="round"/>
<path d="M28.8733 45.0435C28.2438 44.7349 27.5034 44.5251 27.0001 44.0217" stroke="black" stroke-width="0.5" stroke-linecap="round"/>
<path d="M7.34058 34.2138C7.34058 33.2116 7.27821 32.8346 7 32" stroke="black" stroke-width="0.5" stroke-linecap="round"/>
<path d="M7.51099 34.0435C7.68889 33.5493 8.06623 32.5738 8.53274 32.3406" stroke="black" stroke-width="0.5" stroke-linecap="round"/>
<path d="M7.51099 34.0435C8.1405 33.7349 8.88083 33.5251 9.3842 33.0217" stroke="black" stroke-width="0.5" stroke-linecap="round"/>
<path d="M11.0437 61.2138C11.0437 60.2116 11.1061 59.8346 11.3843 59" stroke="black" stroke-width="0.5" stroke-linecap="round"/>
<path d="M10.8733 61.0435C10.6954 60.5493 10.318 59.5738 9.85154 59.3406" stroke="black" stroke-width="0.5" stroke-linecap="round"/>
<path d="M10.8733 61.0435C10.2438 60.7349 9.50344 60.5251 9.00008 60.0217" stroke="black" stroke-width="0.5" stroke-linecap="round"/>
<path d="M21.3406 51.2138C21.3406 50.2116 21.2782 49.8346 21 49" stroke="black" stroke-width="0.5" stroke-linecap="round"/>
<path d="M21.511 51.0435C21.6889 50.5493 22.0662 49.5738 22.5327 49.3406" stroke="black" stroke-width="0.5" stroke-linecap="round"/>
<path d="M21.511 51.0435C22.1405 50.7349 22.8808 50.5251 23.3842 50.0217" stroke="black" stroke-width="0.5" stroke-linecap="round"/>
<path d="M100.044 80.2138C100.044 79.2116 100.106 78.8346 100.384 78" stroke="black" stroke-width="0.5" stroke-linecap="round"/>
<path d="M99.8733 80.0435C99.6954 79.5493 99.318 78.5738 98.8515 78.3406" stroke="black" stroke-width="0.5" stroke-linecap="round"/>
<path d="M99.8733 80.0435C99.2438 79.7349 98.5034 79.5251 98.0001 79.0217" stroke="black" stroke-width="0.5" stroke-linecap="round"/>
<path d="M78.3406 69.2138C78.3406 68.2116 78.2782 67.8346 78 67" stroke="black" stroke-width="0.5" stroke-linecap="round"/>
<path d="M78.511 69.0435C78.6889 68.5493 79.0662 67.5738 79.5327 67.3406" stroke="black" stroke-width="0.5" stroke-linecap="round"/>
<path d="M78.511 69.0435C79.1405 68.7349 79.8808 68.5251 80.3842 68.0217" stroke="black" stroke-width="0.5" stroke-linecap="round"/>
<path d="M82.0437 96.2138C82.0437 95.2116 82.1061 94.8346 82.3843 94" stroke="black" stroke-width="0.5" stroke-linecap="round"/>
<path d="M81.8733 96.0435C81.6954 95.5493 81.318 94.5738 80.8515 94.3406" stroke="black" stroke-width="0.5" stroke-linecap="round"/>
<path d="M81.8733 96.0435C81.2438 95.7349 80.5034 95.5251 80.0001 95.0217" stroke="black" stroke-width="0.5" stroke-linecap="round"/>
<path d="M92.3406 86.2138C92.3406 85.2116 92.2782 84.8346 92 84" stroke="black" stroke-width="0.5" stroke-linecap="round"/>
<path d="M92.511 86.0435C92.6889 85.5493 93.0662 84.5738 93.5327 84.3406" stroke="black" stroke-width="0.5" stroke-linecap="round"/>
<path d="M92.511 86.0435C93.1405 85.7349 93.8808 85.5251 94.3842 85.0217" stroke="black" stroke-width="0.5" stroke-linecap="round"/>
<path d="M18.5761 43.7246C18.49 43.2835 18.324 42.9106 18.5761 42.5326" stroke="black" stroke-width="0.5" stroke-linecap="round"/>
<path d="M18.0651 43.895C17.7546 43.0992 17.0921 41.3001 16.1919 41" stroke="black" stroke-width="0.5" stroke-linecap="round"/>
<path d="M17.8949 43.8949C17.8949 43.2104 17.7553 42.301 18.0652 41.6812" stroke="black" stroke-width="0.5" stroke-linecap="round"/>
<path d="M15.6812 51.8987C15.6502 51.1404 15.4842 50.7606 15 50.1957" stroke="black" stroke-width="0.5" stroke-linecap="round"/>
<path d="M16.1918 51.2175C16.1918 50.7043 16.0718 50.1204 16.3621 49.6849" stroke="black" stroke-width="0.5" stroke-linecap="round"/>
<path d="M15.6812 51.8987C16.2086 51.2771 16.8899 50.9794 17.5544 50.5364" stroke="black" stroke-width="0.5" stroke-linecap="round"/>
<path d="M31.0075 54.9639C31.0075 54.2798 30.9988 53.7372 30.8372 53.0907" stroke="black" stroke-width="0.5" stroke-linecap="round"/>
<path d="M30.8372 54.964C31.1148 54.5863 31.4873 54.1746 31.6886 53.7719" stroke="black" stroke-width="0.5" stroke-linecap="round"/>
<path d="M31.0072 54.7937C30.5996 54.5451 30.2015 54.1354 29.8152 53.9422" stroke="black" stroke-width="0.5" stroke-linecap="round"/>
<path d="M31.879 70.2432C31.996 69.8093 32.0112 69.4014 32.404 69.173" stroke="black" stroke-width="0.5" stroke-linecap="round"/>
<path d="M31.3453 70.1711C31.4169 69.32 31.6145 67.4129 30.9385 66.7471" stroke="black" stroke-width="0.5" stroke-linecap="round"/>
<path d="M31.1923 70.0961C31.4938 69.4815 31.7689 68.6036 32.3202 68.1836" stroke="black" stroke-width="0.5" stroke-linecap="round"/>
<path d="M25.68 76.3069C25.9862 75.6125 26.0044 75.1984 25.8185 74.478" stroke="black" stroke-width="0.5" stroke-linecap="round"/>
<path d="M26.4384 75.9203C26.6644 75.4595 26.8138 74.8824 27.2663 74.6193" stroke="black" stroke-width="0.5" stroke-linecap="round"/>
<path d="M25.6799 76.307C26.4272 75.9811 27.17 76.0139 27.9617 75.9088" stroke="black" stroke-width="0.5" stroke-linecap="round"/>
<path d="M38.0899 85.8088C38.3911 85.1946 38.6223 84.7036 38.762 84.052" stroke="black" stroke-width="0.5" stroke-linecap="round"/>
<path d="M37.937 85.7338C38.3527 85.517 38.8683 85.3114 39.2265 85.0386" stroke="black" stroke-width="0.5" stroke-linecap="round"/>
<path d="M38.1647 85.6558C37.9082 85.2531 37.7312 84.7099 37.4695 84.3664" stroke="black" stroke-width="0.5" stroke-linecap="round"/>
<path d="M48.5761 53.7246C48.49 53.2835 48.324 52.9106 48.5761 52.5326" stroke="black" stroke-width="0.5" stroke-linecap="round"/>
<path d="M48.0651 53.895C47.7546 53.0992 47.0921 51.3001 46.1919 51" stroke="black" stroke-width="0.5" stroke-linecap="round"/>
<path d="M47.8949 53.8949C47.8949 53.2104 47.7553 52.301 48.0652 51.6812" stroke="black" stroke-width="0.5" stroke-linecap="round"/>
<path d="M42.0349 64.9444C41.7375 64.2461 41.4479 63.9497 40.795 63.5928" stroke="black" stroke-width="0.5" stroke-linecap="round"/>
<path d="M46.1918 61.2175C46.1918 60.7043 46.0718 60.1204 46.3621 59.6849" stroke="black" stroke-width="0.5" stroke-linecap="round"/>
<path d="M45.6812 61.8987C46.2086 61.2771 46.8899 60.9794 47.5544 60.5364" stroke="black" stroke-width="0.5" stroke-linecap="round"/>
<path d="M61.0075 64.9639C61.0075 64.2798 60.9988 63.7372 60.8372 63.0907" stroke="black" stroke-width="0.5" stroke-linecap="round"/>
<path d="M60.8372 64.964C61.1148 64.5863 61.4873 64.1746 61.6886 63.7719" stroke="black" stroke-width="0.5" stroke-linecap="round"/>
<path d="M61.0072 64.7937C60.5996 64.5451 60.2015 64.1354 59.8152 63.9422" stroke="black" stroke-width="0.5" stroke-linecap="round"/>
<path d="M18.5761 43.7246C18.49 43.2835 18.324 42.9106 18.5761 42.5326" stroke="black" stroke-width="0.5" stroke-linecap="round"/>
<path d="M18.0651 43.895C17.7546 43.0992 17.0921 41.3001 16.1919 41" stroke="black" stroke-width="0.5" stroke-linecap="round"/>
<path d="M17.8949 43.8949C17.8949 43.2104 17.7553 42.301 18.0652 41.6812" stroke="black" stroke-width="0.5" stroke-linecap="round"/>
<path d="M15.6812 51.8987C15.6502 51.1404 15.4842 50.7606 15 50.1957" stroke="black" stroke-width="0.5" stroke-linecap="round"/>
<path d="M16.1918 51.2175C16.1918 50.7043 16.0718 50.1204 16.3621 49.6849" stroke="black" stroke-width="0.5" stroke-linecap="round"/>
<path d="M15.6812 51.8987C16.2086 51.2771 16.8899 50.9794 17.5544 50.5364" stroke="black" stroke-width="0.5" stroke-linecap="round"/>
<path d="M31.0075 54.9639C31.0075 54.2798 30.9988 53.7372 30.8372 53.0907" stroke="black" stroke-width="0.5" stroke-linecap="round"/>
<path d="M30.8372 54.964C31.1148 54.5863 31.4873 54.1746 31.6886 53.7719" stroke="black" stroke-width="0.5" stroke-linecap="round"/>
<path d="M31.0072 54.7937C30.5996 54.5451 30.2015 54.1354 29.8152 53.9422" stroke="black" stroke-width="0.5" stroke-linecap="round"/>
<path d="M7.84058 5.51609C8.19306 5.05516 8.99819 4.48858 9.61065 4.7781C10.2346 5.07306 10.5981 5.54058 10.8758 6.1653C11.0074 6.46149 11.0638 6.77133 11.1255 7.10305C11.1517 7.24392 11.1938 7.73894 11.2753 7.28616C11.3171 7.05387 11.2873 6.82286 11.3363 6.58979C11.4359 6.11689 11.7526 5.71763 12.1354 5.44119C12.4868 5.18738 13.0191 4.61719 13.4837 4.61719C13.8589 4.61719 14.112 4.73739 14.4575 4.81417C14.6269 4.85182 14.9223 5.18752 14.9819 5.36628" stroke="black" stroke-width="0.5" stroke-linecap="round"/>
<path d="M20.7202 11.9185C20.8255 11.6583 20.9751 11.1349 21.2293 10.9655C21.462 10.8103 21.6796 10.6937 21.9475 10.6044C22.2181 10.5142 22.5774 10.3757 22.8669 10.4446C23.082 10.4958 23.2024 10.7385 23.2694 10.9319C23.3382 11.1307 23.3958 11.3451 23.4371 11.5515C23.469 11.7107 23.4559 11.9129 23.518 12.0605C23.5465 12.1282 23.5193 12.2654 23.5654 12.3229C23.6503 12.4291 23.6853 12.0756 23.7114 11.9421C23.7979 11.5 23.9785 10.853 24.5361 10.853C24.7492 10.853 25.024 10.8068 25.2286 10.8708C25.3881 10.9206 25.4386 10.9681 25.5779 11.0661C25.7305 11.1735 25.8382 11.6344 25.9764 11.6344" stroke="black" stroke-width="0.5" stroke-linecap="round"/>
<path d="M23.7389 5.70339C23.9433 5.50496 24.139 5.28469 24.3565 5.10161C24.5099 4.97238 24.6728 4.78 24.8912 4.78C25.2156 4.78 25.4758 4.66171 25.6883 5.0069C25.8238 5.22712 26.1307 5.46567 26.1875 5.72115C26.2245 5.88787 26.2673 6.04772 26.2979 6.21638C26.3196 6.33576 26.367 6.06019 26.367 6.03092C26.367 5.92238 26.3582 5.80946 26.369 5.70142C26.4004 5.38739 26.6032 5.08698 26.8287 4.88654C27.0366 4.70176 27.4668 4.78 27.7245 4.78C28.0457 4.78 28.3825 4.82669 28.6755 4.96547C28.791 5.02018 28.925 5.10445 28.9872 5.22196C29.0255 5.29435 29.1369 5.45466 29.2082 5.4903" stroke="black" stroke-width="0.5" stroke-linecap="round"/>
<path d="M71.0605 7.37367C71.3059 7.06142 72.179 4.91294 72.8991 5.29192C73.3181 5.51243 73.3921 6.05569 73.58 6.41062C73.7131 6.66201 74.0499 5.46611 74.1686 5.32111C74.3981 5.04059 74.4833 4.83472 74.869 4.83472C75.2149 4.83472 75.5494 5.27015 75.618 5.57889C75.6671 5.79994 76.1129 6.04459 76.2649 6.19661C76.4592 6.39084 76.6025 6.61197 76.8389 6.84837" stroke="black" stroke-width="0.5" stroke-linecap="round"/>
</g>
<defs>
<clipPath id="clip0_68_219">
<rect width="100" height="100" fill="white"/>
</clipPath>
</defs>
</svg>
