<svg width="100" height="100" viewBox="0 0 100 100" fill="none" xmlns="http://www.w3.org/2000/svg">
<rect width="100" height="100" fill="white"/>
<path d="M80.175 7.6129L62.325 5L60.8375 5.21505L57.0217 11.2366M80.175 7.6129L77.2 13.6022M80.175 7.6129L83.3625 13.172L84 22.6344L81.6625 23.3997M77.2 13.6022L57.0217 11.2366M77.2 13.6022L76.775 25M57.0217 11.2366V13.7971M76.775 25L64.45 23.2796M76.775 25L79.6475 24.0595M64.45 23.2796V18.7634M64.45 23.2796L57.65 24.5699M64.45 18.7634L60.2 13.6022L57.0217 13.7971M64.45 18.7634L57.65 20.0538M53.1875 14.0323L57.65 20.0538M53.1875 14.0323L57.0217 13.7971M53.1875 14.0323L50 18.5484V22.6344L57.65 24.5699M57.65 20.0538V24.5699M81.6625 23.3997V19.6237L79.5375 20.0538L79.6475 24.0595M81.6625 23.3997L79.6475 24.0595M81.6625 13.6022L81.875 15.5376L79.6475 15.9677L79.5375 13.7971L81.6625 13.6022ZM74.0125 15.9677L72.1 15.3226L71.8875 17.2581L74.0125 17.9032V15.9677ZM69.3375 14.8925V17.2581L67 17.043V15.3226L69.3375 14.8925ZM54.25 19.6237V20.6989L52.55 20.2688V19.1935L54.25 19.6237Z" stroke="black"/>
<path d="M56.275 45.8742L76.225 43L77.8875 43.2366L82.1522 49.8602M56.275 45.8742L59.6 52.4624M56.275 45.8742L52.7125 51.9892L52 62.3978L54.6125 63.2397M59.6 52.4624L82.1522 49.8602M59.6 52.4624L60.075 65M82.1522 49.8602V52.6768M60.075 65L73.85 63.1075M60.075 65L56.8645 63.9654M73.85 63.1075V58.1398M73.85 63.1075L81.45 64.5269M73.85 58.1398L78.6 52.4624L82.1522 52.6768M73.85 58.1398L81.45 59.5591M86.4375 52.9355L81.45 59.5591M86.4375 52.9355L82.1522 52.6768M86.4375 52.9355L90 57.9032V62.3978L81.45 64.5269M81.45 59.5591V64.5269M54.6125 63.2397V59.086L56.9875 59.5591L56.8645 63.9654M54.6125 63.2397L56.8645 63.9654M54.6125 52.4624L54.375 54.5914L56.8645 55.0645L56.9875 52.6768L54.6125 52.4624ZM63.1625 55.0645L65.3 54.3548L65.5375 56.4839L63.1625 57.1935V55.0645ZM68.3875 53.8817V56.4839L71 56.2473V54.3548L68.3875 53.8817ZM85.25 59.086V60.2688L87.15 59.7957V58.6129L85.25 59.086Z" stroke="black"/>
<path d="M43.8634 52.0513L41.7267 52.4222M43.8634 52.0513L39.0559 52.8859M43.8634 52.0513L46 53.906M43.8634 52.0513L44.6762 44.6325L45.1988 39.8632L40.6584 32.9744M40.6584 32.9744L33.7143 29L30.5093 34.2991M40.6584 32.9744L38.3163 36.1538M35.5839 39.8632L18.4907 43.3077M35.5839 39.8632L30.5093 34.2991M35.5839 39.8632L36.1694 39.0684M18.4907 43.3077L17.6894 56.0256M18.4907 43.3077L15.0186 37.4786M17.6894 56.0256L33.1801 53.906L39.0559 52.8859M17.6894 56.0256L11.8137 52.0513V40.6581L15.0186 37.4786M15.0186 37.4786L30.5093 34.2991M41.7267 52.4222V47.2821L39.0559 48.0769V52.8859M41.7267 52.4222L39.0559 52.8859M39.0559 52.8859L42.795 55.2308L17.1553 60L3 49.6667L10.7453 47.2821M36.6522 32.4444L38.3163 36.1538M38.3163 36.1538L37.3404 37.4786M34.7826 32.1795L37.3404 37.4786M37.3404 37.4786L36.1694 39.0684M32.913 32.1795L36.1694 39.0684M41.9938 39.0684V41.453H39.8571V39.0684L41.7267 38.5385L41.9938 39.0684ZM35.3168 44.6325L32.913 44.8974V47.2821H35.3168V44.6325ZM29.7081 44.8974L30.2422 45.9573V47.2821L27.5714 47.812L27.0373 45.4274L29.7081 44.8974Z" stroke="black"/>
<rect x="79" y="44" width="14" height="34" fill="white"/>
<path d="M12.106 26.8863C12.6016 26.8863 13.4592 26.9363 13.8633 26.5747C14.3242 26.1623 14.8382 25.8403 15.3089 25.4537C15.6354 25.1855 15.9014 25.0502 16.0837 24.6399C16.3479 24.0454 16.6707 23.4877 16.9364 22.8956C17.2176 22.269 17.4333 21.6706 17.564 20.9955C17.708 20.2518 17.907 19.5779 17.9536 18.8096C18.0074 17.9208 18.0271 17.044 18.0271 16.152C18.0271 15.134 17.9458 13.7939 17.1701 13.0183" stroke="black" stroke-linecap="round"/>
<path d="M17.5597 13.7195C17.229 13.8647 16.9831 14.1076 16.6594 14.2649C16.345 14.4176 16.0075 14.5247 15.6898 14.6717C14.7582 15.1031 13.4484 15.2445 12.608 14.5722C12.1706 14.2222 11.7943 13.9655 11.7943 13.3732C11.7943 13.3258 11.8135 13.0213 11.751 13.0659C11.5537 13.2068 11.3975 13.3149 11.1537 13.3906C9.44043 13.9223 8.4823 10.9662 8.37059 9.73743C8.30666 9.0342 9.12306 8.52769 9.72104 8.3437C10.0328 8.24778 9.75083 8.26579 9.58253 8.26579C9.28769 8.26579 8.97897 8.2621 8.69522 8.17057C7.9454 7.92869 7.17527 6.79115 7.78193 6.04967C8.232 5.49959 8.93586 5.61684 9.56522 5.61684C9.85433 5.61684 10.1995 5.56399 10.4742 5.66012C10.6568 5.72404 11.0517 5.70615 11.197 5.83326C11.4915 6.09096 10.5778 5.24525 10.5478 4.85505C10.5138 4.41305 10.3286 3.76361 10.63 3.36177C11.2387 2.55014 12.0228 2.68561 12.9586 2.53938C13.6332 2.43397 14.3825 2.3446 15.0665 2.3446" stroke="black" stroke-linecap="round"/>
<path d="M15.7678 2.65622C16.4564 1.83651 17.2466 1.40965 18.3389 1.40965C18.7999 1.40965 19.2734 1.38053 19.7326 1.42696C20.1694 1.47113 20.5744 1.56067 20.9878 1.70398C21.3132 1.81678 21.6879 1.7968 22.0006 1.92472C22.3073 2.05017 22.8528 2.30717 23.0481 2.59129C23.2297 2.8554 23.2895 3.36508 23.4983 3.57383C23.6319 3.70748 24.0637 3.41143 24.1735 3.3401C24.7869 2.94138 25.8398 2.75117 26.5497 2.66054C27.3592 2.5572 28.1726 2.57831 28.9866 2.57831C29.5572 2.57831 30.2299 2.49409 30.7569 2.77308C31.22 3.01825 31.523 3.57816 31.575 4.08457C31.6474 4.79133 31.0527 5.22296 30.6487 5.71203C30.3799 6.03747 30.2203 6.24009 29.7917 6.24009C29.7095 6.24009 29.0096 6.24009 29.3285 6.24009C29.8017 6.24009 30.2679 6.07207 30.7266 5.97173C31.4775 5.80747 32.0828 6.10898 32.709 6.50845C33.2493 6.85314 33.7235 7.22823 34.1893 7.6771C34.5934 8.06647 34.9997 8.30322 35.1675 8.87173C35.5493 10.1657 34.4689 10.6667 33.3669 10.7978C32.9579 10.8465 32.5744 10.7589 32.1679 10.7589C32.1027 10.7589 31.9964 10.6886 32.0597 10.7329C32.2462 10.8634 32.3982 11.0482 32.5878 11.1831C33.2719 11.6699 33.9288 12.8015 34.0681 13.6372C34.1109 13.8939 34.0767 14.1906 34.0767 14.451C34.0767 14.8205 33.3042 14.9498 33.0553 15.0093C32.5119 15.1393 32.0714 15.4335 31.5057 15.4335C31.0967 15.4335 30.7587 15.3288 30.3717 15.1998C29.4739 14.9005 27.6126 14.5883 27.3765 13.4078" stroke="black" stroke-linecap="round"/>
<path d="M23.8827 12C23.5616 13.0837 23.5492 14.3366 23.355 15.4988C23.2522 16.114 23.1791 16.7849 23.1269 17.4228C23.0845 17.9415 23.0031 18.4447 23.0031 18.973C23.0031 20.2846 22.9698 21.6465 23.1204 22.9375C23.1506 23.1957 23.2199 23.426 23.267 23.6728C23.3468 24.091 23.4035 24.5259 23.4788 24.9473C23.6104 25.6848 23.8358 26.2939 24 27" stroke="black" stroke-linecap="round"/>
<path d="M18.7179 20.834C18.9641 21.028 19.105 21.2427 19.1913 21.5385C19.2674 21.7995 19.3695 22.1372 19.3695 22.41C19.3695 22.6177 19.3874 22.8352 19.3667 23.0421C19.3356 23.3534 19.068 23.6645 18.9295 23.9415C18.632 24.5365 18.0856 24.9374 17.6152 25.3951C17.0832 25.9127 16.6882 26.6379 16.1116 27.0992" stroke="black" stroke-width="0.5" stroke-linecap="round"/>
<path d="M20.8732 20.9342C20.6228 22.1586 20.3094 23.3751 20.7228 24.6154C20.8456 24.9837 20.974 25.4576 21.2463 25.7459C21.4022 25.9109 21.3898 26.2239 21.5749 26.3474" stroke="black" stroke-width="0.5" stroke-linecap="round"/>
<path d="M19.2693 15.3206C19.3635 14.8256 19.3992 14.1587 19.2915 13.6665C19.2103 13.2953 18.9683 12.9633 18.8209 12.6196C18.7061 12.3516 18.4627 12.119 18.3169 11.8622C18.1307 11.534 17.9041 11.3771 17.6152 11.1605" stroke="black" stroke-width="0.5" stroke-linecap="round"/>
<path d="M20.6726 14.5688C20.6726 13.439 20.7427 12.3369 21.2239 11.2941C21.552 10.5835 22.4185 10.0439 23.1286 9.80719" stroke="black" stroke-width="0.5" stroke-linecap="round"/>
<path d="M12.4528 7.85242C11.9568 7.87807 11.6539 8.31604 11.4894 8.75461C11.3311 9.17679 11.3 9.46787 11.3 9.90741C11.3 10.495 11.8951 10.6965 12.102 11.1103" stroke="black" stroke-width="0.5" stroke-linecap="round"/>
<path d="M15.46 7.45147C15.5877 7.66613 15.872 8.10822 16.1672 8.15039C16.5112 8.19952 17.2031 8.24879 17.5205 8.12533C17.9436 7.96081 18.35 7.83201 18.6789 7.49046C18.815 7.34908 18.9939 7.00862 19.169 6.95026" stroke="black" stroke-width="0.5" stroke-linecap="round"/>
<path d="M14.3071 4.74487C14.1804 4.96129 14.1066 5.12321 14.1066 5.37139C14.1066 5.50585 14.0433 5.84354 14.1345 5.94779C14.3572 6.20235 14.6193 6.73686 14.9587 6.84999" stroke="black" stroke-width="0.5" stroke-linecap="round"/>
<path d="M24.532 7.05048C24.7081 7.80766 25.4331 8.28086 26.1359 8.53185C27.0226 8.84853 27.9056 8.9551 28.8425 8.9551" stroke="black" stroke-width="0.5" stroke-linecap="round"/>
<path d="M26.8877 10.3585C27.8418 11.3126 29.2783 11.2607 30.5466 11.2607" stroke="black" stroke-width="0.5" stroke-linecap="round"/>
<path d="M27.175 14.0253C26.4821 14.0253 25.0674 14.2819 24.4767 13.8094C24.0262 13.449 23.9695 12.8603 23.9695 12.2769" stroke="black" stroke-linecap="round"/>
<path d="M20.4046 17.5706C20.1685 17.6743 19.8021 18.1265 20.0007 18.4132C20.1443 18.6206 20.507 18.561 20.5972 18.3303C20.7098 18.0426 20.4132 17.7377 20.1398 17.9103C19.8947 18.0651 19.9113 18.3122 19.9231 18.5711C19.9401 18.9462 20.4532 18.7512 20.5678 18.547C20.7036 18.3049 20.8916 17.3908 20.4046 17.378C19.8989 17.3647 19.717 18.015 19.7332 18.4106C19.7573 19.0007 20.2333 18.79 20.4635 18.4373C20.5445 18.3132 20.8738 17.6045 20.6373 17.501C20.2365 17.3257 19.9773 18.148 19.9338 18.3892C19.8975 18.5904 19.8024 19.3207 20.1639 19.0044C20.5199 18.6929 20.5989 18.0304 20.426 17.6027C20.1774 16.9877 19.1621 19.3117 20.1318 18.9937C20.323 18.931 20.4968 18.5818 20.5758 18.4159C20.7135 18.1271 20.7301 17.7688 20.5919 17.477C20.5209 17.3271 20.4095 17.1562 20.2361 17.1185C19.9447 17.0552 19.8718 17.4715 19.8268 17.6669C19.7249 18.1093 19.5614 18.9647 19.8535 19.3736C20.2727 19.9604 20.8462 18.4419 20.8861 18.1966C20.9314 17.9187 21.0348 16.9928 20.5437 16.9928C20.0177 16.9928 19.8705 18.0103 19.8375 18.4213C19.8046 18.8301 19.952 19.2597 20.3565 18.7878C20.849 18.2131 21.0966 17.0947 20.838 16.3722C20.7388 16.095 20.4954 15.8832 20.2147 16.11C19.7793 16.4617 19.7427 17.3058 19.6823 17.7953C19.6162 18.3319 19.5205 19.0615 19.7037 19.5849C19.773 19.7827 20.1001 19.7101 20.2227 19.5823C20.8344 18.9445 20.8655 18.0716 20.5972 17.279C20.5496 17.1384 20.3691 16.632 20.1639 16.6557C19.9269 16.6831 19.7628 17.199 19.7037 17.378C19.5898 17.723 19.3691 19.6922 20.2013 18.86C20.6394 18.4219 20.7631 17.5852 20.6855 16.9901C20.6608 16.8008 20.5727 16.3907 20.3565 16.3187" stroke="black" stroke-width="0.5" stroke-linecap="round"/>
<path d="M21.8491 13.3814V15.9816" stroke="black" stroke-width="0.5" stroke-linecap="round"/>
<path d="M19.6824 11.6961C19.5942 11.1559 19.5262 10.7476 19.2116 10.2837C18.8768 9.79001 18.4432 9.46393 17.949 9.1441" stroke="black" stroke-width="0.5" stroke-linecap="round"/>
<path d="M13.5671 10.5405C13.5844 10.9794 13.7132 11.0945 14.145 11.1664C14.5258 11.2299 15.1927 11.3407 15.5414 11.1664" stroke="black" stroke-width="0.5" stroke-linecap="round"/>
<path d="M15.9309 34.3825C15.9309 33.3803 15.8685 33.0033 15.5903 32.1687" stroke="black" stroke-width="0.5" stroke-linecap="round"/>
<path d="M16.1013 34.2122C16.2792 33.718 16.6566 32.7425 17.1231 32.5093" stroke="black" stroke-width="0.5" stroke-linecap="round"/>
<path d="M16.1013 34.2122C16.7308 33.9036 17.4712 33.6938 17.9745 33.1904" stroke="black" stroke-width="0.5" stroke-linecap="round"/>
<path d="M24.7861 26.8896C24.5525 26.12 24.2177 25.4651 24.105 24.6758" stroke="black" stroke-width="0.5" stroke-linecap="round"/>
<path d="M24.616 26.3788C24.7941 25.3496 24.94 24.5332 25.4674 23.6541" stroke="black" stroke-width="0.5" stroke-linecap="round"/>
<path d="M24.616 26.3788C24.9028 25.5521 25.1988 24.9445 25.808 24.3353" stroke="black" stroke-width="0.5" stroke-linecap="round"/>
<path d="M12.1847 26.3788C12.1847 26.0433 12.3643 24.6805 12.0144 24.5056" stroke="black" stroke-width="0.5" stroke-linecap="round"/>
<path d="M12.5251 26.3788C12.5251 25.562 12.6514 25.0809 12.9414 24.3353C13.0992 23.9296 13.4212 23.6906 13.5469 23.3135" stroke="black" stroke-width="0.5" stroke-linecap="round"/>
<path d="M13.3767 25.357C13.6356 24.9324 13.876 24.5172 14.2282 24.165" stroke="black" stroke-width="0.5" stroke-linecap="round"/>
<path d="M52.8844 29.444C52.7984 29.0029 52.6324 28.63 52.8844 28.252" stroke="black" stroke-width="0.5" stroke-linecap="round"/>
<path d="M59.4202 76.2183C59.4202 75.6753 59.3418 75.0543 59.5158 74.5323C59.5892 74.3121 59.6227 74.087 59.6788 73.8629C59.7252 73.677 59.8649 73.5335 59.9161 73.3493C60.0419 72.8963 60.6509 72.3929 61.1416 72.3929C61.661 72.3929 61.6516 73.6548 61.6516 74.0577C61.6516 74.61 61.7154 75.1652 61.7154 75.7082" stroke="black" stroke-width="0.5" stroke-linecap="round"/>
<path d="M62.7355 70.0977C62.6257 69.3975 62.6816 68.6146 62.8772 67.93C62.9395 67.7121 63.2463 67.1053 63.5324 67.296C63.6946 67.4041 63.8423 68.0085 63.8796 68.2134C63.9087 68.3736 63.9678 68.5064 64.0106 68.6668C64.1051 69.0209 64.1273 69.6033 64.3294 69.9065" stroke="black" stroke-width="0.5" stroke-linecap="round"/>
<path d="M56.4874 73.0943C56.3649 72.1911 56.6648 71.5164 56.8841 70.6574C56.9871 70.254 57.4132 69.9232 57.7625 69.7436C58.2231 69.5067 58.5 70.3978 58.6551 70.7353C58.8513 71.1623 58.7826 71.6807 58.7826 72.1379" stroke="black" stroke-width="0.5" stroke-linecap="round"/>
<path d="M55.3398 79.6611C55.413 79.1815 55.4674 78.7433 55.4674 78.2585C55.4674 77.979 55.3684 77.4561 55.5028 77.2065C55.6185 76.9916 56.0024 76.3354 56.3316 76.6646C56.557 76.89 56.636 77.2805 56.7743 77.5572C56.8985 77.8054 57.0844 78.1362 57.1215 78.4143C57.169 78.771 57.2682 79.1342 57.38 79.4698" stroke="black" stroke-width="0.5" stroke-linecap="round"/>
<path d="M51.1898 80.0003C51.1898 79.3289 50.718 75.4878 52.3306 75.781C53.6172 76.0149 53.9076 77.7237 53.9076 78.7924" stroke="black" stroke-width="0.5" stroke-linecap="round"/>
<path d="M55.8706 84.681C55.9944 83.7598 56.1507 82.7823 56.3571 81.8793C56.4493 81.476 56.62 81.0645 56.8604 81.6109C57.0975 82.1497 57.5315 82.5769 57.5315 83.1711C57.5315 83.4853 57.5403 83.7794 57.8335 83.926" stroke="black" stroke-width="0.5" stroke-linecap="round"/>
<path d="M54.0587 73.9607C53.9444 73.2462 53.9077 72.5678 53.9077 71.8468" stroke="black" stroke-width="0.5" stroke-linecap="round"/>
<path d="M53.9078 73.6587C53.7112 73.2492 53.5824 72.8761 53.4548 72.4508" stroke="black" stroke-width="0.5" stroke-linecap="round"/>
<path d="M50.2841 95.8543C49.213 93.7122 48.005 91.5266 47.2307 89.261C45.9835 85.6118 46.2548 81.5931 45.9389 77.8026C45.6417 74.2357 45.2916 70.8942 45.7208 67.3171C45.9046 65.7852 46.2959 64.2088 47.4152 63.0894" stroke="black" stroke-linecap="round"/>
<path d="M36.091 97.6661C35.8569 96.73 35.384 95.9454 35.1515 95.0154C34.8318 93.7369 34.0772 92.4944 33.608 91.2574C32.9747 89.5877 32.1463 87.8601 30.9573 86.5013C30.079 85.4975 29.5232 84.7682 28.3569 84.077C27.822 83.76 27.1577 83.8114 26.6541 83.5402C26.2469 83.3209 25.9333 82.9346 25.5217 82.7517C24.2528 82.1877 22.4316 82.3508 21.1346 82.6426C19.7518 82.9537 18.1481 83.5375 16.8481 84.1441C16.2959 84.4019 15.6333 84.5425 15.0446 84.681C14.4047 84.8316 13.9702 85.3405 13.4089 85.5534C12.3798 85.9437 11.4177 86.5624 10.3555 86.862C9.47638 87.1099 8.52468 87.1399 7.70483 87.5498" stroke="black" stroke-linecap="round"/>
<path d="M2.72217 77.7355C4.57434 78.0883 6.57139 77.0575 8.27525 76.343C9.05362 76.0166 9.97466 75.6485 10.8085 75.5042C11.3926 75.4031 11.9658 75.0176 12.5449 75.0176C13.177 75.0176 13.8265 74.8655 14.4407 74.7157C15.0432 74.5687 15.6033 74.5903 16.0932 74.1788C16.469 73.8631 16.803 73.6848 17.2508 73.5077C18.875 72.8656 20.4729 72.0582 22.1412 71.5449C23.5458 71.1127 25.1096 70.9959 26.4444 70.3286C27.7129 69.6943 29.1621 69.7172 30.3953 68.9864C31.1799 68.5214 31.88 67.9491 32.7189 67.5856C33.9844 67.0372 35.114 66.1986 36.3342 65.6563C36.908 65.4012 37.9029 64.6799 37.9029 63.9954" stroke="black" stroke-linecap="round"/>
<path d="M18.3046 68.9189C17.9635 67.9169 18.1253 66.7389 18.1253 65.6915" stroke="black" stroke-width="0.5" stroke-linecap="round"/>
<path d="M18.3047 68.7396C17.4261 67.8395 16.9917 66.6419 16.1531 65.6915" stroke="black" stroke-width="0.5" stroke-linecap="round"/>
<path d="M18.4839 68.6498C17.7207 68.6346 17.2167 68.2569 16.5813 67.8629C16.2078 67.6314 15.7865 67.4785 15.4358 67.2155" stroke="black" stroke-width="0.5" stroke-linecap="round"/>
<path d="M52.3735 29.6143C52.0629 28.8186 51.4004 27.0194 50.5002 26.7194" stroke="black" stroke-width="0.5" stroke-linecap="round"/>
<path d="M52.2033 29.6143C52.2033 28.9297 52.0636 28.0204 52.3735 27.4005" stroke="black" stroke-width="0.5" stroke-linecap="round"/>
<path d="M49.9895 37.618C49.9586 36.8597 49.7926 36.48 49.3083 35.9151" stroke="black" stroke-width="0.5" stroke-linecap="round"/>
<path d="M50.5002 36.9369C50.5002 36.4236 50.3801 35.8398 50.6705 35.4042" stroke="black" stroke-width="0.5" stroke-linecap="round"/>
<path d="M49.9895 37.6181C50.517 36.9964 51.1982 36.6987 51.8627 36.2557" stroke="black" stroke-width="0.5" stroke-linecap="round"/>
<path d="M65.3158 40.6833C65.3158 39.9992 65.3071 39.4566 65.1455 38.8101" stroke="black" stroke-width="0.5" stroke-linecap="round"/>
<path d="M65.1455 40.6833C65.4232 40.3057 65.7956 39.894 65.997 39.4913" stroke="black" stroke-width="0.5" stroke-linecap="round"/>
<path d="M65.3156 40.513C64.9079 40.2645 64.5098 39.8547 64.1235 39.6616" stroke="black" stroke-width="0.5" stroke-linecap="round"/>
<path d="M86.8125 90.3607L73.2589 96L66.4821 94.1796L62.9464 93.2298L60 92.4384V81.1598L67.6607 72.5525L79.1518 68.3973L86.8125 77.895V90.3607Z" fill="white"/>
<path d="M88.875 82.6438V79.0822L90.9375 78.4886L91.5268 82.0502L88.875 82.6438Z" fill="white"/>
<path d="M93 42.8721L86.8125 46.7306L79.1518 46.137L85.9286 31L93 42.8721Z" fill="white"/>
<path d="M60 81.1598L72.0804 83.2374M60 81.1598L67.6607 72.5525M60 81.1598V92.4384L62.9464 93.2298M72.0804 83.2374L73.2589 96M72.0804 83.2374L86.8125 77.895M72.0804 83.2374L67.6607 72.5525M73.2589 96L86.8125 90.3607M73.2589 96L66.4821 94.1796M86.8125 90.3607V77.895M86.8125 90.3607L93 87.9863V42.8721M86.8125 77.895L79.1518 68.3973M86.8125 77.895V46.137M67.6607 72.5525L79.1518 68.3973M62.9464 93.2298V89.4703H66.4821V94.1796M62.9464 93.2298L66.4821 94.1796M79.1518 68.3973V46.137M79.1518 46.137L86.8125 46.7306M79.1518 46.137L85.9286 31M93 42.8721L86.8125 46.7306M93 42.8721L85.9286 31M86.8125 46.7306L85.9286 31M90.0536 49.9954V51.7763M90.0536 51.7763V57.1187M90.0536 51.7763L88.5804 52.3699M90.0536 51.7763L91.5268 51.1826M66.4821 84.7215V87.3927H69.1339V84.7215H66.4821ZM65.5982 77.0046L65.0089 79.6758L68.25 80.2694V77.895L65.5982 77.0046ZM75.6161 84.7215V87.0959L84.4554 83.8311V82.0502L75.6161 84.7215ZM88.875 79.0822V82.6438L91.5268 82.0502L90.9375 78.4886L88.875 79.0822Z" stroke="black"/>
</svg>
