<svg width="100" height="100" viewBox="0 0 100 100" fill="none" xmlns="http://www.w3.org/2000/svg">
<rect width="100" height="100" fill="white"/>
<path d="M11.275 41.8742L31.225 39L32.8875 39.2366L37.1522 45.8602M11.275 41.8742L14.6 48.4624M11.275 41.8742L7.7125 47.9892L7 58.3978L9.6125 59.2397M14.6 48.4624L37.1522 45.8602M14.6 48.4624L15.075 61M37.1522 45.8602V48.6768M15.075 61L28.85 59.1075M15.075 61L11.8645 59.9654M28.85 59.1075V54.1398M28.85 59.1075L36.45 60.5269M28.85 54.1398L33.6 48.4624L37.1522 48.6768M28.85 54.1398L36.45 55.5591M41.4375 48.9355L36.45 55.5591M41.4375 48.9355L37.1522 48.6768M41.4375 48.9355L45 53.9032V58.3978L36.45 60.5269M36.45 55.5591V60.5269M9.6125 59.2397V55.086L11.9875 55.5591L11.8645 59.9654M9.6125 59.2397L11.8645 59.9654M9.6125 48.4624L9.375 50.5914L11.8645 51.0645L11.9875 48.6768L9.6125 48.4624ZM18.1625 51.0645L20.3 50.3548L20.5375 52.4839L18.1625 53.1935V51.0645ZM23.3875 49.8817V52.4839L26 52.2473V50.3548L23.3875 49.8817ZM40.25 55.086V56.2688L42.15 55.7957V54.6129L40.25 55.086Z" stroke="black"/>
<path d="M57.1366 31.0513L59.2733 31.4222M57.1366 31.0513L61.9441 31.8859M57.1366 31.0513L55 32.906M57.1366 31.0513L56.3238 23.6325L55.8012 18.8632L60.3416 11.9744M60.3416 11.9744L67.2857 8L70.4907 13.2991M60.3416 11.9744L62.6837 15.1538M65.4161 18.8632L82.5093 22.3077M65.4161 18.8632L70.4907 13.2991M65.4161 18.8632L64.8306 18.0684M82.5093 22.3077L83.3106 35.0256M82.5093 22.3077L85.9814 16.4786M83.3106 35.0256L67.8199 32.906L61.9441 31.8859M83.3106 35.0256L89.1863 31.0513V19.6581L85.9814 16.4786M85.9814 16.4786L70.4907 13.2991M59.2733 31.4222V26.2821L61.9441 27.0769V31.8859M59.2733 31.4222L61.9441 31.8859M61.9441 31.8859L58.205 34.2308L83.8447 39L98 28.6667L90.2547 26.2821M64.3478 11.4444L62.6837 15.1538M62.6837 15.1538L63.6596 16.4786M66.2174 11.1795L63.6596 16.4786M63.6596 16.4786L64.8306 18.0684M68.087 11.1795L64.8306 18.0684M59.0062 18.0684V20.453H61.1429V18.0684L59.2733 17.5385L59.0062 18.0684ZM65.6832 23.6325L68.087 23.8974V26.2821H65.6832V23.6325ZM71.2919 23.8974L70.7578 24.9573V26.2821L73.4286 26.812L73.9627 24.4274L71.2919 23.8974Z" stroke="black"/>
<path d="M85.764 84.7949L83.528 85.1778M85.764 84.7949L80.7329 85.6564M85.764 84.7949L88 86.7094M85.764 84.7949L86.6146 77.1368L87.1615 72.2137L82.4099 65.1026M82.4099 65.1026L75.1429 61L71.7888 66.4701M82.4099 65.1026L79.9589 68.3846M77.0994 72.2137L59.2112 75.7692M77.0994 72.2137L71.7888 66.4701M77.0994 72.2137L77.7121 71.3932M59.2112 75.7692L58.3727 88.8974M59.2112 75.7692L55.5776 69.7521M58.3727 88.8974L74.5839 86.7094L80.7329 85.6564M58.3727 88.8974L52.2236 84.7949V73.0342L55.5776 69.7521M55.5776 69.7521L71.7888 66.4701M83.528 85.1778V79.8718L80.7329 80.6923V85.6564M83.528 85.1778L80.7329 85.6564M80.7329 85.6564L84.646 88.0769L57.8137 93L43 82.3333L51.1056 79.8718M78.2174 64.5556L79.9589 68.3846M79.9589 68.3846L78.9376 69.7521M76.2609 64.2821L78.9376 69.7521M78.9376 69.7521L77.7121 71.3932M74.3043 64.2821L77.7121 71.3932M83.8075 71.3932V73.8547H81.5714V71.3932L83.528 70.8462L83.8075 71.3932ZM76.8199 77.1368L74.3043 77.4103V79.8718H76.8199V77.1368ZM70.9503 77.4103L71.5093 78.5043V79.8718L68.7143 80.4188L68.1553 77.9573L70.9503 77.4103Z" stroke="black"/>
<path d="M21.0373 23.964C24.9451 28.8487 31.2054 32.3502 36.5715 35.3015C37.513 35.8194 38.2256 36.593 39.1774 37.1122C40.8085 38.0019 41.5785 39.999 43.0863 41.0042C45.2388 42.4391 46.2569 46.0765 47.5367 48.179C49.1726 50.8665 51.616 53.3951 51.4964 56.6229C51.4415 58.1063 50.4875 58.5968 49.9735 59.7534C49.4212 60.996 46.6661 60.9199 45.7092 61.7333C43.6524 63.4815 39.6703 63.3911 37.1637 64.0177C32.54 65.1736 27.6358 65.4106 23.051 66.759C21.1751 67.3107 19.3384 67.9093 17.4499 68.1974C16.4237 68.3539 12.8134 69.4132 12.8134 70.5664" stroke="black" stroke-linecap="round"/>
<path d="M26.2153 82.4454C32.1376 81.2059 36.2147 76.2149 41.9187 74.763C43.5741 74.3416 45.1744 72.4132 46.6906 71.4802C48.0324 70.6545 49.3784 69.5031 50.5149 68.3666C52.8562 66.0253 55.6587 64.0369 58.0282 61.7333C60.1803 59.6409 62.8999 59.4945 65.3384 57.9428C66.1183 57.4464 67.4818 57.9418 68.232 57.3167C68.8375 56.812 70.8108 57.1644 71.5994 57.1644C73.5847 57.1644 76.7542 56.5466 78.4696 57.6382C80.0612 58.651 82.012 58.9711 83.6477 59.9057C85.4513 60.9363 86.9136 62.0943 88.6565 63.2562" stroke="black" stroke-linecap="round"/>
<path d="M30.4796 19.6997C32.4269 22.4816 34.9991 23.4561 37.9082 24.9962C39.0512 25.6013 41.2629 26.1732 42.0541 27.1622C43.2667 28.678 44.7242 30.1538 46.0814 31.5111C46.7418 32.1714 47.5983 33.4722 47.9767 34.337C48.6274 35.8244 49.262 36.3219 50.4303 37.2306C52.7511 39.0357 55.5792 40.1582 58.3835 41.0211C60.5492 41.6874 62.6572 42.5404 64.8984 43.0855C66.3535 43.4395 67.761 43.5445 69.1627 44.1347C70.0221 44.4966 71.7996 44.8571 72.4962 45.4376C73.6564 46.4044 75.3868 46.2726 76.6251 46.9606C78.8771 48.2117 81.6301 47.8943 83.8507 49.1773C86.0397 50.4421 88.6824 51.3836 91.0932 51.9864" stroke="black" stroke-linecap="round"/>
<path d="M52.8611 59.0484C53.2751 57.8063 53.3918 56.019 53.0674 54.7215C52.9231 54.1445 52.7399 53.5637 52.5745 52.985C52.4575 52.5755 52.139 52.0529 52.139 51.621C52.139 51.0749 51.691 50.188 51.4226 49.7183C51.1403 49.2243 50.8684 48.8673 50.4082 48.4919C49.941 48.1107 49.8624 47.7513 49.5371 47.2884C48.6825 46.0722 47.9056 44.8068 47.0842 43.5747" stroke="black" stroke-width="0.5" stroke-linecap="round"/>
<path d="M48.0127 41.6147C48.2339 42.0755 48.4242 42.5455 48.6374 43.0074C48.813 43.3879 49.2275 43.6546 49.3996 43.9988C49.5665 44.3326 49.6338 44.6128 49.8925 44.8814C50.0725 45.0683 50.5516 45.6937 50.5916 45.9474C50.6315 46.1996 51.0236 46.6293 51.159 46.8701C51.3202 47.1566 51.5578 47.5538 51.778 47.7985C52.0955 48.1513 52.2187 48.6521 52.5975 48.8931C52.8831 49.0749 53.1731 49.7006 53.3311 49.9877C54.5562 52.2153 55.6464 54.9809 55.6464 57.5469C55.6464 58.0023 55.6833 58.4568 55.5661 58.8994C55.4954 59.1668 55.1402 59.7772 54.9014 59.8966C54.5102 60.0922 54.2407 60.454 53.8125 60.6187C53.4655 60.7522 53.0625 61.119 52.8611 61.4211" stroke="black" stroke-width="0.5" stroke-linecap="round"/>
<path d="M52.3452 41.2021C54.0533 42.289 55.9898 43.1252 57.8699 43.8383C58.3882 44.035 58.8337 44.3757 59.36 44.5261C59.8085 44.6542 60.1031 45.1681 60.5978 45.3055C62.3835 45.8015 64.3115 45.6828 66.1283 46.1021C67.3477 46.3835 68.6246 46.5318 69.8591 46.7268C70.761 46.8692 71.652 46.9789 72.5642 46.9789" stroke="black" stroke-width="0.5" stroke-linecap="round"/>
<path d="M61.1136 56.5726C62.1037 56.1483 63.2512 56.0631 64.2886 55.7473C65.3912 55.4118 66.4534 55.1394 67.5954 54.9737C69.3079 54.7251 71.0947 54.1624 72.8221 54.561C74.7158 54.998 76.6038 55.3465 78.4671 55.8963C79.1703 56.1038 79.8377 56.522 80.5532 56.67C81.0707 56.7771 81.5186 57.0884 82.0547 57.0884" stroke="black" stroke-width="0.5" stroke-linecap="round"/>
<path d="M26.0436 18.3769C26.3371 19.2403 26.8009 19.8964 27.1507 20.6833C27.3996 21.2433 28.2218 21.7154 28.5857 22.2927C30.5308 25.3779 33.7881 28.0596 36.5608 30.3702" stroke="black" stroke-width="0.5" stroke-linecap="round"/>
<path d="M22.5378 79.6349C27.152 79.5251 30.9376 76.4136 34.4389 73.7203C35.5454 72.8691 36.7609 72.2843 37.8934 71.4754C38.7331 70.8756 39.5951 69.9275 40.62 69.6713" stroke="black" stroke-width="0.5" stroke-linecap="round"/>
</svg>
